<?xml version="1.0" encoding="utf-8"?>
<!-- Generator: Adobe Illustrator 22.1.0, SVG Export Plug-In . SVG Version: 6.00 Build 0)  -->
<svg version="1.1" xmlns="http://www.w3.org/2000/svg" xmlns:xlink="http://www.w3.org/1999/xlink" x="0px" y="0px"
	 viewBox="0 0 779.8 348.4" style="enable-background:new 0 0 779.8 348.4;" xml:space="preserve">
<style type="text/css">
	.st0{opacity:0.5;}
	.st1{fill:#FBD0B5;}
	.st2{fill:#FFFFFF;}
	.st3{fill:#FFE8CD;}
</style>
<g id="Layer_2">
</g>
<g id="Layer_1">
	<g id="Ppxovp.tif_8_" class="st0">
		<g>
			<path class="st1" d="M704.4,310c-0.4,5-0.7,10-1.1,14.9c-0.1,0.2,0,0.3,0.3,0.4c2.4,0.7,4.9,1.4,7.3,2c2.3,0.6,4.4,1.2,6.7,1.8
				c0.1,0,0.1,0,0.2,0.1v0.1c-0.1,0-0.3,0-0.4,0c-4.7,1.2-9.3,2.4-14,3.6c-0.3,0-0.3,0.2-0.3,0.5c0.2,4.6,0.4,9.4,0.6,14
				c0,0.3,0.1,0.6,0.2,1c-0.1,0-0.2-0.1-0.3-0.2c-0.3-0.7-0.7-1.2-1-1.9c-2.1-3.5-4.2-7.1-6.5-10.6c-0.1-0.2-0.1-0.2-0.1-0.2
				c-0.1,0-0.3,0-0.4,0c-4.6,1.8-9.2,3.5-13.9,5.3l-0.2,0.1h-0.1c0-0.1,0.1-0.4,0.3-0.5c3.1-3.8,6.3-7.6,9.3-11.4
				c0-0.1,0-0.1,0.2-0.2c-0.1-0.2-0.1-0.2-0.2-0.2c-2.7-3.4-5.4-6.9-8.1-10.3c-0.4-0.4-0.7-0.8-1.1-1.3v-0.1
				c0.4,0.1,0.9,0.3,1.2,0.4c1.4,0.6,2.8,1.1,4.3,1.7c1.8,0.7,3.5,1.5,5.3,2.2c1,0.5,2.1,0.8,3,1.3c0.1,0,0.2,0.1,0.3-0.2
				c2.7-4.2,5.4-8.4,8.2-12.6l0,0C704.2,310,704.4,310,704.4,310z M697.7,329.4c-5.3,3.8-10.4,7.5-15.5,11.3c0.1,0,0.3,0,0.3,0
				c4.3-1.6,8.6-3.3,12.8-4.9c0.2-0.1,0.3-0.2,0.4-0.4c0.6-1.9,1.2-3.7,1.9-5.6C697.6,329.7,697.7,329.6,697.7,329.4z M682.4,317.8
				L682.4,317.8c0,0.1,0.1,0.2,0.1,0.2c2.8,3.6,5.7,7.2,8.5,10.8c0.1,0.2,0.3,0.2,0.5,0.2c1.8-0.1,3.8-0.1,5.6-0.2
				c0.1,0,0.2-0.1,0.3,0C692.5,325.1,687.5,321.5,682.4,317.8z M698,328.7c2-6,4-11.9,5.9-17.7c0,0.1-0.2,0.1-0.2,0.2
				c-2.5,3.8-5.1,7.8-7.5,11.7c0,0.1-0.1,0.2,0,0.4c0.2,0.6,0.4,1.2,0.6,1.9C697.1,326.2,697.5,327.4,698,328.7z M698.3,328.8
				L698.3,328.8c6.2,0.1,12.3,0.3,18.5,0.4c-0.4-0.1-0.7-0.2-1.1-0.4c-1.5-0.4-3.1-0.9-4.7-1.3c-1.7-0.4-3.3-0.8-4.9-1.4
				c-0.9-0.3-1.7-0.4-2.5-0.7c-0.2-0.1-0.4,0-0.6,0.1c-0.9,0.7-1.8,1.2-2.7,1.9C699.6,327.9,699,328.4,698.3,328.8z M703.4,346.9
				L703.4,346.9c0-0.1,0-0.1,0-0.1c-0.2-4.5-0.3-8.9-0.6-13.4c0-0.1,0-0.3-0.2-0.3c-1.1-0.9-2.3-1.9-3.3-2.8c-0.3-0.2-0.7-0.5-1-0.7
				l0,0C700,335.3,701.8,341.1,703.4,346.9z"/>
			<path class="st2" d="M697.7,329.4c0,0.1-0.1,0.2-0.1,0.4c-0.6,1.9-1.2,3.7-1.9,5.6c-0.1,0.2-0.1,0.4-0.4,0.4
				c-4.3,1.6-8.6,3.3-12.8,4.9c-0.1,0-0.2,0.1-0.3,0C687.3,337,692.4,333.2,697.7,329.4z"/>
			<path class="st2" d="M682.4,317.8c5,3.6,10.1,7.4,15.1,11c-0.2,0.1-0.3,0-0.3,0c-1.8,0.1-3.8,0.1-5.6,0.2c-0.3,0-0.4-0.1-0.5-0.2
				c-2.8-3.6-5.7-7.3-8.5-10.8C682.5,318,682.6,317.9,682.4,317.8L682.4,317.8z"/>
			<path class="st2" d="M698,328.7c-0.4-1.2-0.9-2.4-1.2-3.6c-0.2-0.6-0.4-1.2-0.6-1.9c-0.1-0.2,0-0.3,0-0.4
				c2.5-3.8,5.1-7.8,7.5-11.7c0-0.1,0-0.1,0.2-0.2C701.9,316.8,699.9,322.7,698,328.7z"/>
			<path class="st2" d="M698.3,328.8c0.7-0.5,1.3-0.9,1.9-1.3c0.9-0.7,1.8-1.2,2.7-1.9c0.2-0.1,0.3-0.2,0.6-0.1
				c0.9,0.3,1.7,0.4,2.5,0.7c1.7,0.4,3.3,0.8,4.9,1.4c1.5,0.4,3.1,0.9,4.7,1.3c0.4,0.1,0.7,0.2,1.1,0.4
				C710.6,329.1,704.5,329,698.3,328.8L698.3,328.8z"/>
			<path class="st2" d="M703.4,346.9c-1.8-5.8-3.4-11.6-5.2-17.5l0,0c0.3,0.2,0.7,0.5,1,0.7c1.1,0.9,2.3,1.9,3.3,2.8
				c0.1,0,0.2,0.2,0.2,0.3c0.2,4.5,0.3,8.9,0.6,13.4C703.5,346.8,703.4,346.9,703.4,346.9L703.4,346.9z"/>
		</g>
	</g>
	<g id="Ppxovp.tif_2_" class="st0">
		<g>
			<path class="st1" d="M12.7,224.8c5.1,5,10.2,10,15.4,15.1c0.2,0.2,0.3,0.2,0.7,0.1c2.9-2,6-4.1,9-6.1c2.7-1.8,5.4-3.8,8.1-5.6
				c0.1,0,0.3-0.1,0.4-0.1v0.1c-0.1,0.2-0.2,0.3-0.3,0.5c-3,6.2-6,12.5-9,18.7c-0.2,0.3-0.1,0.5,0.2,0.8c5.2,4.1,10.6,8.2,15.9,12.4
				c0.4,0.3,0.9,0.5,1.4,0.7c-0.3,0.1-0.4,0.1-0.5,0.2c-1-0.1-2-0.4-3-0.6c-5.8-0.9-11.7-1.9-17.6-2.7c-0.2-0.1-0.3-0.1-0.3-0.1
				c-0.1,0.2-0.2,0.3-0.3,0.5c-2.4,6.7-4.7,13.4-7,20.1l-0.1,0.2h-0.1c-0.1-0.3-0.3-0.5-0.2-0.8c-1.2-6.9-2.5-13.8-3.7-20.7
				c0-0.1-0.1-0.3-0.1-0.4c-0.1,0-0.3-0.1-0.4,0c-6.3-0.2-12.5-0.5-18.9-0.7c-0.7-0.1-1.6-0.1-2.3,0v-0.1c0.5-0.3,1.1-0.6,1.6-0.9
				c2-1,3.8-2,5.8-3c2.4-1.3,4.9-2.5,7.4-3.8c1.4-0.7,2.8-1.4,4.2-2.1c0.3-0.1,0.4-0.2,0.3-0.5c-2.1-6.9-4.2-13.7-6.3-20.6
				c0,0,0,0,0-0.1C12.5,224.8,12.5,224.8,12.7,224.8z M27.6,250c-0.6,9.2-1.2,18.3-2,27.4c0.1-0.2,0.2-0.2,0.3-0.4
				c2.2-6.2,4.3-12.4,6.6-18.7c0.1-0.3,0.1-0.5-0.1-0.7c-1.4-2.4-2.9-4.8-4.3-7.2C27.9,250.4,27.8,250.2,27.6,250z M0.9,255.9
				C0.9,255.9,0.9,256,0.9,255.9c0.2,0.1,0.3,0.1,0.3,0.1c6.6,0.3,13.1,0.4,19.7,0.7c0.3,0.1,0.5-0.2,0.6-0.3c1.6-2.1,3.4-4.3,5-6.4
				c0.1-0.2,0.1-0.2,0.3-0.4C18.2,251.8,9.5,253.8,0.9,255.9z M27.1,249.2c-4.6-7.7-9.3-15.4-14-23c0,0.1-0.1,0.3,0,0.4
				c1.9,6.4,3.9,12.8,5.8,19.2c0,0.1,0.2,0.4,0.4,0.4c0.9,0.5,1.8,0.7,2.7,1C23.7,247.8,25.3,248.4,27.1,249.2z M27.7,248.9
				L27.7,248.9c6-6.5,11.7-13.1,17.5-19.7c-0.5,0.3-1,0.6-1.4,0.9c-1.9,1.3-3.9,2.6-5.8,3.9c-2,1.3-4,2.8-6,4.1
				c-1.1,0.7-2.1,1.5-3.1,2.1c-0.2,0.2-0.3,0.4-0.4,0.7c-0.1,1.6-0.3,3.1-0.4,4.7C27.8,246.5,27.8,247.7,27.7,248.9z M52.2,260.1
				L52.2,260.1c0-0.1,0-0.1-0.1-0.3c-5-3.9-10.1-7.9-15.1-11.8c-0.2-0.1-0.5-0.1-0.6-0.1c-2,0.3-4.1,0.7-6.1,1.1
				c-0.6,0-1.2,0.2-1.8,0.3c0,0,0,0,0,0.1C36.3,252.9,44.3,256.5,52.2,260.1z"/>
			<path class="st2" d="M27.6,250c0.2,0.2,0.2,0.4,0.3,0.5c1.4,2.4,2.9,4.8,4.3,7.2c0.2,0.2,0.2,0.5,0.1,0.7
				c-2.2,6.2-4.3,12.4-6.6,18.7c-0.1,0.2-0.1,0.3-0.3,0.4C26.4,268.4,27,259.3,27.6,250z"/>
			<path class="st2" d="M0.9,255.9c8.6-2.1,17.4-4.2,26.2-6.3c-0.1,0.2-0.2,0.3-0.3,0.4c-1.6,2.1-3.4,4.3-5,6.4
				c-0.2,0.2-0.3,0.4-0.6,0.3c-6.6-0.3-13.1-0.4-19.7-0.7C1.1,256,0.9,256,0.9,255.9C0.9,256,0.9,255.9,0.9,255.9z"/>
			<path class="st2" d="M27.1,249.2c-1.8-0.7-3.4-1.4-5-2c-0.9-0.3-1.8-0.7-2.7-1c-0.2-0.1-0.4-0.3-0.4-0.4
				c-1.9-6.4-3.9-12.8-5.8-19.2c0-0.1-0.1-0.3,0-0.4C17.8,233.8,22.4,241.3,27.1,249.2z"/>
			<path class="st2" d="M27.7,248.9c0.1-1.2,0.2-2.2,0.3-3.4c0.1-1.6,0.3-3.1,0.4-4.7c0.1-0.3,0.1-0.5,0.4-0.7
				c1.1-0.7,2.1-1.5,3.1-2.1c2-1.3,4-2.8,6-4.1c1.9-1.3,3.9-2.6,5.8-3.9c0.5-0.3,1-0.6,1.4-0.9C39.3,235.6,33.5,242.2,27.7,248.9
				L27.7,248.9z"/>
			<path class="st2" d="M52.2,260.1c-7.9-3.6-15.9-7-23.9-10.5c0,0,0,0,0-0.1c0.6,0,1.2-0.2,1.8-0.3c2-0.3,4-0.8,6.1-1.1
				c0.1,0,0.4,0,0.6,0.1c5,3.9,10.1,7.9,15.1,11.8C52.2,259.9,52.2,259.9,52.2,260.1L52.2,260.1z"/>
		</g>
	</g>
	<g class="st0">
		<path class="st2" d="M703.9,59.6c-2.2-0.7-4.9,14.5-7.6,13.6c-1.4-0.4-0.6-3.7-2.4-4.3c-1.7-0.6-3.5,4.1-4.1,9.8
			c-0.5,5.7,1.2,12.9-1.1,12.9c-2.2-0.1-4.9-14.8-4.6-20.6c0.3-5.8,2.3-12.9,4-18c-0.8-1.4-1.2-3.6-1.6-6.6c-0.6-7.1,3-9.2,7.2-11.9
			c-3.6-1.7-7.9-4.3-12.1-7.6c-7.1-5.9-11.7-14.1-15.2-17.8C660.5,3.2,651.5,3,652,1.4c0.5-1.6,6.7-2.4,13.9,0.7
			c7.9,3.4,15,12.5,21.1,17.3c5.3,4,10.2,5.5,17.3,7.8c3.2-1.5,6.4-2.1,10.2-0.9s5.9,3.6,7.6,6.7c7,2.4,11.9,4.2,18.6,3.7
			c8.1-0.2,19.1-3.5,27.3-1.7c7.7,1.6,12.3,6,11.8,7.5s-8-3.6-16.2-2.2c-5.2,0.9-13.6,4.9-22.8,5.5c-5.4,0.3-10.4-0.2-14.3-0.9
			c1.9,4.7,3.6,8.3-1.1,13.8c-2,2.4-3.7,3.7-5.2,4.4c-1.7,5.1-4.2,12-7.3,16.9c-3.1,4.8-13.9,15.4-15.7,14
			c-1.8-1.3,3.7-6.3,6.6-11.1c3-5,4.1-9.8,2.5-10.4c-1.7-0.6-3,2.6-4.4,2.1C699.3,74.2,706.1,60.3,703.9,59.6z"/>
		<path class="st3" d="M700.5,43.3c-0.5-1-8.1,5-13.2,6.9c0.3,1.2,0.6,2.3,0.8,3c-0.6,1.9-1.2,3.8-1.8,6
			C692.9,55.6,701.1,44.5,700.5,43.3z M677.1,17.3c-5-6-8.2-8.2-10.1-7.5c3.5,3.8,8.1,11.8,14.8,17.4c4.2,3.3,8.5,6,12.1,7.6
			C706,30.7,685.9,27.9,677.1,17.3z M693.9,68.9c1.7,0.6,1,3.9,2.4,4.3c0.7-3.7,0.2-5.7-1.8-6.3c-2.2-0.7-6.3,0.3-6.6,9.1
			c-0.3,7-0.1,12.3,1.5,15.7c1.5-1.1,0.2-7.5,0.6-12.8C690.4,73,692.2,68.4,693.9,68.9z M767.3,38.5c-11.7-2.6-20.8,4.7-32.5,3.2
			c-3.6-0.3-9.6-1.3-11.4-0.3c-0.6,0.3-1.1,0.8-1.4,1.3c-9.8-3.7-4,18.2-8.6,29.7c-4.4,11.7-10.7,17.2-16.3,22c0,0,0.2,0.1,0.1,0.2
			c1.9,1.3,12.6-9.1,15.7-14s5.7-11.9,7.3-16.9c1.4-0.8,3-2.2,5.2-4.4c4.6-5.5,3-9.2,1.1-13.8c3.8,0.7,8.9,1.2,14.3,0.9
			c9.1-0.6,17.7-4.6,22.8-5.5c8-1.3,15.6,3.6,16.1,2.3C777.6,41.5,773.6,39.9,767.3,38.5z"/>
	</g>
</g>
</svg>
