<?xml version="1.0" encoding="utf-8"?>
<!-- Generator: Adobe Illustrator 22.1.0, SVG Export Plug-In . SVG Version: 6.00 Build 0)  -->
<svg version="1.1" xmlns="http://www.w3.org/2000/svg" xmlns:xlink="http://www.w3.org/1999/xlink" x="0px" y="0px"
	 viewBox="0 0 950 1024" style="enable-background:new 0 0 950 1024;" xml:space="preserve">
<style type="text/css">
	.st0{display:none;}
	.st1{opacity:0.15;}
	.st2{clip-path:url(#SVGID_2_);}
	.st3{fill:none;}
	.st4{fill:#FFD976;}
</style>
<g id="Layer_2" class="st0">
</g>
<g id="BACKGROUND">
	<g class="st1">
		<defs>
			<rect id="SVGID_1_" class="st1" width="950" height="1024"/>
		</defs>
		<clipPath id="SVGID_2_">
			<use xlink:href="#SVGID_1_"  style="overflow:visible;"/>
		</clipPath>
		<g class="st2">
			<polygon class="st3" points="81.4,34.5 79.3,30.9 29,30.9 3.8,74.5 29,118.1 79.3,118.1 81.4,114.5 104.5,74.5 			"/>
			<polygon class="st3" points="81.4,132 79.3,128.3 29,128.3 3.8,171.9 29,215.5 79.3,215.5 81.4,211.9 104.5,171.9 			"/>
			<polygon class="st3" points="81.4,-62.9 79.3,-66.5 29,-66.5 3.8,-23 29,20.6 79.3,20.6 81.4,17 104.5,-23 			"/>
			<polygon class="st3" points="81.4,-257.8 79.3,-261.4 29,-261.4 3.8,-217.8 29,-174.2 79.3,-174.2 81.4,-177.9 104.5,-217.8 			
				"/>
			<polygon class="st3" points="81.4,-160.4 79.3,-164 29,-164 3.8,-120.4 29,-76.8 79.3,-76.8 81.4,-80.4 104.5,-120.4 			"/>
			<polygon class="st3" points="112,-222.2 162.3,-222.2 187.5,-265.8 180.6,-277.7 162.3,-309.4 112,-309.4 93.7,-277.7 
				86.8,-265.8 			"/>
			<polygon class="st3" points="1422.8,-271.7 1426.3,-277.7 1448,-315.3 1422.8,-358.9 1372.4,-358.9 1347.3,-315.3 1368.9,-277.7 
				1372.4,-271.7 			"/>
			<polygon class="st3" points="81.4,424.3 79.3,420.6 29,420.6 3.8,464.2 29,507.8 79.3,507.8 81.4,504.2 104.5,464.2 			"/>
			<polygon class="st3" points="81.4,619.1 79.3,615.5 29,615.5 3.8,659.1 29,702.7 79.3,702.7 81.4,699.1 104.5,659.1 			"/>
			<polygon class="st3" points="81.4,716.6 79.3,712.9 29,712.9 3.8,756.5 29,800.1 79.3,800.1 81.4,796.5 104.5,756.5 			"/>
			<polygon class="st3" points="81.4,326.8 79.3,323.2 29,323.2 3.8,366.8 29,410.4 79.3,410.4 81.4,406.8 104.5,366.8 			"/>
			<polygon class="st3" points="81.4,814 79.3,810.4 29,810.4 3.8,854 29,897.6 79.3,897.6 81.4,893.9 104.5,854 			"/>
			<polygon class="st3" points="247.6,-271.7 251.1,-277.7 272.7,-315.3 247.6,-358.9 197.2,-358.9 172.1,-315.3 193.7,-277.7 
				197.2,-271.7 			"/>
			<polygon class="st3" points="81.4,521.7 79.3,518.1 29,518.1 3.8,561.7 29,605.3 79.3,605.3 81.4,601.6 104.5,561.7 			"/>
			<polygon class="st3" points="81.4,229.4 79.3,225.8 29,225.8 3.8,269.4 29,313 79.3,313 81.4,309.3 104.5,269.4 			"/>
			<polygon class="st3" points="1086.3,-271.7 1089.8,-277.7 1111.5,-315.3 1086.3,-358.9 1036,-358.9 1010.8,-315.3 1032.5,-277.7 
				1036,-271.7 			"/>
			<polygon class="st3" points="950.7,-222.2 1001.1,-222.2 1026.2,-265.8 1019.4,-277.7 1001.1,-309.4 950.7,-309.4 932.5,-277.7 
				925.6,-265.8 			"/>
			<polygon class="st3" points="918.1,-271.7 921.6,-277.7 943.2,-315.3 918.1,-358.9 867.7,-358.9 842.6,-315.3 864.2,-277.7 
				867.7,-271.7 			"/>
			<polygon class="st3" points="1119,-222.2 1169.3,-222.2 1194.5,-265.8 1187.6,-277.7 1169.3,-309.4 1119,-309.4 1100.7,-277.7 
				1093.8,-265.8 			"/>
			<polygon class="st3" points="1287.2,-222.2 1337.5,-222.2 1362.7,-265.8 1355.8,-277.7 1337.5,-309.4 1287.2,-309.4 
				1268.9,-277.7 1262,-265.8 			"/>
			<polygon class="st3" points="1254.5,-271.7 1258.1,-277.7 1279.7,-315.3 1254.5,-358.9 1204.2,-358.9 1179,-315.3 1200.7,-277.7 
				1204.2,-271.7 			"/>
			<polygon class="st3" points="280.2,-222.2 330.6,-222.2 355.7,-265.8 348.8,-277.7 330.6,-309.4 280.2,-309.4 261.9,-277.7 
				255.1,-265.8 			"/>
			<polygon class="st3" points="81.4,911.4 79.3,907.8 29,907.8 3.8,951.4 29,995 79.3,995 81.4,991.4 104.5,951.4 			"/>
			<polygon class="st3" points="448.5,-222.2 498.8,-222.2 524,-265.8 517.1,-277.7 498.8,-309.4 448.5,-309.4 430.2,-277.7 
				423.3,-265.8 			"/>
			<polygon class="st3" points="584,-271.7 587.5,-277.7 609.2,-315.3 584,-358.9 533.7,-358.9 508.5,-315.3 530.2,-277.7 
				533.7,-271.7 			"/>
			<polygon class="st3" points="415.8,-271.7 419.3,-277.7 441,-315.3 415.8,-358.9 365.5,-358.9 340.3,-315.3 361.9,-277.7 
				365.5,-271.7 			"/>
			<polygon class="st3" points="784.9,-222.2 835.3,-222.2 860.4,-265.8 853.5,-277.7 835.3,-309.4 784.9,-309.4 766.6,-277.7 
				759.8,-265.8 			"/>
			<polygon class="st3" points="752.3,-271.7 755.8,-277.7 777.4,-315.3 752.3,-358.9 701.9,-358.9 676.8,-315.3 698.4,-277.7 
				701.9,-271.7 			"/>
			<polygon class="st3" points="616.7,-222.2 667,-222.2 692.2,-265.8 685.3,-277.7 667,-309.4 616.7,-309.4 598.4,-277.7 
				591.5,-265.8 			"/>
			<polygon class="st3" points="1622.9,848.3 1623.7,849.6 1674,849.6 1699.2,806 1674,762.4 1623.7,762.4 1622.9,763.7 1598.5,806 
							"/>
			<polygon class="st3" points="1455.4,1248.8 1446.8,1263.7 1430.3,1292.4 1455.4,1336 1505.8,1336 1531,1292.4 1514.4,1263.7 
				1505.8,1248.8 			"/>
			<polygon class="st3" points="1591,1199.3 1540.7,1199.3 1515.5,1242.9 1527.5,1263.7 1540.7,1286.5 1591,1286.5 1604.2,1263.7 
				1616.2,1242.9 			"/>
			<polygon class="st3" points="1422.8,1199.3 1372.4,1199.3 1347.3,1242.9 1359.3,1263.7 1372.4,1286.5 1422.8,1286.5 
				1435.9,1263.7 1448,1242.9 			"/>
			<polygon class="st3" points="1254.5,1199.3 1204.2,1199.3 1179,1242.9 1191.1,1263.7 1204.2,1286.5 1254.5,1286.5 1267.7,1263.7 
				1279.7,1242.9 			"/>
			<polygon class="st3" points="1119,1248.8 1110.3,1263.7 1093.8,1292.4 1119,1336 1169.3,1336 1194.5,1292.4 1178,1263.7 
				1169.3,1248.8 			"/>
			<polygon class="st3" points="1287.2,1248.8 1278.6,1263.7 1262,1292.4 1287.2,1336 1337.5,1336 1362.7,1292.4 1346.2,1263.7 
				1337.5,1248.8 			"/>
			<polygon class="st3" points="1622.9,1238 1623.7,1239.3 1674,1239.3 1699.2,1195.7 1674,1152.1 1623.7,1152.1 1622.9,1153.5 
				1598.5,1195.7 			"/>
			<polygon class="st3" points="1622.9,1043.1 1623.7,1044.5 1674,1044.5 1699.2,1000.9 1674,957.3 1623.7,957.3 1622.9,958.6 
				1598.5,1000.9 			"/>
			<polygon class="st3" points="1622.9,1140.6 1623.7,1141.9 1674,1141.9 1699.2,1098.3 1674,1054.7 1623.7,1054.7 1622.9,1056 
				1598.5,1098.3 			"/>
			<polygon class="st3" points="1622.9,750.8 1623.7,752.1 1674,752.1 1699.2,708.6 1674,665 1623.7,665 1622.9,666.3 1598.5,708.6 
							"/>
			<polygon class="st3" points="1622.9,653.4 1623.7,654.7 1674,654.7 1699.2,611.1 1674,567.5 1623.7,567.5 1622.9,568.8 
				1598.5,611.1 			"/>
			<polygon class="st3" points="1455.4,-222.2 1505.8,-222.2 1531,-265.8 1524.1,-277.7 1505.8,-309.4 1455.4,-309.4 1437.2,-277.7 
				1430.3,-265.8 			"/>
			<polygon class="st3" points="1086.3,1199.3 1036,1199.3 1010.8,1242.9 1022.8,1263.7 1036,1286.5 1086.3,1286.5 1099.5,1263.7 
				1111.5,1242.9 			"/>
			<polygon class="st3" points="1622.9,945.7 1623.7,947 1674,947 1699.2,903.4 1674,859.8 1623.7,859.8 1622.9,861.1 1598.5,903.4 
							"/>
			<polygon class="st3" points="81.4,1008.9 79.3,1005.3 29,1005.3 3.8,1048.8 29,1092.4 79.3,1092.4 81.4,1088.8 104.5,1048.8 			
				"/>
			<polygon class="st3" points="247.6,1199.3 197.2,1199.3 172.1,1242.9 184.1,1263.7 197.2,1286.5 247.6,1286.5 260.7,1263.7 
				272.7,1242.9 			"/>
			<polygon class="st3" points="280.2,1248.8 271.6,1263.7 255.1,1292.4 280.2,1336 330.6,1336 355.7,1292.4 339.2,1263.7 
				330.6,1248.8 			"/>
			<polygon class="st3" points="112,1248.8 103.3,1263.7 86.8,1292.4 112,1336 162.3,1336 187.5,1292.4 171,1263.7 162.3,1248.8 			
				"/>
			<polygon class="st3" points="415.8,1199.3 365.5,1199.3 340.3,1242.9 352.3,1263.7 365.5,1286.5 415.8,1286.5 428.9,1263.7 
				441,1242.9 			"/>
			<polygon class="st3" points="81.4,1202.9 79.3,1199.3 29,1199.3 3.8,1242.9 29,1286.5 79.3,1286.5 92.5,1263.7 104.5,1242.9 			
				"/>
			<polygon class="st3" points="81.4,1106.3 79.3,1102.7 29,1102.7 3.8,1146.3 29,1189.9 79.3,1189.9 81.4,1186.3 104.5,1146.3 			
				"/>
			<polygon class="st3" points="752.3,1199.3 701.9,1199.3 676.8,1242.9 688.8,1263.7 701.9,1286.5 752.3,1286.5 765.4,1263.7 
				777.4,1242.9 			"/>
			<polygon class="st3" points="950.7,1248.8 942.1,1263.7 925.6,1292.4 950.7,1336 1001.1,1336 1026.2,1292.4 1009.7,1263.7 
				1001.1,1248.8 			"/>
			<polygon class="st3" points="784.9,1248.8 776.3,1263.7 759.8,1292.4 784.9,1336 835.3,1336 860.4,1292.4 843.9,1263.7 
				835.3,1248.8 			"/>
			<polygon class="st3" points="918.1,1199.3 867.7,1199.3 842.6,1242.9 854.6,1263.7 867.7,1286.5 918.1,1286.5 931.2,1263.7 
				943.2,1242.9 			"/>
			<polygon class="st3" points="448.5,1248.8 439.8,1263.7 423.3,1292.4 448.5,1336 498.8,1336 524,1292.4 507.4,1263.7 
				498.8,1248.8 			"/>
			<polygon class="st3" points="616.7,1248.8 608,1263.7 591.5,1292.4 616.7,1336 667,1336 692.2,1292.4 675.7,1263.7 667,1248.8 
							"/>
			<polygon class="st3" points="584,1199.3 533.7,1199.3 508.5,1242.9 520.6,1263.7 533.7,1286.5 584,1286.5 597.2,1263.7 
				609.2,1242.9 			"/>
			<polygon class="st3" points="-3.8,-358.9 -3.8,-320.1 18.5,-358.9 			"/>
			<polygon class="st3" points="-3.8,564.6 -3.8,565.4 -3.8,651.7 21.1,608.6 21.3,608.1 			"/>
			<polygon class="st3" points="-3.8,369.7 -3.8,370.5 -3.8,456.9 21.1,413.7 21.3,413.3 			"/>
			<polygon class="st3" points="-3.8,467.1 -3.8,468 -3.8,554.3 21.1,511.1 21.3,510.7 			"/>
			<polygon class="st3" points="-3.8,272.2 -3.8,273.1 -3.8,359.4 21.1,316.3 21.3,315.8 			"/>
			<polygon class="st3" points="-3.8,-20.1 -3.8,-19.2 -3.8,67.1 21.1,23.9 21.3,23.5 			"/>
			<polygon class="st3" points="-3.8,174.8 -3.8,175.6 -3.8,262 21.1,218.8 21.3,218.4 			"/>
			<polygon class="st3" points="-3.8,-117.5 -3.8,-116.7 -3.8,-30.3 21.1,-73.5 21.3,-73.9 			"/>
			<polygon class="st3" points="-3.8,77.4 -3.8,78.2 -3.8,164.6 21.1,121.4 21.3,121 			"/>
			<polygon class="st3" points="-3.8,1051.7 -3.8,1052.6 -3.8,1138.9 21.1,1095.7 21.3,1095.3 			"/>
			<polygon class="st3" points="-3.8,954.3 -3.8,955.1 -3.8,1041.5 21.1,998.3 21.3,997.9 			"/>
			<polygon class="st3" points="-3.8,1149.2 -3.8,1150 -3.8,1236.4 21.1,1193.2 21.3,1192.8 			"/>
			<polygon class="st3" points="-3.8,759.4 -3.8,760.3 -3.8,846.6 21.1,803.4 21.3,803 			"/>
			<polygon class="st3" points="-3.8,662 -3.8,662.8 -3.8,749.2 21.1,706 21.3,705.6 			"/>
			<polygon class="st3" points="-3.8,856.9 -3.8,857.7 -3.8,944 21.1,900.9 21.3,900.5 			"/>
			<polygon class="st3" points="-3.8,-311.6 -3.8,-311.5 -3.8,-224.4 21.3,-268 21.3,-268 			"/>
			<polygon class="st3" points="1288.2,-317.3 1338.5,-317.3 1338.9,-317.9 1363.7,-360.9 1263.2,-360.9 1263,-360.9 			"/>
			<polygon class="st3" points="1120,-317.3 1170.3,-317.3 1170.6,-317.9 1195.5,-360.9 1094.9,-360.9 1094.8,-360.9 			"/>
			<polygon class="st3" points="1456.4,-317.3 1506.8,-317.3 1507.1,-317.9 1531.9,-360.9 1431.4,-360.9 1431.3,-360.9 			"/>
			<polygon class="st3" points="1624.7,-317.3 1675,-317.3 1675.3,-317.9 1700.2,-360.9 1599.6,-360.9 1599.5,-360.9 			"/>
			<polygon class="st3" points="1622.9,556 1623.7,557.3 1674,557.3 1699.2,513.7 1674,470.1 1623.7,470.1 1622.9,471.4 
				1598.5,513.7 			"/>
			<polygon class="st3" points="-3.8,-214.9 -3.8,-214.1 -3.8,-127.8 21.1,-170.9 21.3,-171.3 			"/>
			<polygon class="st3" points="1706,-270.6 1706,-271 1706,-357.8 1681,-314.4 1680.9,-314.2 			"/>
			<polygon class="st3" points="951.7,-317.3 1002.1,-317.3 1002.4,-317.9 1027.2,-360.9 926.7,-360.9 926.6,-360.9 			"/>
			<polygon class="st3" points="113,-317.3 163.3,-317.3 163.6,-317.9 188.5,-360.9 87.9,-360.9 87.8,-360.9 			"/>
			<polygon class="st3" points="281.2,-317.3 331.5,-317.3 331.9,-317.9 356.7,-360.9 256.2,-360.9 256,-360.9 			"/>
			<polygon class="st3" points="-3.8,1246.6 -3.8,1246.6 -3.8,1333.8 21.3,1290.2 21.3,1290.2 			"/>
			<polygon class="st3" points="785.9,-317.3 836.3,-317.3 861.4,-360.9 859.1,-360.9 760.9,-360.9 760.7,-360.9 			"/>
			<polygon class="st3" points="617.7,-317.3 668,-317.3 668.3,-317.9 693.2,-360.9 592.6,-360.9 592.5,-360.9 			"/>
			<polygon class="st3" points="449.4,-317.3 499.8,-317.3 500.1,-317.9 525,-360.9 424.4,-360.9 424.3,-360.9 			"/>
			<polygon class="st3" points="1422.8,1296.1 1422.6,1296.1 1372.4,1296.1 1347.3,1339.7 1447.8,1339.7 1448,1339.7 			"/>
			<polygon class="st3" points="1706,508.9 1706,508.5 1706,421.7 1681,465.1 1680.9,465.3 			"/>
			<polygon class="st3" points="1706,411.5 1706,411.1 1706,324.3 1681,367.7 1680.9,367.9 			"/>
			<polygon class="st3" points="1706,314 1706,313.7 1706,226.8 1681,270.3 1680.9,270.4 			"/>
			<polygon class="st3" points="1706,703.8 1706,703.4 1706,616.6 1681,660 1680.9,660.2 			"/>
			<polygon class="st3" points="1706,606.3 1706,606 1706,519.1 1681,562.6 1680.9,562.7 			"/>
			<polygon class="st3" points="1706,801.2 1706,800.8 1706,714 1681,757.4 1680.9,757.6 			"/>
			<polygon class="st3" points="1706,216.6 1706,216.2 1706,129.4 1681,172.8 1680.9,173 			"/>
			<polygon class="st3" points="1706,-75.7 1706,-76.1 1706,-162.9 1681,-119.5 1680.9,-119.3 			"/>
			<polygon class="st3" points="1706,-173.2 1706,-173.5 1706,-260.3 1681,-216.9 1680.9,-216.7 			"/>
			<polygon class="st3" points="1598.5,1292.4 1623.7,1336 1674,1336 1699.2,1292.4 1674,1248.8 1623.7,1248.8 1622.9,1250.1 
				1615,1263.7 			"/>
			<polygon class="st3" points="104.5,-315.3 79.3,-358.9 29,-358.9 3.8,-315.3 29,-271.7 79.3,-271.7 81.4,-275.3 82.8,-277.7 			
				"/>
			<polygon class="st3" points="1706,119.2 1706,118.8 1706,32 1681,75.4 1680.9,75.6 			"/>
			<polygon class="st3" points="1706,21.7 1706,21.4 1706,-65.5 1681,-22.1 1680.9,-21.9 			"/>
			<polygon class="st3" points="1706,898.6 1706,898.3 1706,811.5 1681,854.9 1680.9,855.1 			"/>
			<polygon class="st3" points="1706,1191 1706,1190.6 1706,1103.8 1681,1147.2 1680.9,1147.4 			"/>
			<polygon class="st3" points="918.1,1296.1 917.9,1296.1 868.1,1296.1 867.7,1296.1 842.6,1339.7 842.9,1339.7 943.1,1339.7 
				943.2,1339.7 			"/>
			<polygon class="st3" points="1086.3,1296.1 1086.2,1296.1 1036,1296.1 1010.8,1339.7 1111.3,1339.7 1111.5,1339.7 			"/>
			<polygon class="st3" points="752.3,1296.1 752.1,1296.1 701.9,1296.1 676.8,1339.7 777.3,1339.7 777.4,1339.7 			"/>
			<polygon class="st3" points="1706,996.1 1706,995.7 1706,908.9 1681,952.3 1680.9,952.5 			"/>
			<polygon class="st3" points="247.6,1296.1 247.4,1296.1 197.2,1296.1 172.1,1339.7 272.6,1339.7 272.7,1339.7 			"/>
			<polygon class="st3" points="584,1296.1 583.9,1296.1 533.7,1296.1 508.5,1339.7 609.1,1339.7 609.2,1339.7 			"/>
			<polygon class="st3" points="415.8,1296.1 415.7,1296.1 365.5,1296.1 340.3,1339.7 440.8,1339.7 441,1339.7 			"/>
			<polygon class="st3" points="1254.5,1296.1 1254.4,1296.1 1204.2,1296.1 1179,1339.7 1279.6,1339.7 1279.7,1339.7 			"/>
			<polygon class="st3" points="79.3,1296.1 79.2,1296.1 29,1296.1 3.8,1339.7 104.4,1339.7 104.5,1339.7 			"/>
			<polygon class="st3" points="1591,-271.7 1594.5,-277.7 1616.2,-315.3 1591,-358.9 1540.7,-358.9 1515.5,-315.3 1537.2,-277.7 
				1540.7,-271.7 			"/>
			<polygon class="st3" points="1706,1093.5 1706,1093.2 1706,1006.3 1681,1049.7 1680.9,1049.9 			"/>
			<polygon class="st3" points="1680.9,1244 1706,1287.6 1706,1287.2 1706,1200.9 1706,1200.4 			"/>
			<polygon class="st3" points="1591,1296.1 1590.9,1296.1 1540.7,1296.1 1515.5,1339.7 1616,1339.7 1616.2,1339.7 			"/>
			<polygon class="st3" points="1680.9,1339.7 1681.6,1339.7 1706,1339.7 1706,1297.5 1706,1296.1 			"/>
			<polygon class="st3" points="1622.9,68.8 1623.7,70.1 1674,70.1 1699.2,26.5 1674,-17.1 1623.7,-17.1 1622.9,-15.8 1598.5,26.5 
							"/>
			<polygon class="st3" points="584,1102.7 533.7,1102.7 508.5,1146.3 533.7,1189.9 584,1189.9 609.2,1146.3 			"/>
			<polygon class="st3" points="162.3,752.1 187.5,708.6 162.3,665 112,665 86.8,708.6 112,752.1 			"/>
			<polygon class="st3" points="162.3,1044.5 187.5,1000.9 162.3,957.3 112,957.3 86.8,1000.9 112,1044.5 			"/>
			<polygon class="st3" points="162.3,947 187.5,903.4 162.3,859.8 112,859.8 86.8,903.4 112,947 			"/>
			<polygon class="st3" points="162.3,654.7 187.5,611.1 162.3,567.5 112,567.5 86.8,611.1 112,654.7 			"/>
			<polygon class="st3" points="162.3,459.8 187.5,416.2 162.3,372.6 112,372.6 86.8,416.2 112,459.8 			"/>
			<polygon class="st3" points="162.3,557.3 187.5,513.7 162.3,470.1 112,470.1 86.8,513.7 112,557.3 			"/>
			<polygon class="st3" points="448.5,1152.1 423.3,1195.7 448.5,1239.3 498.8,1239.3 524,1195.7 498.8,1152.1 			"/>
			<polygon class="st3" points="415.8,1102.7 365.5,1102.7 340.3,1146.3 365.5,1189.9 415.8,1189.9 441,1146.3 			"/>
			<polygon class="st3" points="280.2,1152.1 255.1,1195.7 280.2,1239.3 330.6,1239.3 355.7,1195.7 330.6,1152.1 			"/>
			<polygon class="st3" points="162.3,362.4 187.5,318.8 162.3,275.2 112,275.2 86.8,318.8 112,362.4 			"/>
			<polygon class="st3" points="247.6,1102.7 197.2,1102.7 172.1,1146.3 197.2,1189.9 247.6,1189.9 272.7,1146.3 			"/>
			<polygon class="st3" points="162.3,1141.9 187.5,1098.3 162.3,1054.7 112,1054.7 86.8,1098.3 112,1141.9 			"/>
			<polygon class="st3" points="112,1152.1 86.8,1195.7 112,1239.3 162.3,1239.3 187.5,1195.7 162.3,1152.1 			"/>
			<polygon class="st3" points="162.3,849.6 187.5,806 162.3,762.4 112,762.4 86.8,806 112,849.6 			"/>
			<polygon class="st3" points="584,-174.2 609.2,-217.8 584,-261.4 533.7,-261.4 508.5,-217.8 533.7,-174.2 			"/>
			<polygon class="st3" points="448.5,-124.8 498.8,-124.8 524,-168.4 498.8,-212 448.5,-212 423.3,-168.4 			"/>
			<polygon class="st3" points="616.7,-124.8 667,-124.8 692.2,-168.4 667,-212 616.7,-212 591.5,-168.4 			"/>
			<polygon class="st3" points="415.8,-174.2 441,-217.8 415.8,-261.4 365.5,-261.4 340.3,-217.8 365.5,-174.2 			"/>
			<polygon class="st3" points="784.9,-124.8 835.3,-124.8 860.4,-168.4 835.3,-212 784.9,-212 759.8,-168.4 			"/>
			<polygon class="st3" points="752.3,-174.2 777.4,-217.8 752.3,-261.4 701.9,-261.4 676.8,-217.8 701.9,-174.2 			"/>
			<polygon class="st3" points="280.2,-124.8 330.6,-124.8 355.7,-168.4 330.6,-212 280.2,-212 255.1,-168.4 			"/>
			<polygon class="st3" points="162.3,70.1 187.5,26.5 162.3,-17.1 112,-17.1 86.8,26.5 112,70.1 			"/>
			<polygon class="st3" points="162.3,265 187.5,221.4 162.3,177.8 112,177.8 86.8,221.4 112,265 			"/>
			<polygon class="st3" points="162.3,167.5 187.5,123.9 162.3,80.3 112,80.3 86.8,123.9 112,167.5 			"/>
			<polygon class="st3" points="162.3,-27.3 187.5,-70.9 162.3,-114.5 112,-114.5 86.8,-70.9 112,-27.3 			"/>
			<polygon class="st3" points="247.6,-174.2 272.7,-217.8 247.6,-261.4 197.2,-261.4 172.1,-217.8 197.2,-174.2 			"/>
			<polygon class="st3" points="162.3,-124.8 187.5,-168.4 162.3,-212 112,-212 86.8,-168.4 112,-124.8 			"/>
			<polygon class="st3" points="1540.7,-66.5 1515.5,-23 1540.7,20.6 1591,20.6 1616.2,-23 1591,-66.5 			"/>
			<polygon class="st3" points="1540.7,420.6 1515.5,464.2 1540.7,507.8 1591,507.8 1616.2,464.2 1591,420.6 			"/>
			<polygon class="st3" points="1540.7,323.2 1515.5,366.8 1540.7,410.4 1591,410.4 1616.2,366.8 1591,323.2 			"/>
			<polygon class="st3" points="1540.7,225.8 1515.5,269.4 1540.7,313 1591,313 1616.2,269.4 1591,225.8 			"/>
			<polygon class="st3" points="1540.7,518.1 1515.5,561.7 1540.7,605.3 1591,605.3 1616.2,561.7 1591,518.1 			"/>
			<polygon class="st3" points="1540.7,712.9 1515.5,756.5 1540.7,800.1 1591,800.1 1616.2,756.5 1591,712.9 			"/>
			<polygon class="st3" points="1540.7,810.4 1515.5,854 1540.7,897.6 1591,897.6 1616.2,854 1591,810.4 			"/>
			<polygon class="st3" points="1540.7,615.5 1515.5,659.1 1540.7,702.7 1591,702.7 1616.2,659.1 1591,615.5 			"/>
			<polygon class="st3" points="1540.7,128.3 1515.5,171.9 1540.7,215.5 1591,215.5 1616.2,171.9 1591,128.3 			"/>
			<polygon class="st3" points="1623.7,-309.4 1605.4,-277.7 1598.5,-265.8 1622.9,-223.5 1623.7,-222.2 1674,-222.2 1699.2,-265.8 
				1674,-309.4 			"/>
			<polygon class="st3" points="1540.7,30.9 1515.5,74.5 1540.7,118.1 1591,118.1 1616.2,74.5 1591,30.9 			"/>
			<polygon class="st3" points="1540.7,-261.4 1515.5,-217.8 1540.7,-174.2 1591,-174.2 1616.2,-217.8 1591,-261.4 			"/>
			<polygon class="st3" points="616.7,1152.1 591.5,1195.7 616.7,1239.3 667,1239.3 692.2,1195.7 667,1152.1 			"/>
			<polygon class="st3" points="918.1,-174.2 943.2,-217.8 918.1,-261.4 867.7,-261.4 842.6,-217.8 867.7,-174.2 			"/>
			<polygon class="st3" points="1540.7,-164 1515.5,-120.4 1540.7,-76.8 1591,-76.8 1616.2,-120.4 1591,-164 			"/>
			<polygon class="st3" points="1119,1152.1 1093.8,1195.7 1119,1239.3 1169.3,1239.3 1194.5,1195.7 1169.3,1152.1 			"/>
			<polygon class="st3" points="918.1,1102.7 867.7,1102.7 842.6,1146.3 867.7,1189.9 918.1,1189.9 943.2,1146.3 			"/>
			<polygon class="st3" points="1086.3,1102.7 1036,1102.7 1010.8,1146.3 1036,1189.9 1086.3,1189.9 1111.5,1146.3 			"/>
			<polygon class="st3" points="950.7,1152.1 925.6,1195.7 950.7,1239.3 1001.1,1239.3 1026.2,1195.7 1001.1,1152.1 			"/>
			<polygon class="st3" points="1540.7,907.8 1515.5,951.4 1540.7,995 1591,995 1616.2,951.4 1591,907.8 			"/>
			<polygon class="st3" points="752.3,1102.7 701.9,1102.7 676.8,1146.3 701.9,1189.9 752.3,1189.9 777.4,1146.3 			"/>
			<polygon class="st3" points="784.9,1152.1 759.8,1195.7 784.9,1239.3 835.3,1239.3 860.4,1195.7 835.3,1152.1 			"/>
			<polygon class="st3" points="1540.7,1102.7 1515.5,1146.3 1540.7,1189.9 1591,1189.9 1616.2,1146.3 1591,1102.7 			"/>
			<polygon class="st3" points="1540.7,1005.3 1515.5,1048.8 1540.7,1092.4 1591,1092.4 1616.2,1048.8 1591,1005.3 			"/>
			<polygon class="st3" points="1455.4,1152.1 1430.3,1195.7 1455.4,1239.3 1505.8,1239.3 1531,1195.7 1505.8,1152.1 			"/>
			<polygon class="st3" points="1422.8,1102.7 1372.4,1102.7 1347.3,1146.3 1372.4,1189.9 1422.8,1189.9 1448,1146.3 			"/>
			<polygon class="st3" points="1287.2,1152.1 1262,1195.7 1287.2,1239.3 1337.5,1239.3 1362.7,1195.7 1337.5,1152.1 			"/>
			<polygon class="st3" points="1254.5,1102.7 1204.2,1102.7 1179,1146.3 1204.2,1189.9 1254.5,1189.9 1279.7,1146.3 			"/>
			<polygon class="st3" points="1086.3,-174.2 1111.5,-217.8 1086.3,-261.4 1036,-261.4 1010.8,-217.8 1036,-174.2 			"/>
			<polygon class="st3" points="330.6,859.8 280.2,859.8 255.1,903.4 280.2,947 330.6,947 355.7,903.4 			"/>
			<polygon class="st3" points="272.7,659.1 247.6,615.5 197.2,615.5 172.1,659.1 197.2,702.7 247.6,702.7 			"/>
			<polygon class="st3" points="1505.8,567.5 1455.4,567.5 1430.3,611.1 1455.4,654.7 1505.8,654.7 1531,611.1 			"/>
			<polygon class="st3" points="1505.8,957.3 1455.4,957.3 1430.3,1000.9 1455.4,1044.5 1505.8,1044.5 1531,1000.9 			"/>
			<polygon class="st3" points="1505.8,665 1455.4,665 1430.3,708.6 1455.4,752.1 1505.8,752.1 1531,708.6 			"/>
			<polygon class="st3" points="1505.8,859.8 1455.4,859.8 1430.3,903.4 1455.4,947 1505.8,947 1531,903.4 			"/>
			<polygon class="st3" points="1505.8,762.4 1455.4,762.4 1430.3,806 1455.4,849.6 1505.8,849.6 1531,806 			"/>
			<polygon class="st3" points="197.2,800.1 247.6,800.1 272.7,756.5 247.6,712.9 197.2,712.9 172.1,756.5 			"/>
			<polygon class="st3" points="197.2,1092.4 247.6,1092.4 272.7,1048.8 247.6,1005.3 197.2,1005.3 172.1,1048.8 			"/>
			<polygon class="st3" points="255.1,1000.9 280.2,1044.5 330.6,1044.5 355.7,1000.9 330.6,957.3 280.2,957.3 			"/>
			<polygon class="st3" points="197.2,995 247.6,995 272.7,951.4 247.6,907.8 197.2,907.8 172.1,951.4 			"/>
			<polygon class="st3" points="330.6,1141.9 355.7,1098.3 330.6,1054.7 280.2,1054.7 255.1,1098.3 280.2,1141.9 			"/>
			<polygon class="st3" points="330.6,762.4 280.2,762.4 255.1,806 280.2,849.6 330.6,849.6 355.7,806 			"/>
			<polygon class="st3" points="197.2,897.6 247.6,897.6 272.7,854 247.6,810.4 197.2,810.4 172.1,854 			"/>
			<polygon class="st3" points="1287.2,1141.9 1337.5,1141.9 1362.7,1098.3 1337.5,1054.7 1287.2,1054.7 1262,1098.3 			"/>
			<polygon class="st3" points="1622.9,-28.7 1623.7,-27.3 1674,-27.3 1699.2,-70.9 1674,-114.5 1623.7,-114.5 1622.9,-113.2 
				1598.5,-70.9 			"/>
			<polygon class="st3" points="1622.9,-126.1 1623.7,-124.8 1674,-124.8 1699.2,-168.4 1674,-212 1623.7,-212 1622.9,-210.7 
				1598.5,-168.4 			"/>
			<polygon class="st3" points="1455.4,-124.8 1505.8,-124.8 1531,-168.4 1505.8,-212 1455.4,-212 1430.3,-168.4 			"/>
			<polygon class="st3" points="1505.8,1141.9 1531,1098.3 1505.8,1054.7 1455.4,1054.7 1430.3,1098.3 1455.4,1141.9 			"/>
			<polygon class="st3" points="1622.9,361.1 1623.7,362.4 1674,362.4 1699.2,318.8 1674,275.2 1623.7,275.2 1622.9,276.5 
				1598.5,318.8 			"/>
			<polygon class="st3" points="1622.9,263.7 1623.7,265 1674,265 1699.2,221.4 1674,177.8 1623.7,177.8 1622.9,179.1 1598.5,221.4 
							"/>
			<polygon class="st3" points="1622.9,166.2 1623.7,167.5 1674,167.5 1699.2,123.9 1674,80.3 1623.7,80.3 1622.9,81.7 
				1598.5,123.9 			"/>
			<polygon class="st3" points="1372.4,897.6 1422.8,897.6 1448,854 1422.8,810.4 1372.4,810.4 1347.3,854 			"/>
			<polygon class="st3" points="415.8,1092.4 441,1048.8 415.8,1005.3 365.5,1005.3 340.3,1048.8 365.5,1092.4 			"/>
			<polygon class="st3" points="1422.8,1092.4 1448,1048.8 1422.8,1005.3 1372.4,1005.3 1347.3,1048.8 1372.4,1092.4 			"/>
			<polygon class="st3" points="1287.2,957.3 1262,1000.9 1287.2,1044.5 1337.5,1044.5 1362.7,1000.9 1337.5,957.3 			"/>
			<polygon class="st3" points="1448,756.5 1422.8,712.9 1372.4,712.9 1347.3,756.5 1372.4,800.1 1422.8,800.1 			"/>
			<polygon class="st3" points="950.7,-124.8 1001.1,-124.8 1026.2,-168.4 1001.1,-212 950.7,-212 925.6,-168.4 			"/>
			<polygon class="st3" points="1372.4,995 1422.8,995 1448,951.4 1422.8,907.8 1372.4,907.8 1347.3,951.4 			"/>
			<polygon class="st3" points="1505.8,177.8 1455.4,177.8 1430.3,221.4 1455.4,265 1505.8,265 1531,221.4 			"/>
			<polygon class="st3" points="1505.8,-17.1 1455.4,-17.1 1430.3,26.5 1455.4,70.1 1505.8,70.1 1531,26.5 			"/>
			<polygon class="st3" points="1204.2,-164 1179,-120.4 1204.2,-76.8 1254.5,-76.8 1279.7,-120.4 1254.5,-164 			"/>
			<polygon class="st3" points="1505.8,80.3 1455.4,80.3 1430.3,123.9 1455.4,167.5 1505.8,167.5 1531,123.9 			"/>
			<polygon class="st3" points="1422.8,-66.5 1372.4,-66.5 1347.3,-23 1372.4,20.6 1422.8,20.6 1448,-23 			"/>
			<polygon class="st3" points="1287.2,-114.5 1262,-70.9 1287.2,-27.3 1337.5,-27.3 1362.7,-70.9 1337.5,-114.5 			"/>
			<polygon class="st3" points="1422.8,-164 1372.4,-164 1347.3,-120.4 1372.4,-76.8 1422.8,-76.8 1448,-120.4 			"/>
			<polygon class="st3" points="1287.2,-124.8 1337.5,-124.8 1362.7,-168.4 1337.5,-212 1287.2,-212 1262,-168.4 			"/>
			<polygon class="st3" points="1505.8,-114.5 1455.4,-114.5 1430.3,-70.9 1455.4,-27.3 1505.8,-27.3 1531,-70.9 			"/>
			<polygon class="st3" points="1254.5,-174.2 1279.7,-217.8 1254.5,-261.4 1204.2,-261.4 1179,-217.8 1204.2,-174.2 			"/>
			<polygon class="st3" points="498.8,1141.9 524,1098.3 498.8,1054.7 448.5,1054.7 423.3,1098.3 448.5,1141.9 			"/>
			<polygon class="st3" points="1119,-124.8 1169.3,-124.8 1194.5,-168.4 1169.3,-212 1119,-212 1093.8,-168.4 			"/>
			<polygon class="st3" points="1622.9,458.5 1623.7,459.8 1674,459.8 1699.2,416.2 1674,372.6 1623.7,372.6 1622.9,374 
				1598.5,416.2 			"/>
			<polygon class="st3" points="1422.8,-174.2 1448,-217.8 1422.8,-261.4 1372.4,-261.4 1347.3,-217.8 1372.4,-174.2 			"/>
			<polygon class="st3" points="1287.2,-17.1 1262,26.5 1287.2,70.1 1337.5,70.1 1362.7,26.5 1337.5,-17.1 			"/>
			<polygon class="st3" points="415.8,-164 365.5,-164 340.3,-120.4 365.5,-76.8 415.8,-76.8 441,-120.4 			"/>
			<polygon class="st3" points="415.8,20.6 441,-23 415.8,-66.5 365.5,-66.5 340.3,-23 365.5,20.6 			"/>
			<polygon class="st3" points="280.2,-114.5 255.1,-70.9 280.2,-27.3 330.6,-27.3 355.7,-70.9 330.6,-114.5 			"/>
			<polygon class="st3" points="1347.3,171.9 1372.4,215.5 1422.8,215.5 1448,171.9 1422.8,128.3 1372.4,128.3 			"/>
			<polygon class="st3" points="255.1,123.9 280.2,167.5 330.6,167.5 355.7,123.9 330.6,80.3 280.2,80.3 			"/>
			<polygon class="st3" points="197.2,-164 172.1,-120.4 197.2,-76.8 247.6,-76.8 272.7,-120.4 247.6,-164 			"/>
			<polygon class="st3" points="330.6,-17.1 280.2,-17.1 255.1,26.5 280.2,70.1 330.6,70.1 355.7,26.5 			"/>
			<polygon class="st3" points="197.2,20.6 247.6,20.6 272.7,-23 247.6,-66.5 197.2,-66.5 172.1,-23 			"/>
			<polygon class="st3" points="1422.8,30.9 1372.4,30.9 1347.3,74.5 1372.4,118.1 1422.8,118.1 1448,74.5 			"/>
			<polygon class="st3" points="197.2,215.5 247.6,215.5 272.7,171.9 247.6,128.3 197.2,128.3 172.1,171.9 			"/>
			<polygon class="st3" points="197.2,313 247.6,313 272.7,269.4 247.6,225.8 197.2,225.8 172.1,269.4 			"/>
			<polygon class="st3" points="197.2,118.1 247.6,118.1 272.7,74.5 247.6,30.9 197.2,30.9 172.1,74.5 			"/>
			<polygon class="st3" points="1505.7,464.2 1533.8,415.5 1505.7,366.8 1533.8,318.1 1508.1,273.5 1450.5,273.5 1422,224 
				1367.5,224 1337.5,171.9 1365.6,123.2 1339.8,78.6 1282.3,78.6 1252.2,26.5 1280.4,-22.2 1253.8,-68.3 1199.3,-68.3 
				1171.6,-116.3 1114.1,-116.3 1085.5,-165.7 1034.5,-165.7 1006,-116.3 945.8,-116.3 917.3,-165.7 868.7,-165.7 840.2,-116.3 
				780,-116.3 751.5,-165.7 700.5,-165.7 671.9,-116.3 611.8,-116.3 583.2,-165.7 532.2,-165.7 503.7,-116.3 448.4,-116.3 
				422.6,-71.7 450.8,-23 420.7,29.1 364,29.1 337.4,75.2 365.5,123.9 335.5,176 280.2,176 254.4,220.6 282.5,269.4 252.5,321.4 
				195.8,321.4 169.2,367.5 197.3,416.2 169.2,465 197.3,513.7 169.2,562.4 194.9,607 252.5,607 282.5,659.1 254.4,707.8 281,753.9 
				335.5,753.9 365.5,806 337.4,854.7 365.5,903.4 337.4,952.1 363.2,996.8 420.7,996.8 449.3,1046.2 503.7,1046.2 531.4,1094.2 
				588.9,1094.2 617.5,1143.7 668.5,1143.7 697,1094.2 757.2,1094.2 785.7,1143.7 834.3,1143.7 862.8,1094.2 923,1094.2 
				951.5,1143.7 1002.5,1143.7 1031.1,1094.2 1091.2,1094.2 1119.8,1143.7 1170.8,1143.7 1199.3,1094.2 1254.6,1094.2 
				1280.4,1049.6 1252.2,1000.9 1282.3,948.8 1339,948.8 1365.6,902.7 1337.5,854 1365.6,805.3 1337.5,756.5 1367.5,704.4 
				1422.8,704.4 1448.6,659.8 1420.5,611.1 1450.5,559 1507.2,559 1533.8,513 			"/>
			<g>
				<path class="st4" d="M-9-368.2v1722.3h1722.3V-368.2H-9z M-3.8-358.9h22.4l-22.4,38.7V-358.9z M1700.2-360.9l-24.8,43h3.6l2,3.5
					l25.1-43.4v86.8l3,5.1l-28.1,48.7l0.1,0.2l25.1-43.4v86.8l3,5.1l-28.1,48.7l0.1,0.2l25.1-43.4v86.8l3,5.1l-28.1,48.7l0.1,0.2
					l25.1-43.4v86.8l3,5.1l-28.1,48.7l0.1,0.2L1706,32v86.8l3,5.1l-28.1,48.7l0.1,0.2l25.1-43.4v86.8l3,5.1l-28.1,48.7l0.1,0.2
					l25.1-43.4v86.8l3,5.1l-28.1,48.7l0.1,0.2l25.1-43.4v86.8l3,5.1l-28.1,48.7l0.1,0.2l25.1-43.4v86.8l3,5.1l-28.1,48.7l0.1,0.2
					l25.1-43.4V606l3,5.1l-28.1,48.7l0.1,0.2l25.1-43.4v86.8l3,5.1l-28.1,48.7l0.1,0.2L1706,714v86.8l3,5.1l-28.1,48.7l0.1,0.2
					l25.1-43.4v86.8l3,5.1l-28.1,48.7l0.1,0.2l25.1-43.4v86.8l3,5.1l-28.1,48.7l0.1,0.2l25.1-43.4v86.8l3,5.1l-28.1,48.7l0.1,0.2
					l25.1-43.4v86.8l3,5.1l-3,5.1v86.3l3,5.1l-3,5.1v42.2h-24.4l-2.7,4.7h-60.1l-2.7-4.7h-100.5l25.2-43.6h50.2l-0.7-1.1h-51
					l-28.5,49.4h-60.2l-2.7-4.7h-100.5l25.2-43.6h50.2l-0.7-1.1h-51l-28.5,49.4h-60.1l-2.7-4.7H1179l25.2-43.6h50.2l-0.7-1.1h-51
					l-28.5,49.4h-60.1l-2.7-4.7h-100.5l25.2-43.6h50.2l-0.7-1.1h-51l-28.6,49.4h-60.1l-2.7-4.7H842.9l-2.7,4.7H780l-2.7-4.7H676.8
					l25.2-43.6h50.2l-0.7-1.1h-51l-28.5,49.4h-60.1l-2.7-4.7H508.5l25.2-43.6h50.2l-0.7-1.1h-51l-28.5,49.4h-60.1l-2.7-4.7H340.3
					l25.2-43.6h50.2l-0.7-1.1h-51l-28.5,49.4h-60.1l-2.7-4.7H172.1l25.2-43.6h50.2l-0.7-1.1h-51l-28.6,49.4h-60.1l-2.7-4.7H3.8
					l25.2-43.6h50.2l-0.7-1.1H24.1l-2.8-4.8l-25.2,43.6v-87.2l-2.2-3.7l27.9-48.3l-0.8-1.4l-24.9,43.2V1150l-2.2-3.7l28.1-48.7
					l-1.1-1.8l-24.9,43.2v-86.3l-2.2-3.7l28.1-48.7l-1.1-1.8l-24.9,43.2v-86.3l-2.2-3.7l28.1-48.7l-1.1-1.8L-3.8,944v-86.3L-6,854
					l28.1-48.7l-1.1-1.8l-24.9,43.2v-86.3l-2.2-3.7l28.1-48.7l-1-1.8l-24.9,43.2v-86.3l-2.2-3.7l28.1-48.7l-1.1-1.8l-24.9,43.2
					v-86.3l-2.2-3.7L22.1,513l-1.1-1.8l-24.9,43.2V468l-2.2-3.7l28.1-48.7l-1.1-1.8l-24.9,43.2v-86.3l-2.2-3.7l28.1-48.7l-1.1-1.8
					l-24.9,43.2v-86.3l-2.2-3.7l28.1-48.7l-1.1-1.8L-3.8,262v-86.4l-2.2-3.7l28.1-48.7l-1.1-1.8l-24.9,43.2V78.2L-6,74.5l28.1-48.7
					l-1.1-1.8L-3.8,67.1v-86.3L-6-23l28.1-48.7l-1.1-1.8L-3.8-30.3v-86.3l-2.2-3.7l28.1-48.7l-1.1-1.8l-24.9,43.2v-86.3l-2.2-3.7
					l28.1-48.7l-0.8-1.4l-25.2,43.6v-87.1l-2.2-3.7l30.1-52.1h60.1l3.7,6.4h100.5l-24.8,43h0.1l28.6-49.5h60.1l3.7,6.4h100.5
					l-24.8,43h0.1l28.5-49.5h60.1l3.7,6.4H525l-24.8,43h0.1l28.5-49.5h60.1l3.7,6.4h100.5l-24.8,43h0.1l28.6-49.5h60.1l3.7,6.4h98.2
					l3.7-6.4H923l3.7,6.4h100.5l-24.8,43h0.1l28.5-49.5h60.1l3.7,6.4h100.5l-24.8,43h0.1l28.5-49.5h60.1l3.7,6.4h100.5l-24.8,43h0.1
					l28.5-49.5h60.1l3.7,6.4h100.5l-24.8,43h0.1l28.5-49.5h60.1l3.7,6.4"/>
			</g>
			<polygon class="st4" points="917.3,1295 868.7,1295 868.1,1296.1 917.9,1296.1 			"/>
			<g>
				<path class="st4" d="M1605.4-277.7h-10.9l-3.5,6.1h-50.3l-3.5-6.1h-13.1l6.9,11.9l-25.2,43.6h-50.3l-25.2-43.6l6.9-11.9h-10.9
					l-3.5,6.1h-50.3l-3.5-6.1h-13.1l6.9,11.9l-25.2,43.6h-50.3l-25.2-43.6l6.9-11.9h-10.9l-3.5,6.1h-50.3l-3.5-6.1h-13.1l6.9,11.9
					l-25.2,43.6H1119l-25.2-43.6l6.9-11.9h-10.9l-3.5,6.1H1036l-3.5-6.1h-13.1l6.9,11.9l-25.2,43.6h-50.3l-25.2-43.6l6.9-11.9h-10.9
					l-3.5,6.1h-50.3l-3.5-6.1h-10.7l6.9,11.9l-25.2,43.6h-50.3l-25.2-43.6l6.9-11.9h-10.9l-3.5,6.1h-50.3l-3.5-6.1h-13.1l6.9,11.9
					L667-222.2h-50.3l-25.2-43.6l6.9-11.9h-10.9l-3.5,6.1h-50.3l-3.5-6.1h-13.1l6.9,11.9l-25.2,43.6h-50.3l-25.2-43.6l6.9-11.9
					h-10.9l-3.5,6.1h-50.3l-3.5-6.1h-13.1l6.9,11.9l-25.2,43.6h-50.3l-25.2-43.6l6.9-11.9h-10.9l-3.5,6.1h-50.3l-3.5-6.1h-13.1
					l6.9,11.9l-25.2,43.6H112l-25.2-43.6l6.9-11.9H82.8l-1.4,2.5v17.5l23.1,40l-23.1,40v17.5l23.1,40l-23.1,40v17.5l23.1,40L81.4,17
					v17.5l23.1,40l-23.1,40V132l23.1,40l-23.1,40v17.5l23.1,40l-23.1,40v17.5l23.1,40l-23.1,40v17.5l23.1,40l-23.1,40v17.5l23.1,40
					l-23.1,40v17.5l23.1,40l-23.1,40v17.5l23.1,40l-23.1,40V814l23.1,40l-23.1,40v17.5l23.1,40l-23.1,40v17.5l23.1,40l-23.1,40v17.5
					l23.1,40l-23.1,40v16.7l23.1,40l-12,20.8h10.9l8.6-15h50.3l8.6,15h13.1l-12-20.8l25.2-43.6h50.3l25.2,43.6l-12,20.8h10.9l8.6-15
					h50.3l8.6,15h13.1l-12-20.8l25.2-43.6h50.3l25.2,43.6l-12,20.8h10.9l8.6-15h50.3l8.6,15h13.1l-12-20.8l25.2-43.6H584l25.2,43.6
					l-12,20.8H608l8.6-15H667l8.6,15h13.1l-12-20.8l25.2-43.6h50.3l25.2,43.6l-12,20.8h10.9l8.6-15h50.3l8.6,15h10.7l-12-20.8
					l25.2-43.6h50.3l25.2,43.6l-12,20.8h10.9l8.6-15h50.3l8.6,15h13.1l-12-20.8l25.2-43.6h50.3l25.2,43.6l-12,20.8h10.9l8.6-15h50.3
					l8.6,15h13.1l-12-20.8l25.2-43.6h50.3l25.2,43.6l-12,20.8h10.9l8.6-15h50.3l8.6,15h13.1l-12-20.8l25.2-43.6h50.3l25.2,43.6
					l-12,20.8h10.9l8.6-15h50.3l8.6,15h13.1l-12-20.8l25.2-43.6h50.3l25.2,43.6l-12,20.8h10.9l7.9-13.7V1238l-24.4-42.3l24.4-42.3
					v-12.9l-24.4-42.3l24.4-42.3v-12.9l-24.4-42.3l24.4-42.3v-12.9l-24.4-42.3l24.4-42.3v-12.9l-24.4-42.3l24.4-42.3v-12.9
					l-24.4-42.3l24.4-42.3v-12.9l-24.4-42.3l24.4-42.3V556l-24.4-42.3l24.4-42.3v-12.9l-24.4-42.3l24.4-42.3v-12.9l-24.4-42.3
					l24.4-42.3v-12.9l-24.4-42.3l24.4-42.3v-12.9l-24.4-42.3l24.4-42.3V68.8l-24.4-42.3l24.4-42.3v-12.9l-24.4-42.3l24.4-42.3v-12.9
					l-24.4-42.3l24.4-42.3v-12.9l-24.4-42.3L1605.4-277.7z M1505.8-212l25.2,43.6l-25.2,43.6h-50.3l-25.2-43.6l25.2-43.6H1505.8z
					 M1422.8,810.4L1448,854l-25.2,43.6h-50.3l-25.2-43.6l25.2-43.6H1422.8z M1347.3,756.5l25.2-43.6h50.3l25.2,43.6l-25.2,43.6
					h-50.3L1347.3,756.5z M1422.8,907.8l25.2,43.6l-25.2,43.6h-50.3l-25.2-43.6l25.2-43.6H1422.8z M1362.7,1000.9l-25.2,43.6h-50.3
					l-25.2-43.6l25.2-43.6h50.3L1362.7,1000.9z M1337.5,1054.7l25.2,43.6l-25.2,43.6h-50.3l-25.2-43.6l25.2-43.6H1337.5z
					 M1347.3,1048.8l25.2-43.6h50.3l25.2,43.6l-25.2,43.6h-50.3L1347.3,1048.8z M1455.4,1054.7h50.3l25.2,43.6l-25.2,43.6h-50.3
					l-25.2-43.6L1455.4,1054.7z M1455.4,1044.5l-25.2-43.6l25.2-43.6h50.3l25.2,43.6l-25.2,43.6H1455.4z M1455.4,947l-25.2-43.6
					l25.2-43.6h50.3l25.2,43.6l-25.2,43.6H1455.4z M1455.4,849.6l-25.2-43.6l25.2-43.6h50.3L1531,806l-25.2,43.6H1455.4z
					 M1455.4,752.1l-25.2-43.6l25.2-43.6h50.3l25.2,43.6l-25.2,43.6H1455.4z M1455.4,654.7l-25.2-43.6l25.2-43.6h50.3l25.2,43.6
					l-25.2,43.6H1455.4z M1450.5,559l-30.1,52.1l28.1,48.7l-25.8,44.6h-55.3l-30.1,52.1l28.1,48.7l-28.1,48.7l28.1,48.7l-26.6,46.1
					h-56.7l-30.1,52.1l28.1,48.7l-25.8,44.6h-55.3l-28.6,49.5h-51l-28.6-49.5h-60.1l-28.6,49.5h-51l-28.6-49.5h-60.1l-28.6,49.5
					h-48.6l-28.6-49.5H697l-28.6,49.5h-51l-28.6-49.5h-57.5l-27.7-48h-54.4l-28.6-49.5h-57.5l-25.8-44.6l28.1-48.7l-28.1-48.7
					l28.1-48.7l-30.1-52.1H281l-26.6-46.1l28.1-48.7L252.5,607h-57.5l-25.8-44.6l28.1-48.7L169.2,465l28.1-48.7l-28.1-48.7
					l26.6-46.1h56.7l30.1-52.1l-28.1-48.7l25.8-44.6h55.3l30.1-52.1l-28.1-48.7L364,29.1h56.7L450.8-23l-28.1-48.7l25.8-44.6h55.3
					l28.5-49.4h51l28.6,49.4h60.1l28.5-49.4h51l28.5,49.4h60.1l28.6-49.4h48.6l28.5,49.4h60.1l28.6-49.4h51l28.5,49.4h57.5l27.7,48
					h54.4l26.6,46.1l-28.1,48.7l30.1,52.1h57.5l25.8,44.6l-28.1,48.7l30.1,52.1h54.4l28.5,49.5h57.5l25.8,44.6l-28.1,48.7l28.1,48.7
					l-28.1,48.7l28.1,48.7l-26.6,46.1H1450.5z M247.6,712.9l25.2,43.6l-25.2,43.6h-50.3l-25.2-43.6l25.2-43.6H247.6z M172.1,659.1
					l25.2-43.6h50.3l25.2,43.6l-25.2,43.6h-50.3L172.1,659.1z M280.2,947l-25.2-43.6l25.2-43.6h50.3l25.2,43.6L330.6,947H280.2z
					 M355.7,1000.9l-25.2,43.6h-50.3l-25.2-43.6l25.2-43.6h50.3L355.7,1000.9z M280.2,849.6L255.1,806l25.2-43.6h50.3l25.2,43.6
					l-25.2,43.6H280.2z M247.6,810.4l25.2,43.6l-25.2,43.6h-50.3L172.1,854l25.2-43.6H247.6z M247.6,907.8l25.2,43.6L247.6,995
					h-50.3l-25.2-43.6l25.2-43.6H247.6z M247.6,1005.3l25.2,43.6l-25.2,43.6h-50.3l-25.2-43.6l25.2-43.6H247.6z M280.2,1054.7h50.3
					l25.2,43.6l-25.2,43.6h-50.3l-25.2-43.6L280.2,1054.7z M340.3,1048.8l25.2-43.6h50.3l25.2,43.6l-25.2,43.6h-50.3L340.3,1048.8z
					 M448.5,1054.7h50.3l25.2,43.6l-25.2,43.6h-50.3l-25.2-43.6L448.5,1054.7z M280.2,70.1l-25.2-43.6l25.2-43.6h50.3l25.2,43.6
					l-25.2,43.6H280.2z M355.7,123.9l-25.2,43.6h-50.3l-25.2-43.6l25.2-43.6h50.3L355.7,123.9z M340.3-23l25.2-43.6h50.3L441-23
					l-25.2,43.6h-50.3L340.3-23z M365.5-76.8l-25.2-43.6l25.2-43.6h50.3l25.2,43.6l-25.2,43.6H365.5z M355.7-70.9l-25.2,43.6h-50.3
					l-25.2-43.6l25.2-43.6h50.3L355.7-70.9z M247.6-76.8h-50.3l-25.2-43.6l25.2-43.6h50.3l25.2,43.6L247.6-76.8z M247.6-66.5
					L272.7-23l-25.2,43.6h-50.3L172.1-23l25.2-43.6H247.6z M247.6,30.9l25.2,43.6l-25.2,43.6h-50.3l-25.2-43.6l25.2-43.6H247.6z
					 M247.6,128.3l25.2,43.6l-25.2,43.6h-50.3l-25.2-43.6l25.2-43.6H247.6z M247.6,225.8l25.2,43.6L247.6,313h-50.3l-25.2-43.6
					l25.2-43.6H247.6z M1372.4,118.1l-25.2-43.6l25.2-43.6h50.3l25.2,43.6l-25.2,43.6H1372.4z M1448,171.9l-25.2,43.6h-50.3
					l-25.2-43.6l25.2-43.6h50.3L1448,171.9z M1337.5,70.1h-50.3L1262,26.5l25.2-43.6h50.3l25.2,43.6L1337.5,70.1z M1372.4,20.6
					L1347.3-23l25.2-43.6h50.3L1448-23l-25.2,43.6H1372.4z M1372.4-76.8l-25.2-43.6l25.2-43.6h50.3l25.2,43.6l-25.2,43.6H1372.4z
					 M1362.7-70.9l-25.2,43.6h-50.3L1262-70.9l25.2-43.6h50.3L1362.7-70.9z M1254.5-76.8h-50.3l-25.2-43.6l25.2-43.6h50.3l25.2,43.6
					L1254.5-76.8z M1505.8,265h-50.3l-25.2-43.6l25.2-43.6h50.3l25.2,43.6L1505.8,265z M1455.4,167.5l-25.2-43.6l25.2-43.6h50.3
					l25.2,43.6l-25.2,43.6H1455.4z M1455.4,70.1l-25.2-43.6l25.2-43.6h50.3l25.2,43.6l-25.2,43.6H1455.4z M1455.4-27.3l-25.2-43.6
					l25.2-43.6h50.3l25.2,43.6l-25.2,43.6H1455.4z M1372.4-261.4h50.3l25.2,43.6l-25.2,43.6h-50.3l-25.2-43.6L1372.4-261.4z
					 M1337.5-212l25.2,43.6l-25.2,43.6h-50.3l-25.2-43.6l25.2-43.6H1337.5z M1204.2-261.4h50.3l25.2,43.6l-25.2,43.6h-50.3
					l-25.2-43.6L1204.2-261.4z M1169.3-212l25.2,43.6l-25.2,43.6H1119l-25.2-43.6L1119-212H1169.3z M1036-261.4h50.3l25.2,43.6
					l-25.2,43.6H1036l-25.2-43.6L1036-261.4z M1001.1-212l25.2,43.6l-25.2,43.6h-50.3l-25.2-43.6l25.2-43.6H1001.1z M867.7-261.4
					h50.3l25.2,43.6l-25.2,43.6h-50.3l-25.2-43.6L867.7-261.4z M835.3-212l25.2,43.6l-25.2,43.6h-50.3l-25.2-43.6l25.2-43.6H835.3z
					 M701.9-261.4h50.3l25.2,43.6l-25.2,43.6h-50.3l-25.2-43.6L701.9-261.4z M667-212l25.2,43.6L667-124.8h-50.3l-25.2-43.6
					l25.2-43.6H667z M533.7-261.4H584l25.2,43.6L584-174.2h-50.3l-25.2-43.6L533.7-261.4z M498.8-212l25.2,43.6l-25.2,43.6h-50.3
					l-25.2-43.6l25.2-43.6H498.8z M365.5-261.4h50.3l25.2,43.6l-25.2,43.6h-50.3l-25.2-43.6L365.5-261.4z M330.6-212l25.2,43.6
					l-25.2,43.6h-50.3l-25.2-43.6l25.2-43.6H330.6z M197.2-261.4h50.3l25.2,43.6l-25.2,43.6h-50.3l-25.2-43.6L197.2-261.4z
					 M86.8-168.4L112-212h50.3l25.2,43.6l-25.2,43.6H112L86.8-168.4z M86.8-70.9l25.2-43.6h50.3l25.2,43.6l-25.2,43.6H112L86.8-70.9
					z M86.8,26.5L112-17.1h50.3l25.2,43.6l-25.2,43.6H112L86.8,26.5z M86.8,123.9L112,80.3h50.3l25.2,43.6l-25.2,43.6H112
					L86.8,123.9z M86.8,221.4l25.2-43.6h50.3l25.2,43.6L162.3,265H112L86.8,221.4z M86.8,318.8l25.2-43.6h50.3l25.2,43.6l-25.2,43.6
					H112L86.8,318.8z M86.8,416.2l25.2-43.6h50.3l25.2,43.6l-25.2,43.6H112L86.8,416.2z M86.8,513.7l25.2-43.6h50.3l25.2,43.6
					l-25.2,43.6H112L86.8,513.7z M86.8,611.1l25.2-43.6h50.3l25.2,43.6l-25.2,43.6H112L86.8,611.1z M86.8,708.6L112,665h50.3
					l25.2,43.6l-25.2,43.6H112L86.8,708.6z M86.8,806l25.2-43.6h50.3l25.2,43.6l-25.2,43.6H112L86.8,806z M86.8,903.4l25.2-43.6
					h50.3l25.2,43.6L162.3,947H112L86.8,903.4z M86.8,1000.9l25.2-43.6h50.3l25.2,43.6l-25.2,43.6H112L86.8,1000.9z M86.8,1098.3
					l25.2-43.6h50.3l25.2,43.6l-25.2,43.6H112L86.8,1098.3z M162.3,1239.3H112l-25.2-43.6l25.2-43.6h50.3l25.2,43.6L162.3,1239.3z
					 M197.2,1189.9l-25.2-43.6l25.2-43.6h50.3l25.2,43.6l-25.2,43.6H197.2z M330.6,1239.3h-50.3l-25.2-43.6l25.2-43.6h50.3
					l25.2,43.6L330.6,1239.3z M365.5,1189.9l-25.2-43.6l25.2-43.6h50.3l25.2,43.6l-25.2,43.6H365.5z M498.8,1239.3h-50.3l-25.2-43.6
					l25.2-43.6h50.3l25.2,43.6L498.8,1239.3z M533.7,1189.9l-25.2-43.6l25.2-43.6H584l25.2,43.6l-25.2,43.6H533.7z M667,1239.3
					h-50.3l-25.2-43.6l25.2-43.6H667l25.2,43.6L667,1239.3z M701.9,1189.9l-25.2-43.6l25.2-43.6h50.3l25.2,43.6l-25.2,43.6H701.9z
					 M835.3,1239.3h-50.3l-25.2-43.6l25.2-43.6h50.3l25.2,43.6L835.3,1239.3z M867.7,1189.9l-25.2-43.6l25.2-43.6h50.3l25.2,43.6
					l-25.2,43.6H867.7z M1001.1,1239.3h-50.3l-25.2-43.6l25.2-43.6h50.3l25.2,43.6L1001.1,1239.3z M1036,1189.9l-25.2-43.6
					l25.2-43.6h50.3l25.2,43.6l-25.2,43.6H1036z M1169.3,1239.3H1119l-25.2-43.6l25.2-43.6h50.3l25.2,43.6L1169.3,1239.3z
					 M1204.2,1189.9l-25.2-43.6l25.2-43.6h50.3l25.2,43.6l-25.2,43.6H1204.2z M1337.5,1239.3h-50.3l-25.2-43.6l25.2-43.6h50.3
					l25.2,43.6L1337.5,1239.3z M1372.4,1189.9l-25.2-43.6l25.2-43.6h50.3l25.2,43.6l-25.2,43.6H1372.4z M1505.8,1239.3h-50.3
					l-25.2-43.6l25.2-43.6h50.3l25.2,43.6L1505.8,1239.3z M1616.2,1146.3l-25.2,43.6h-50.3l-25.2-43.6l25.2-43.6h50.3L1616.2,1146.3
					z M1616.2,1048.8l-25.2,43.6h-50.3l-25.2-43.6l25.2-43.6h50.3L1616.2,1048.8z M1616.2,951.4L1591,995h-50.3l-25.2-43.6
					l25.2-43.6h50.3L1616.2,951.4z M1616.2,854l-25.2,43.6h-50.3l-25.2-43.6l25.2-43.6h50.3L1616.2,854z M1616.2,756.5l-25.2,43.6
					h-50.3l-25.2-43.6l25.2-43.6h50.3L1616.2,756.5z M1616.2,659.1l-25.2,43.6h-50.3l-25.2-43.6l25.2-43.6h50.3L1616.2,659.1z
					 M1616.2,561.7l-25.2,43.6h-50.3l-25.2-43.6l25.2-43.6h50.3L1616.2,561.7z M1616.2,464.2l-25.2,43.6h-50.3l-25.2-43.6l25.2-43.6
					h50.3L1616.2,464.2z M1616.2,366.8l-25.2,43.6h-50.3l-25.2-43.6l25.2-43.6h50.3L1616.2,366.8z M1616.2,269.4L1591,313h-50.3
					l-25.2-43.6l25.2-43.6h50.3L1616.2,269.4z M1616.2,171.9l-25.2,43.6h-50.3l-25.2-43.6l25.2-43.6h50.3L1616.2,171.9z
					 M1616.2,74.5l-25.2,43.6h-50.3l-25.2-43.6l25.2-43.6h50.3L1616.2,74.5z M1616.2-23L1591,20.6h-50.3L1515.5-23l25.2-43.6h50.3
					L1616.2-23z M1616.2-120.4L1591-76.8h-50.3l-25.2-43.6l25.2-43.6h50.3L1616.2-120.4z M1616.2-217.8l-25.2,43.6h-50.3l-25.2-43.6
					l25.2-43.6h50.3L1616.2-217.8z"/>
			</g>
			<g>
				<path class="st4" d="M1706-271v0.4l-25.2-43.6l0.1-0.2l-2-3.5h-3.6l-0.3,0.6h-50.3l-25.2-43.6h0.1l-3.7-6.4h-60.1l-28.5,49.5
					h-0.1l-0.3,0.6h-50.3l-25.2-43.6h0.1l-3.7-6.4h-60.1l-28.5,49.5h-0.1l-0.3,0.6h-50.3l-25.2-43.6h0.1l-3.7-6.4h-60.1l-28.5,49.5
					h-0.1l-0.3,0.6H1120l-25.2-43.6h0.1l-3.7-6.4h-60.1l-28.5,49.5h-0.1l-0.3,0.6h-50.3l-25.2-43.6h0.1l-3.7-6.4h-60.1l-3.7,6.4h2.3
					l-25.2,43.6h-50.3l-25.2-43.6h0.1l-3.7-6.4H697l-28.6,49.5h-0.1l-0.3,0.6h-50.3l-25.2-43.6h0.1l-3.7-6.4h-60.1l-28.5,49.5h-0.1
					l-0.3,0.6h-50.3l-25.2-43.6h0.1l-3.7-6.4h-60.1L332-317.9h-0.1l-0.3,0.6h-50.3L256-360.9h0.1l-3.7-6.4h-60.1l-28.6,49.5h-0.1
					l-0.3,0.6H113l-25.2-43.6h0.1l-3.7-6.4H24.1L-6-315.3l2.2,3.7v0L21.3-268l0,0l0.8,1.4L-6-217.8l2.2,3.7v-0.8l25.2,43.6l-0.2,0.4
					l1.1,1.8L-6-120.4l2.2,3.7v-0.8l25.2,43.6l-0.2,0.4l1.1,1.8L-6-23l2.2,3.7v-0.8l25.2,43.6l-0.2,0.4l1.1,1.8L-6,74.5l2.2,3.7
					v-0.8L21.3,121l-0.2,0.4l1.1,1.8L-6,171.9l2.2,3.7v-0.8l25.2,43.6l-0.2,0.4l1.1,1.8L-6,269.4l2.2,3.7v-0.8l25.2,43.6l-0.2,0.4
					l1.1,1.8L-6,366.8l2.2,3.7v-0.8l25.2,43.6l-0.2,0.4l1.1,1.8L-6,464.2l2.2,3.7v-0.8l25.2,43.6l-0.2,0.4l1.1,1.8L-6,561.7l2.2,3.7
					v-0.8l25.2,43.6l-0.2,0.4l1.1,1.8L-6,659.1l2.2,3.7V662l25.2,43.6l-0.2,0.4l1,1.8L-6,756.5l2.2,3.7v-0.8L21.3,803l-0.2,0.4
					l1.1,1.8L-6,854l2.2,3.7v-0.8l25.2,43.6l-0.2,0.4l1.1,1.8L-6,951.4l2.2,3.7v-0.8l25.2,43.6l-0.2,0.4l1.1,1.8L-6,1048.8l2.2,3.7
					v-0.8l25.2,43.6l-0.2,0.4l1.1,1.8L-6,1146.3l2.2,3.7v-0.8l25.2,43.6l-0.2,0.4l0.8,1.4L-6,1242.9l2.2,3.7v0l25.2,43.6l0,0
					l2.8,4.8h54.4l0.7,1.1h0.1l25.2,43.6h-0.1l2.7,4.7h60.1l28.6-49.4h51l0.7,1.1h0.1l25.2,43.6h-0.1l2.7,4.7h60.1L364,1295h51
					l0.7,1.1h0.1l25.2,43.6h-0.1l2.7,4.7h60.1l28.5-49.4h51l0.7,1.1h0.1l25.2,43.6h-0.1l2.7,4.7h60.1l28.5-49.4h51l0.7,1.1h0.1
					l25.2,43.6h-0.1l2.7,4.7h60.1l2.7-4.7h-0.3l25.2-43.6h0.3l0.7-1.1h48.6l0.7,1.1h0.1l25.2,43.6h-0.1l2.7,4.7h60.1l28.6-49.4h51
					l0.7,1.1h0.1l25.2,43.6h-0.1l2.7,4.7h60.1l28.5-49.4h51l0.7,1.1h0.1l25.2,43.6h-0.1l2.7,4.7h60.1l28.5-49.4h51l0.7,1.1h0.1
					l25.2,43.6h-0.1l2.7,4.7h60.2l28.5-49.4h51l0.7,1.1h0.1l25.2,43.6h-0.1l2.7,4.7h60.1l2.7-4.7h-0.8l25.2-43.6v1.4l3-5.1l-3-5.1
					v0.4l-25.2-43.6l25.2-43.6v0.5l3-5.1l-3-5.1v0.4l-25.2-43.6l0.1-0.2l-0.1-0.2l28.1-48.7l-3-5.1v0.4l-25.2-43.6l0.1-0.2l-0.1-0.2
					l28.1-48.7l-3-5.1v0.4l-25.2-43.6l0.1-0.2l-0.1-0.2l28.1-48.7l-3-5.1v0.4l-25.2-43.6l0.1-0.2l-0.1-0.2L1709,806l-3-5.1v0.4
					l-25.2-43.6l0.1-0.2l-0.1-0.2l28.1-48.7l-3-5.1v0.4l-25.2-43.6l0.1-0.2l-0.1-0.2l28.1-48.7l-3-5.1v0.4l-25.2-43.6l0.1-0.2
					l-0.1-0.2l28.1-48.7l-3-5.1v0.4l-25.2-43.6l0.1-0.2l-0.1-0.2l28.1-48.7l-3-5.1v0.4l-25.2-43.6l0.1-0.2l-0.1-0.2l28.1-48.7
					l-3-5.1v0.4l-25.2-43.6l0.1-0.2l-0.1-0.2l28.1-48.7l-3-5.1v0.4l-25.2-43.6l0.1-0.2l-0.1-0.2l28.1-48.7l-3-5.1v0.4l-25.2-43.6
					l0.1-0.2l-0.1-0.2l28.1-48.7l-3-5.1v0.4l-25.2-43.6l0.1-0.2l-0.1-0.2l28.1-48.7l-3-5.1v0.4l-25.2-43.6l0.1-0.2l-0.1-0.2
					l28.1-48.7l-3-5.1v0.4l-25.2-43.6l0.1-0.2l-0.1-0.2l28.1-48.7L1706-271z M1674-222.2h-50.3l-0.8-1.3v12.9l0.8-1.3h50.3
					l25.2,43.6l-25.2,43.6h-50.3l-0.8-1.3v12.9l0.8-1.3h50.3l25.2,43.6L1674-27.3h-50.3l-0.8-1.3v12.9l0.8-1.3h50.3l25.2,43.6
					L1674,70.1h-50.3l-0.8-1.3v12.9l0.8-1.3h50.3l25.2,43.6l-25.2,43.6h-50.3l-0.8-1.3v12.9l0.8-1.3h50.3l25.2,43.6L1674,265h-50.3
					l-0.8-1.3v12.9l0.8-1.3h50.3l25.2,43.6l-25.2,43.6h-50.3l-0.8-1.3V374l0.8-1.3h50.3l25.2,43.6l-25.2,43.6h-50.3l-0.8-1.3v12.9
					l0.8-1.3h50.3l25.2,43.6l-25.2,43.6h-50.3l-0.8-1.3v12.9l0.8-1.3h50.3l25.2,43.6l-25.2,43.6h-50.3l-0.8-1.3v12.9l0.8-1.3h50.3
					l25.2,43.6l-25.2,43.6h-50.3l-0.8-1.3v12.9l0.8-1.3h50.3l25.2,43.6l-25.2,43.6h-50.3l-0.8-1.3v12.9l0.8-1.3h50.3l25.2,43.6
					L1674,947h-50.3l-0.8-1.3v12.9l0.8-1.3h50.3l25.2,43.6l-25.2,43.6h-50.3l-0.8-1.3v12.9l0.8-1.3h50.3l25.2,43.6l-25.2,43.6h-50.3
					l-0.8-1.3v12.9l0.8-1.3h50.3l25.2,43.6l-25.2,43.6h-50.3l-0.8-1.3v12.1l0.8-1.3h50.3l25.2,43.6L1674,1336h-50.3l-25.2-43.6
					l16.5-28.6h-10.9l-13.1,22.8h-50.3l-13.1-22.8h-13.1l16.5,28.6l-25.2,43.6h-50.3l-25.2-43.6l16.5-28.6h-10.9l-13.1,22.8h-50.3
					l-13.1-22.8h-13.1l16.5,28.6l-25.2,43.6h-50.3l-25.2-43.6l16.5-28.6h-10.9l-13.1,22.8h-50.3l-13.1-22.8H1178l16.5,28.6
					l-25.2,43.6H1119l-25.2-43.6l16.5-28.6h-10.9l-13.1,22.8H1036l-13.1-22.8h-13.1l16.5,28.6l-25.2,43.6h-50.3l-25.2-43.6
					l16.5-28.6h-10.9l-13.1,22.8h-50.3l-13.1-22.8h-10.7l16.5,28.6l-25.2,43.6h-50.3l-25.2-43.6l16.5-28.6h-10.9l-13.1,22.8h-50.3
					l-13.1-22.8h-13.1l16.5,28.6L667,1336h-50.3l-25.2-43.6l16.5-28.6h-10.9l-13.1,22.8h-50.3l-13.1-22.8h-13.1l16.5,28.6
					l-25.2,43.6h-50.3l-25.2-43.6l16.5-28.6h-10.9l-13.1,22.8h-50.3l-13.1-22.8h-13.1l16.5,28.6l-25.2,43.6h-50.3l-25.2-43.6
					l16.5-28.6h-10.9l-13.1,22.8h-50.3l-13.1-22.8H171l16.5,28.6l-25.2,43.6H112l-25.2-43.6l16.5-28.6H92.5l-13.1,22.8H29
					l-25.2-43.6l25.2-43.6h50.3l2.1,3.6v-16.7l-2.1,3.6H29l-25.2-43.6l25.2-43.6h50.3l2.1,3.6v-17.5l-2.1,3.6H29l-25.2-43.6
					l25.2-43.6h50.3l2.1,3.6v-17.5l-2.1,3.6H29L3.8,951.4L29,907.8h50.3l2.1,3.6v-17.5l-2.1,3.6H29L3.8,854L29,810.4h50.3l2.1,3.6
					v-17.5l-2.1,3.6H29L3.8,756.5L29,712.9h50.3l2.1,3.6v-17.5l-2.1,3.6H29L3.8,659.1L29,615.5h50.3l2.1,3.6v-17.5l-2.1,3.6H29
					L3.8,561.7L29,518.1h50.3l2.1,3.6v-17.5l-2.1,3.6H29L3.8,464.2L29,420.6h50.3l2.1,3.6v-17.5l-2.1,3.6H29L3.8,366.8L29,323.2
					h50.3l2.1,3.6v-17.5l-2.1,3.6H29L3.8,269.4L29,225.8h50.3l2.1,3.6v-17.5l-2.1,3.6H29L3.8,171.9L29,128.3h50.3l2.1,3.6v-17.5
					l-2.1,3.6H29L3.8,74.5L29,30.9h50.3l2.1,3.6V17l-2.1,3.6H29L3.8-23L29-66.5h50.3l2.1,3.6v-17.5l-2.1,3.6H29L3.8-120.4L29-164
					h50.3l2.1,3.6v-17.5l-2.1,3.6H29L3.8-217.8L29-261.4h50.3l2.1,3.6v-17.5l-2.1,3.6H29L3.8-315.3L29-358.9h50.3l25.2,43.6
					l-21.7,37.5h10.9l18.3-31.7h50.3l18.3,31.7h13.1l-21.7-37.5l25.2-43.6h50.3l25.2,43.6l-21.7,37.5h10.9l18.3-31.7h50.3l18.3,31.7
					h13.1l-21.7-37.5l25.2-43.6h50.3l25.2,43.6l-21.7,37.5h10.9l18.3-31.7h50.3l18.3,31.7h13.1l-21.7-37.5l25.2-43.6H584l25.2,43.6
					l-21.7,37.5h10.9l18.3-31.7H667l18.3,31.7h13.1l-21.7-37.5l25.2-43.6h50.3l25.2,43.6l-21.7,37.5h10.9l18.3-31.7h50.3l18.3,31.7
					h10.7l-21.7-37.5l25.2-43.6h50.3l25.2,43.6l-21.7,37.5h10.9l18.3-31.7h50.3l18.3,31.7h13.1l-21.7-37.5l25.2-43.6h50.3l25.2,43.6
					l-21.7,37.5h10.9l18.3-31.7h50.3l18.3,31.7h13.1l-21.7-37.5l25.2-43.6h50.3l25.2,43.6l-21.7,37.5h10.9l18.3-31.7h50.3l18.3,31.7
					h13.1l-21.7-37.5l25.2-43.6h50.3l25.2,43.6l-21.7,37.5h10.9l18.3-31.7h50.3l18.3,31.7h13.1l-21.7-37.5l25.2-43.6h50.3l25.2,43.6
					l-21.7,37.5h10.9l18.3-31.7h50.3l25.2,43.6L1674-222.2z"/>
			</g>
		</g>
	</g>
</g>
</svg>
