<?xml version="1.0" encoding="utf-8"?>
<!-- Generator: Adobe Illustrator 22.1.0, SVG Export Plug-In . SVG Version: 6.00 Build 0)  -->
<svg version="1.1" id="Layer_1" xmlns="http://www.w3.org/2000/svg" xmlns:xlink="http://www.w3.org/1999/xlink" x="0px" y="0px"
	 viewBox="0 0 1465.9 962.7" style="enable-background:new 0 0 1465.9 962.7;" xml:space="preserve">
<style type="text/css">
	.st0{opacity:0.21;}
	.st1{fill:#FFFFFF;}
	.st2{opacity:0.21;fill:#FFFFFF;enable-background:new    ;}
</style>
<g class="st0">
	<g>
		<path class="st1" d="M1325.5,27.6c0,10.7,5.9,15.4,8.3,16.8c2.4-1.4,8.3-6,8.3-16.8c0-8.9-3.9-19.7-7-26.8c-0.4-1-2.1-1.1-2.5-0.1
			C1329.4,7.7,1325.5,18.7,1325.5,27.6z"/>
		<path class="st1" d="M1340.7,49.5c1.4,1,4.6,2.7,9.3,2.7c3,0,6.2-0.8,9.4-2.2c8.4-3.9,16.9-12.5,22-18.3c0.5-0.6,0.7-1.7-0.5-1.7
			c-7.7,0.2-19.9,1-28.4,4.9C1342.7,39.5,1341,46.8,1340.7,49.5z"/>
		<path class="st1" d="M1347,27.6c0,1.8-0.1,3.5-0.4,5c1.2-0.7,2.4-1.4,3.8-2.1c1.8-0.8,3.7-1.5,5.6-2.1c2.4-5.4,4.1-11.2,5.1-15.8
			c0.3-1.3-0.4-2-1.2-1.6c-4,2.1-9.1,5.5-13.6,9.4C1346.7,22.8,1347,25.2,1347,27.6z"/>
		<path class="st1" d="M1308,50c3.2,1.5,6.4,2.2,9.4,2.2c4.6,0,7.8-1.7,9.3-2.7c-0.3-2.7-2-10-11.7-14.5c-8.2-3.8-20.3-4.8-28-4.9
			c-1,0-1.3,1.2-0.8,1.8C1291.2,37.6,1299.7,46.1,1308,50z"/>
		<path class="st1" d="M1308.1,9.3c0.5,5.4,1.6,12.8,3.8,19.2c1.8,0.6,3.5,1.2,5.1,1.9c1.4,0.6,2.7,1.3,3.8,2.1
			c-0.2-1.5-0.4-3.2-0.4-5c0-2.8,0.3-5.7,0.9-8.6c-4-4.3-8.5-8.2-12-10.8C1308.4,7.4,1308.1,8.5,1308.1,9.3z"/>
		<path class="st1" d="M1369.5,89c-2.8-7.2-7.8-17.9-14.2-24.3c-5.3-5.3-10.5-6.4-14-6.4c-1.6,0-2.9,0.2-3.7,0.4
			c-0.7,2.7-1.6,10.1,6,17.7c6.5,6.5,17.4,11.4,24.5,14.2C1369,90.9,1369.9,89.8,1369.5,89z"/>
		<path class="st1" d="M1361.5,54.5c-2.6,1.2-5.3,2-7.9,2.4c1.7,1.1,3.5,2.5,5.2,4.2c0.6,0.6,1.2,1.2,1.8,1.9
			c6.3,0,12.8-1.2,17.6-2.1c1.3-0.3,1.3-1.1,0.8-1.5c-3.3-2.3-7.8-5.3-12.6-7.7C1364.8,52.8,1363.2,53.7,1361.5,54.5z"/>
		<path class="st1" d="M1341.4,81c-0.4-0.4-0.9-0.8-1.3-1.2c-3.3-3.3-5.3-6.5-6.4-9.6c-1.1,2.8-2.9,5.9-5.8,9
			c1.5,7.3,3.5,13.7,6,19.1c0.5,1.1,1.9,1.2,2.4,0.1C1338.5,93.8,1340.9,86.7,1341.4,81z"/>
		<path class="st1" d="M1306.2,62.8c0.3,0,0.5,0,0.8,0c0.5-0.6,1-1.1,1.5-1.6c1.7-1.7,3.5-3.1,5.2-4.2c-2.6-0.4-5.2-1.2-7.9-2.4
			c-2.2-1-4.5-2.4-6.7-3.9c-4.9,2.1-9.7,4.7-13.3,7c-0.8,0.5-0.6,1.9,0.6,2.2C1292,61.2,1299.5,62.8,1306.2,62.8L1306.2,62.8
			L1306.2,62.8z"/>
		<path class="st1" d="M1329.8,58.6c-0.8-0.2-2.1-0.4-3.7-0.4c-3.5,0-8.7,1.1-14,6.4c-6.3,6.3-11.2,16.9-14,24
			c-0.4,1,0.7,2.1,1.7,1.7c7.1-2.8,17.7-7.7,24-14C1331.4,68.7,1330.5,61.3,1329.8,58.6z"/>
	</g>
	<g>
		<g>
			<path class="st1" d="M1329.8,48c1,0,1.9,0.9,1.9,1.9s-0.9,1.9-1.9,1.9c-1,0-1.9-0.9-1.9-1.9S1328.8,48,1329.8,48z"/>
		</g>
		<g>
			<circle class="st1" cx="1336.9" cy="49.9" r="1.9"/>
		</g>
	</g>
	<g>
		<circle class="st1" cx="1333.3" cy="55.4" r="1.9"/>
	</g>
</g>
<g class="st0">
	<g>
		<path class="st1" d="M1435.3,754c0,5.8,3.2,8.3,4.5,9.1c1.3-0.8,4.5-3.2,4.5-9.1c0-4.8-2.1-10.7-3.8-14.5c-0.2-0.6-1.1-0.6-1.4,0
			C1437.5,743.2,1435.3,749.1,1435.3,754z"/>
		<path class="st1" d="M1443.6,765.8c0.8,0.5,2.5,1.5,5,1.5c1.6,0,3.4-0.4,5.1-1.2c4.5-2.1,9.2-6.8,11.9-9.9
			c0.3-0.3,0.4-0.9-0.3-0.9c-4.2,0.1-10.8,0.5-15.4,2.7C1444.6,760.4,1443.7,764.4,1443.6,765.8z"/>
		<path class="st1" d="M1446.9,754c0,1-0.1,1.9-0.2,2.7c0.6-0.4,1.3-0.8,2.1-1.1c1-0.4,2-0.8,3-1.1c1.3-2.9,2.2-6.1,2.7-8.5
			c0.1-0.7-0.2-1.1-0.7-0.9c-2.2,1.1-4.9,3-7.3,5.1C1446.8,751.4,1446.9,752.7,1446.9,754z"/>
		<path class="st1" d="M1425.9,766.1c1.7,0.8,3.5,1.2,5.1,1.2c2.5,0,4.2-0.9,5-1.5c-0.2-1.5-1.1-5.4-6.4-7.9
			c-4.4-2.1-11-2.6-15.2-2.7c-0.5,0-0.7,0.7-0.4,1C1416.8,759.4,1421.3,764,1425.9,766.1z"/>
		<path class="st1" d="M1425.9,744.1c0.3,2.9,0.9,6.9,2.1,10.4c1,0.3,1.9,0.6,2.8,1.1c0.8,0.4,1.4,0.7,2.1,1.1
			c-0.1-0.8-0.2-1.7-0.2-2.7c0-1.5,0.2-3.1,0.5-4.7c-2.1-2.3-4.6-4.4-6.5-5.8C1426.1,743.1,1425.9,743.6,1425.9,744.1z"/>
		<path class="st1" d="M1459.2,787.2c-1.5-3.9-4.2-9.7-7.7-13.2c-2.9-2.9-5.7-3.5-7.6-3.5c-0.9,0-1.6,0.1-2,0.2
			c-0.4,1.4-0.9,5.5,3.3,9.6c3.5,3.5,9.4,6.2,13.3,7.7C1458.9,788.2,1459.3,787.7,1459.2,787.2z"/>
		<path class="st1" d="M1454.8,768.5c-1.4,0.7-2.8,1.1-4.3,1.3c0.9,0.6,1.9,1.3,2.8,2.3c0.3,0.3,0.7,0.7,1,1c3.4,0,6.9-0.6,9.5-1.1
			c0.7-0.1,0.7-0.6,0.4-0.8c-1.8-1.3-4.2-2.9-6.8-4.2C1456.6,767.6,1455.7,768.1,1454.8,768.5z"/>
		<path class="st1" d="M1443.9,782.9c-0.2-0.2-0.5-0.4-0.7-0.6c-1.8-1.8-2.8-3.5-3.5-5.2c-0.6,1.5-1.6,3.2-3.1,4.8
			c0.8,3.9,1.9,7.4,3.3,10.4c0.3,0.6,1,0.6,1.3,0.1C1442.4,789.8,1443.7,786,1443.9,782.9z"/>
		<path class="st1" d="M1424.9,773c0.2,0,0.3,0,0.4,0c0.3-0.3,0.5-0.6,0.8-0.9c0.9-0.9,1.9-1.7,2.8-2.3c-1.4-0.2-2.8-0.7-4.3-1.3
			c-1.2-0.6-2.4-1.3-3.6-2.1c-2.7,1.1-5.2,2.6-7.2,3.8c-0.4,0.3-0.4,1,0.3,1.2C1417.2,772.2,1421.2,773,1424.9,773L1424.9,773
			L1424.9,773z"/>
		<path class="st1" d="M1437.7,770.8c-0.4-0.1-1.1-0.2-2-0.2c-1.9,0-4.7,0.6-7.6,3.5c-3.4,3.4-6.1,9.1-7.6,13
			c-0.2,0.5,0.4,1.1,0.9,0.9c3.9-1.5,9.6-4.2,13-7.6C1438.5,776.2,1438,772.2,1437.7,770.8z"/>
	</g>
	<g>
		<g>
			<circle class="st1" cx="1437.6" cy="766.1" r="1"/>
		</g>
		<g>
			<circle class="st1" cx="1441.5" cy="766.1" r="1"/>
		</g>
	</g>
	<g>
		<circle class="st1" cx="1439.6" cy="769" r="1"/>
	</g>
</g>
<g class="st0">
	<g>
		<path class="st1" d="M79.5,32.2c0,5.8,3.2,8.3,4.5,9.1c1.3-0.8,4.5-3.2,4.5-9.1c0-4.8-2.1-10.7-3.8-14.5c-0.2-0.6-1.1-0.6-1.4,0
			C81.7,21.6,79.5,27.5,79.5,32.2z"/>
		<path class="st1" d="M87.8,44.2c0.8,0.5,2.5,1.5,5,1.5c1.6,0,3.4-0.4,5.1-1.2c4.5-2.1,9.2-6.8,11.9-9.9c0.3-0.3,0.4-0.9-0.3-0.9
			c-4.2,0.1-10.8,0.5-15.4,2.7C88.9,38.8,88,42.7,87.8,44.2z"/>
		<path class="st1" d="M91.2,32.2c0,1-0.1,1.9-0.2,2.7c0.6-0.4,1.3-0.8,2.1-1.1c1-0.4,2-0.8,3-1.1c1.3-2.9,2.2-6.1,2.7-8.5
			c0.1-0.7-0.2-1.1-0.7-0.9c-2.2,1.1-4.9,3-7.3,5.1C91.1,29.7,91.2,31.1,91.2,32.2z"/>
		<path class="st1" d="M70.1,44.5c1.7,0.8,3.5,1.2,5.1,1.2c2.5,0,4.2-0.9,5-1.5c-0.2-1.5-1.1-5.4-6.4-7.9c-4.4-2.1-11-2.6-15.2-2.7
			c-0.5,0-0.7,0.7-0.4,1C61,37.8,65.6,42.4,70.1,44.5z"/>
		<path class="st1" d="M70.2,22.5c0.3,2.9,0.9,6.9,2.1,10.4c1,0.3,1.9,0.6,2.8,1.1c0.8,0.4,1.4,0.7,2.1,1.1
			c-0.1-0.8-0.2-1.7-0.2-2.7c0-1.5,0.2-3.1,0.5-4.7c-2.1-2.3-4.6-4.4-6.5-5.8C70.3,21.4,70.1,22,70.2,22.5z"/>
		<path class="st1" d="M103.4,65.6c-1.5-3.9-4.2-9.7-7.7-13.2c-2.9-2.9-5.7-3.5-7.6-3.5c-0.9,0-1.6,0.1-2,0.2
			c-0.4,1.4-0.9,5.5,3.3,9.6c3.5,3.5,9.4,6.2,13.3,7.7C103.1,66.6,103.6,66.1,103.4,65.6z"/>
		<path class="st1" d="M99,46.9c-1.4,0.7-2.8,1.1-4.3,1.3c0.9,0.6,1.9,1.3,2.8,2.3c0.3,0.3,0.7,0.7,1,1c3.4,0,6.9-0.6,9.5-1.1
			c0.7-0.1,0.7-0.6,0.4-0.8c-1.8-1.3-4.2-2.9-6.8-4.2C100.8,46,99.9,46.5,99,46.9z"/>
		<path class="st1" d="M88.2,61.3c-0.2-0.2-0.5-0.4-0.7-0.6c-1.8-1.8-2.8-3.5-3.5-5.2c-0.6,1.5-1.6,3.2-3.1,4.8
			c0.8,3.9,1.9,7.4,3.3,10.4c0.3,0.6,1,0.6,1.3,0.1C86.6,68.1,87.9,64.3,88.2,61.3z"/>
		<path class="st1" d="M69.1,51.3c0.2,0,0.3,0,0.4,0c0.3-0.3,0.5-0.6,0.8-0.9c0.9-0.9,1.9-1.7,2.8-2.3c-1.4-0.2-2.8-0.7-4.3-1.3
			c-1.2-0.6-2.4-1.3-3.6-2.1c-2.7,1.1-5.2,2.6-7.2,3.8c-0.4,0.3-0.4,1,0.3,1.2C61.5,50.4,65.5,51.3,69.1,51.3L69.1,51.3L69.1,51.3z"
			/>
		<path class="st1" d="M81.9,49.2c-0.4-0.1-1.1-0.2-2-0.2c-1.9,0-4.7,0.6-7.6,3.5c-3.4,3.4-6.1,9.1-7.6,13c-0.2,0.5,0.4,1.1,0.9,0.9
			c3.9-1.5,9.6-4.2,13-7.6C82.8,54.6,82.3,50.6,81.9,49.2z"/>
	</g>
	<g>
		<g>
			<circle class="st1" cx="81.9" cy="44.4" r="1"/>
		</g>
		<g>
			<circle class="st1" cx="85.7" cy="44.4" r="1"/>
		</g>
	</g>
	<g>
		<circle class="st1" cx="83.8" cy="47.4" r="1"/>
	</g>
</g>
<g class="st0">
	<g>
		<path class="st1" d="M18,773.4c0,4.9,2.7,7,3.8,7.6c1.1-0.6,3.8-2.7,3.8-7.6c0-4-1.8-9-3.2-12.2c-0.2-0.5-0.9-0.5-1.1,0
			C19.9,764.4,18,769.4,18,773.4z"/>
		<path class="st1" d="M25,783.4c0.7,0.4,2.1,1.2,4.2,1.2c1.4,0,2.8-0.3,4.3-1c3.8-1.8,7.7-5.7,10-8.3c0.2-0.3,0.3-0.8-0.2-0.8
			c-3.5,0.1-9.1,0.5-12.9,2.2C25.9,778.9,25.1,782.2,25,783.4z"/>
		<path class="st1" d="M27.8,773.4c0,0.8-0.1,1.6-0.2,2.3c0.5-0.3,1.1-0.7,1.7-0.9c0.8-0.4,1.7-0.7,2.6-1c1.1-2.4,1.9-5.1,2.3-7.2
			c0.1-0.6-0.2-0.9-0.5-0.7c-1.8,0.9-4.1,2.5-6.2,4.3C27.7,771.3,27.8,772.4,27.8,773.4z"/>
		<path class="st1" d="M10.1,783.6c1.5,0.7,2.9,1,4.3,1c2.1,0,3.6-0.8,4.2-1.2c-0.1-1.2-0.9-4.6-5.3-6.6c-3.7-1.7-9.2-2.2-12.8-2.2
			c-0.4,0-0.6,0.6-0.4,0.8C2.5,778,6.3,781.9,10.1,783.6z"/>
		<path class="st1" d="M10.2,765.1c0.2,2.4,0.7,5.8,1.7,8.7c0.8,0.3,1.6,0.5,2.3,0.9c0.6,0.3,1.2,0.6,1.7,0.9
			c-0.1-0.7-0.2-1.5-0.2-2.3c0-1.3,0.2-2.6,0.4-3.9c-1.8-2-3.9-3.7-5.5-4.9C10.3,764.3,10.1,764.8,10.2,765.1z"/>
		<path class="st1" d="M38.1,801.4c-1.3-3.3-3.5-8.2-6.4-11.1c-2.4-2.4-4.8-2.9-6.4-2.9c-0.7,0-1.3,0.1-1.7,0.2
			c-0.3,1.2-0.7,4.6,2.7,8.1c2.9,2.9,7.9,5.2,11.2,6.5C37.9,802.2,38.3,801.8,38.1,801.4z"/>
		<path class="st1" d="M34.4,785.7c-1.2,0.6-2.4,0.9-3.6,1.1c0.8,0.5,1.6,1.1,2.4,1.9c0.3,0.3,0.5,0.6,0.8,0.9c2.9,0,5.8-0.5,8-1
			c0.6-0.1,0.6-0.5,0.4-0.7c-1.5-1.1-3.6-2.4-5.7-3.5C36,784.9,35.2,785.3,34.4,785.7z"/>
		<path class="st1" d="M25.3,797.8c-0.2-0.2-0.4-0.4-0.6-0.5c-1.5-1.5-2.4-3-2.9-4.4c-0.5,1.3-1.3,2.7-2.6,4.1
			c0.7,3.3,1.6,6.2,2.7,8.7c0.2,0.5,0.9,0.5,1.1,0C24,803.6,25.1,800.4,25.3,797.8z"/>
		<path class="st1" d="M9.3,789.4c0.1,0,0.3,0,0.4,0c0.2-0.3,0.5-0.5,0.7-0.7c0.8-0.8,1.6-1.4,2.4-1.9c-1.2-0.2-2.4-0.5-3.6-1.1
			c-1-0.5-2-1.1-3-1.8c-2.2,0.9-4.4,2.2-6,3.2c-0.4,0.2-0.3,0.9,0.3,1C2.8,788.7,6.2,789.4,9.3,789.4L9.3,789.4L9.3,789.4z"/>
		<path class="st1" d="M20,787.6c-0.4-0.1-1-0.2-1.7-0.2c-1.6,0-4,0.5-6.4,2.9c-2.9,2.9-5.1,7.7-6.4,10.9c-0.2,0.5,0.3,1,0.8,0.8
			c3.3-1.3,8.1-3.5,10.9-6.4C20.8,792.2,20.3,788.8,20,787.6z"/>
	</g>
	<g>
		<g>
			<circle class="st1" cx="20" cy="783.6" r="0.8"/>
		</g>
		<g>
			<circle class="st1" cx="23.2" cy="783.6" r="0.8"/>
		</g>
	</g>
	<g>
		<circle class="st1" cx="21.6" cy="786.1" r="0.8"/>
	</g>
</g>
<g class="st0">
	<g>
		<path class="st1" d="M1425.5,211.8c0,5.6,3.1,8,4.3,8.8c1.2-0.7,4.3-3.1,4.3-8.8c0-4.6-2.1-10.3-3.7-14c-0.2-0.5-1.1-0.6-1.3,0
			C1427.5,201.4,1425.5,207.1,1425.5,211.8z"/>
		<path class="st1" d="M1433.4,223.3c0.7,0.5,2.4,1.4,4.8,1.4c1.6,0,3.2-0.4,4.9-1.2c4.4-2,8.8-6.6,11.5-9.6
			c0.3-0.3,0.4-0.9-0.3-0.9c-4,0.1-10.4,0.5-14.9,2.6C1434.5,218,1433.6,221.8,1433.4,223.3z"/>
		<path class="st1" d="M1436.7,211.8c0,0.9-0.1,1.8-0.2,2.6c0.6-0.4,1.3-0.8,2-1.1c0.9-0.4,1.9-0.8,2.9-1.1c1.2-2.8,2.1-5.9,2.6-8.2
			c0.1-0.7-0.2-1.1-0.6-0.8c-2.1,1.1-4.7,2.9-7.1,4.9C1436.6,209.3,1436.7,210.6,1436.7,211.8z"/>
		<path class="st1" d="M1416.3,223.5c1.7,0.8,3.3,1.2,4.9,1.2c2.4,0,4.1-0.9,4.8-1.4c-0.1-1.4-1-5.2-6.1-7.6
			c-4.3-2-10.6-2.5-14.6-2.6c-0.5,0-0.7,0.6-0.4,0.9C1407.5,217,1412,221.5,1416.3,223.5z"/>
		<path class="st1" d="M1416.4,202.3c0.3,2.8,0.8,6.7,2,10c0.9,0.3,1.8,0.6,2.7,1c0.7,0.3,1.4,0.7,2,1.1c-0.1-0.8-0.2-1.7-0.2-2.6
			c0-1.5,0.2-3,0.5-4.5c-2.1-2.2-4.4-4.3-6.3-5.6C1416.5,201.3,1416.4,201.8,1416.4,202.3z"/>
		<path class="st1" d="M1448.5,243.9c-1.5-3.7-4.1-9.4-7.4-12.7c-2.8-2.8-5.5-3.4-7.3-3.4c-0.8,0-1.5,0.1-1.9,0.2
			c-0.4,1.4-0.8,5.3,3.1,9.2c3.4,3.4,9.1,6,12.8,7.4C1448.2,244.9,1448.7,244.4,1448.5,243.9z"/>
		<path class="st1" d="M1444.3,225.9c-1.4,0.6-2.8,1.1-4.1,1.3c0.9,0.6,1.8,1.3,2.7,2.2c0.3,0.3,0.6,0.7,0.9,1
			c3.3,0,6.7-0.6,9.2-1.1c0.7-0.1,0.7-0.6,0.4-0.8c-1.7-1.2-4.1-2.8-6.6-4C1446,225,1445.2,225.5,1444.3,225.9z"/>
		<path class="st1" d="M1433.8,239.7c-0.2-0.2-0.4-0.4-0.7-0.6c-1.7-1.7-2.7-3.4-3.4-5c-0.6,1.5-1.5,3.1-3,4.7
			c0.8,3.8,1.8,7.2,3.1,10c0.3,0.6,1,0.6,1.3,0.1C1432.3,246.4,1433.5,242.7,1433.8,239.7z"/>
		<path class="st1" d="M1415.4,230.2c0.1,0,0.3,0,0.4,0c0.3-0.3,0.5-0.6,0.8-0.9c0.9-0.9,1.8-1.6,2.7-2.2c-1.4-0.2-2.7-0.6-4.1-1.3
			c-1.2-0.5-2.3-1.2-3.5-2c-2.6,1.1-5.1,2.5-6.9,3.6c-0.4,0.3-0.3,1,0.3,1.2C1408,229.4,1411.9,230.2,1415.4,230.2L1415.4,230.2
			L1415.4,230.2z"/>
		<path class="st1" d="M1427.7,228c-0.4-0.1-1.1-0.2-1.9-0.2c-1.8,0-4.5,0.6-7.3,3.4c-3.3,3.3-5.9,8.8-7.3,12.6
			c-0.2,0.5,0.4,1.1,0.9,0.9c3.7-1.5,9.3-4,12.6-7.3C1428.6,233.3,1428.1,229.4,1427.7,228z"/>
	</g>
	<g>
		<g>
			<circle class="st1" cx="1427.7" cy="223.5" r="1"/>
		</g>
		<g>
			<circle class="st1" cx="1431.4" cy="223.5" r="1"/>
		</g>
	</g>
	<g>
		<circle class="st1" cx="1429.6" cy="226.3" r="1"/>
	</g>
</g>
<path class="st2" d="M1389.6,920.6c0,0-16.8,27.2-39,41.9c54.5,3.5,58.6-65.2,58.6-65.2c-61.1,14.1-63.8,47.6-62.5,60.1
	C1358.7,948.6,1374.9,933.4,1389.6,920.6z"/>
<path class="st2" d="M1393.7,521.3c3.3-7.8,15.5-27,56.4-15.8c0,0-24.5,39.6-55.8,20.1c17.9-1.7,36.7-12.5,36.7-12.5
	C1418.3,515.9,1403.7,519.9,1393.7,521.3z"/>
<path class="st2" d="M60.8,942.1c0.2-11.5,6.3-41.4,63.1-47.1c0,0-11.5,61.5-60.2,52.1c21.7-10.8,39.9-33.4,39.9-33.4
	C88.9,923.6,72.6,935.4,60.8,942.1z"/>
<path class="st2" d="M49.7,307.1c0,0,25.7,21,52.5,28c-52.4,21.9-79.6-44.3-79.6-44.3c64.9-6.8,78.7,25.3,81.7,38.1
	C89.5,324.1,68.5,314.6,49.7,307.1z"/>
</svg>
