<?xml version="1.0" encoding="utf-8"?>
<!-- Generator: Adobe Illustrator 22.1.0, SVG Export Plug-In . SVG Version: 6.00 Build 0)  -->
<svg version="1.1" id="Layer_1" xmlns="http://www.w3.org/2000/svg" xmlns:xlink="http://www.w3.org/1999/xlink" x="0px" y="0px"
	 viewBox="0 0 1677.7 766.2" style="enable-background:new 0 0 1677.7 766.2;" xml:space="preserve">
<style type="text/css">
	.st0{opacity:0.5;}
	.st1{fill:#FBD0B5;}
	.st2{fill:#FFFFFF;}
	.st3{opacity:0.5;fill:#FFFFFF;enable-background:new    ;}
	.st4{fill:#FFE8CD;}
</style>
<g id="Ppxovp.tif" class="st0">
	<g>
		<path class="st1" d="M594.8,92c-0.4,3.8-0.8,7.6-1.2,11.4c-0.1,0.2,0,0.2,0.2,0.3c1.8,0.6,3.7,1.2,5.5,1.7c1.7,0.5,3.4,1,5.1,1.5
			c0.1,0,0.1,0,0.2,0.1l0,0.1c-0.1,0-0.2,0-0.3,0c-3.6,0.8-7.2,1.6-10.8,2.4c-0.2,0-0.3,0.1-0.2,0.3c0.1,3.5,0.1,7.2,0.1,10.7
			c0,0.2,0.1,0.4,0.1,0.8c-0.1,0-0.2-0.1-0.2-0.2c-0.2-0.5-0.5-0.9-0.7-1.4c-1.6-2.7-3.1-5.5-4.8-8.2c-0.1-0.1-0.1-0.1-0.1-0.1
			c-0.1,0-0.2,0-0.3,0c-3.5,1.3-7.1,2.5-10.7,3.7l-0.1,0.1l-0.1,0c0-0.1,0.1-0.3,0.2-0.3c2.4-2.8,4.9-5.6,7.4-8.5
			c0-0.1,0-0.1,0.2-0.2c-0.1-0.1-0.1-0.1-0.2-0.2c-2-2.7-4-5.4-6-8.1c-0.3-0.3-0.5-0.6-0.8-1l0-0.1c0.3,0.1,0.7,0.2,0.9,0.3
			c1.1,0.5,2.1,0.9,3.2,1.4c1.4,0.6,2.7,1.2,4,1.8c0.7,0.4,1.6,0.7,2.3,1c0.1,0,0.2,0.1,0.3-0.1c2.1-3.2,4.3-6.3,6.5-9.4l0,0
			C594.7,92,594.8,92,594.8,92z M589.3,106.7c-4.1,2.8-8.1,5.6-12.1,8.3c0.1,0,0.2,0,0.2,0c3.3-1.1,6.6-2.4,9.9-3.5
			c0.1-0.1,0.3-0.1,0.3-0.3c0.5-1.4,1-2.8,1.5-4.2C589.2,106.9,589.3,106.8,589.3,106.7z M577.9,97.6L577.9,97.6
			c0,0.1,0.1,0.1,0.1,0.1c2.1,2.8,4.2,5.6,6.3,8.5c0.1,0.1,0.2,0.2,0.4,0.1c1.4,0,2.9,0,4.3,0c0.1,0,0.1-0.1,0.2,0
			C585.4,103.3,581.7,100.5,577.9,97.6z M589.5,106.2c1.7-4.5,3.3-9,4.9-13.4c0,0.1-0.1,0.1-0.2,0.2c-2,2.9-4.1,5.9-6,8.8
			c0,0.1-0.1,0.2,0,0.3c0.1,0.5,0.3,1,0.4,1.4C588.9,104.3,589.2,105.2,589.5,106.2z M589.8,106.3L589.8,106.3
			c4.7,0.2,9.4,0.5,14.1,0.7c-0.3-0.1-0.6-0.2-0.8-0.3c-1.2-0.3-2.4-0.8-3.5-1.1c-1.3-0.4-2.5-0.7-3.7-1.2c-0.7-0.2-1.3-0.4-1.9-0.6
			c-0.2-0.1-0.3,0-0.4,0.1c-0.7,0.5-1.4,0.9-2.1,1.4C590.8,105.6,590.3,106,589.8,106.3z M593.3,120.2L593.3,120.2
			C593.3,120.2,593.3,120.2,593.3,120.2c0-3.5,0-6.9-0.1-10.4c0-0.1,0-0.2-0.1-0.3c-0.8-0.7-1.7-1.5-2.5-2.2
			c-0.2-0.2-0.5-0.4-0.7-0.6l0,0C590.9,111.3,592.2,115.8,593.3,120.2z"/>
		<path class="st2" d="M589.3,106.7c0,0.1-0.1,0.2-0.1,0.3c-0.5,1.4-1,2.8-1.5,4.2c-0.1,0.2-0.1,0.3-0.3,0.3
			c-3.3,1.1-6.6,2.4-9.9,3.5c-0.1,0-0.1,0.1-0.2,0C581.2,112.3,585.2,109.5,589.3,106.7z"/>
		<path class="st2" d="M577.9,97.6c3.7,2.9,7.5,5.9,11.3,8.7c-0.1,0.1-0.2,0-0.2,0c-1.4,0-2.9,0-4.3,0c-0.2,0-0.3-0.1-0.4-0.1
			c-2.1-2.8-4.2-5.7-6.3-8.5C577.9,97.7,577.9,97.6,577.9,97.6L577.9,97.6z"/>
		<path class="st2" d="M589.5,106.2c-0.3-1-0.6-1.8-0.8-2.7c-0.1-0.5-0.3-1-0.4-1.4c-0.1-0.1,0-0.2,0-0.3c2-2.9,4.1-5.9,6-8.8
			c0-0.1,0-0.1,0.2-0.2C592.8,97.2,591.1,101.7,589.5,106.2z"/>
		<path class="st2" d="M589.8,106.3c0.5-0.3,1-0.7,1.5-0.9c0.7-0.5,1.4-0.9,2.1-1.4c0.1-0.1,0.3-0.1,0.4-0.1
			c0.7,0.2,1.3,0.4,1.9,0.6c1.3,0.4,2.5,0.7,3.7,1.2c1.2,0.3,2.4,0.8,3.5,1.1c0.3,0.1,0.6,0.2,0.8,0.3
			C599.2,106.8,594.5,106.5,589.8,106.3L589.8,106.3z"/>
		<path class="st2" d="M593.3,120.2c-1.2-4.5-2.4-9-3.6-13.5l0,0c0.2,0.2,0.5,0.4,0.7,0.6c0.8,0.7,1.7,1.5,2.5,2.2
			c0.1,0,0.2,0.2,0.1,0.3c0,3.4,0.1,6.8,0.2,10.3C593.3,120.2,593.3,120.2,593.3,120.2L593.3,120.2z"/>
	</g>
</g>
<g id="Ppxovp.tif_8_" class="st0">
	<g>
		<path class="st1" d="M758.5,417.4c-0.4,5-0.7,10-1.1,14.9c-0.1,0.2,0,0.3,0.3,0.4c2.4,0.7,4.9,1.4,7.3,2c2.3,0.6,4.4,1.2,6.7,1.8
			c0.1,0,0.1,0,0.2,0.1l0,0.1c-0.1,0-0.3,0-0.4,0c-4.7,1.2-9.3,2.4-14,3.6c-0.3,0-0.3,0.2-0.3,0.5c0.2,4.6,0.4,9.4,0.6,14
			c0,0.3,0.1,0.6,0.2,1c-0.1,0-0.2-0.1-0.3-0.2c-0.3-0.7-0.7-1.2-1-1.9c-2.1-3.5-4.2-7.1-6.5-10.6c-0.1-0.2-0.1-0.2-0.1-0.2
			c-0.1,0-0.3,0-0.4,0c-4.6,1.8-9.2,3.5-13.9,5.3l-0.2,0.1l-0.1,0c0-0.1,0.1-0.4,0.3-0.5c3.1-3.8,6.3-7.6,9.3-11.4
			c0-0.1,0-0.1,0.2-0.2c-0.1-0.2-0.1-0.2-0.2-0.2c-2.7-3.4-5.4-6.9-8.1-10.3c-0.4-0.4-0.7-0.8-1.1-1.3l0-0.1
			c0.4,0.1,0.9,0.3,1.2,0.4c1.4,0.6,2.8,1.1,4.3,1.7c1.8,0.7,3.5,1.5,5.3,2.2c1,0.5,2.1,0.8,3,1.3c0.1,0,0.2,0.1,0.3-0.2
			c2.7-4.2,5.4-8.4,8.2-12.6l0,0C758.3,417.4,758.5,417.4,758.5,417.4z M751.8,436.8c-5.3,3.8-10.4,7.5-15.5,11.3c0.1,0,0.3,0,0.3,0
			c4.3-1.6,8.6-3.3,12.8-4.9c0.2-0.1,0.3-0.2,0.4-0.4c0.6-1.9,1.2-3.7,1.9-5.6C751.7,437.1,751.8,437,751.8,436.8z M736.5,425.2
			L736.5,425.2c0,0.1,0.1,0.2,0.1,0.2c2.8,3.6,5.7,7.2,8.5,10.8c0.1,0.2,0.3,0.2,0.5,0.2c1.8-0.1,3.8-0.1,5.6-0.2
			c0.1,0,0.2-0.1,0.3,0C746.6,432.5,741.6,428.9,736.5,425.2z M752.1,436.1c2-6,4-11.9,5.9-17.7c0,0.1-0.2,0.1-0.2,0.2
			c-2.5,3.8-5.1,7.8-7.5,11.7c0,0.1-0.1,0.2,0,0.4c0.2,0.6,0.4,1.2,0.6,1.9C751.2,433.6,751.6,434.8,752.1,436.1z M752.4,436.2
			L752.4,436.2c6.2,0.1,12.3,0.3,18.5,0.4c-0.4-0.1-0.7-0.2-1.1-0.4c-1.5-0.4-3.1-0.9-4.7-1.3c-1.7-0.4-3.3-0.8-4.9-1.4
			c-0.9-0.3-1.7-0.4-2.5-0.7c-0.2-0.1-0.4,0-0.6,0.1c-0.9,0.7-1.8,1.2-2.7,1.9C753.7,435.3,753.1,435.8,752.4,436.2z M757.5,454.3
			L757.5,454.3c0-0.1,0-0.1,0-0.1c-0.2-4.5-0.3-8.9-0.6-13.4c0-0.1,0-0.3-0.2-0.3c-1.1-0.9-2.3-1.9-3.3-2.8c-0.3-0.2-0.7-0.5-1-0.7
			l0,0C754.1,442.7,755.9,448.5,757.5,454.3z"/>
		<path class="st2" d="M751.8,436.8c0,0.1-0.1,0.2-0.1,0.4c-0.6,1.9-1.2,3.7-1.9,5.6c-0.1,0.2-0.1,0.4-0.4,0.4
			c-4.3,1.6-8.6,3.3-12.8,4.9c-0.1,0-0.2,0.1-0.3,0C741.4,444.4,746.5,440.6,751.8,436.8z"/>
		<path class="st2" d="M736.5,425.2c5,3.6,10.1,7.4,15.1,11c-0.2,0.1-0.3,0-0.3,0c-1.8,0.1-3.8,0.1-5.6,0.2c-0.3,0-0.4-0.1-0.5-0.2
			c-2.8-3.6-5.7-7.3-8.5-10.8C736.6,425.4,736.7,425.3,736.5,425.2L736.5,425.2z"/>
		<path class="st2" d="M752.1,436.1c-0.4-1.2-0.9-2.4-1.2-3.6c-0.2-0.6-0.4-1.2-0.6-1.9c-0.1-0.2,0-0.3,0-0.4
			c2.5-3.8,5.1-7.8,7.5-11.7c0-0.1,0-0.1,0.2-0.2C756,424.2,754,430.1,752.1,436.1z"/>
		<path class="st2" d="M752.4,436.2c0.7-0.5,1.3-0.9,1.9-1.3c0.9-0.7,1.8-1.2,2.7-1.9c0.2-0.1,0.3-0.2,0.6-0.1
			c0.9,0.3,1.7,0.4,2.5,0.7c1.7,0.4,3.3,0.8,4.9,1.4c1.5,0.4,3.1,0.9,4.7,1.3c0.4,0.1,0.7,0.2,1.1,0.4
			C764.7,436.5,758.6,436.4,752.4,436.2L752.4,436.2z"/>
		<path class="st2" d="M757.5,454.3c-1.8-5.8-3.4-11.6-5.2-17.5l0,0c0.3,0.2,0.7,0.5,1,0.7c1.1,0.9,2.3,1.9,3.3,2.8
			c0.1,0,0.2,0.2,0.2,0.3c0.2,4.5,0.3,8.9,0.6,13.4C757.6,454.2,757.5,454.3,757.5,454.3L757.5,454.3z"/>
	</g>
</g>
<g id="Ppxovp.tif_9_" class="st0">
	<g>
		<path class="st1" d="M1060.6,509.5c1.2,4.3,2.5,8.7,3.6,13c0,0.2,0.1,0.2,0.4,0.2c2.2-0.2,4.6-0.4,6.8-0.5
			c2.1-0.2,4.1-0.3,6.2-0.5c0.1,0,0.1,0,0.2,0l0,0.1c-0.1,0-0.2,0.1-0.4,0.1c-3.6,2.4-7.2,4.9-10.8,7.3c-0.2,0.1-0.2,0.2-0.1,0.5
			c1.6,3.8,3.3,7.8,4.8,11.7c0.1,0.2,0.2,0.5,0.5,0.8c-0.1,0-0.2,0-0.4-0.1c-0.5-0.5-1-0.8-1.4-1.3c-2.9-2.3-5.8-4.7-8.8-7
			c-0.1-0.1-0.1-0.1-0.1-0.1c-0.1,0-0.2,0.1-0.3,0.1c-3.3,2.9-6.7,5.8-10.1,8.7l-0.1,0.1l-0.1,0c0-0.1,0-0.4,0.1-0.5
			c1.4-4.2,3-8.3,4.4-12.5c0-0.1,0-0.1,0.1-0.2c-0.1-0.1-0.1-0.1-0.2-0.1c-3.4-2-6.7-4.2-10.1-6.2c-0.5-0.2-0.8-0.4-1.3-0.8l0-0.1
			c0.4,0,0.8,0,1.2,0c1.4,0.1,2.7,0,4.1,0.1c1.8,0.1,3.4,0.1,5.2,0.2c0.9,0.1,2,0.1,2.9,0.2c0.1,0,0.2,0,0.2-0.2
			c0.9-4.4,2-8.8,3.1-13.2l0,0C1060.5,509.5,1060.6,509.5,1060.6,509.5z M1060.9,528c-3.3,4.8-6.5,9.6-9.6,14.4
			c0.1,0,0.2-0.1,0.2-0.1c3.1-2.7,6.2-5.5,9.3-8.1c0.1-0.1,0.2-0.2,0.2-0.5c0-1.8-0.1-3.5-0.1-5.3
			C1060.9,528.3,1060.9,528.1,1060.9,528z M1044.4,522.9L1044.4,522.9c0,0.1,0.1,0.1,0.1,0.1c3.5,2.1,7.1,4.3,10.5,6.6
			c0.1,0.1,0.4,0.1,0.5,0c1.5-0.6,3.1-1.3,4.7-1.9c0.1,0,0.1-0.1,0.2-0.1C1055.2,525.9,1049.9,524.4,1044.4,522.9z M1060.9,527.3
			c-0.1-5.6-0.3-11.3-0.4-16.8c0,0.1-0.1,0.1-0.1,0.2c-1,4-1.9,8.2-2.7,12.2c0,0.1,0,0.2,0.1,0.4c0.4,0.5,0.7,0.9,1.1,1.4
			C1059.5,525.5,1060.2,526.4,1060.9,527.3z M1061.3,527.3L1061.3,527.3c5.3-1.8,10.5-3.6,15.8-5.4c-0.4,0-0.7,0-1.1,0
			c-1.4,0.2-2.9,0.2-4.3,0.3c-1.5,0.2-3.1,0.3-4.6,0.4c-0.8,0-1.5,0.2-2.4,0.2c-0.2,0-0.3,0.1-0.5,0.2c-0.6,0.8-1.1,1.6-1.7,2.4
			C1062.1,526.1,1061.7,526.7,1061.3,527.3z M1071.2,541.1L1071.2,541.1c0-0.1,0-0.1,0-0.1c-1.5-3.7-3-7.5-4.6-11.2
			c0-0.1-0.1-0.2-0.2-0.2c-1.2-0.4-2.5-0.9-3.7-1.3c-0.4-0.1-0.7-0.2-1.1-0.3l0,0C1064.7,532.3,1068,536.7,1071.2,541.1z"/>
		<path class="st2" d="M1060.9,528c0,0.1,0,0.2,0,0.4c0,1.8,0.1,3.5,0.1,5.3c0,0.2,0,0.4-0.2,0.5c-3.1,2.7-6.2,5.5-9.3,8.1
			c-0.1,0-0.1,0.1-0.2,0.1C1054.5,537.6,1057.6,532.8,1060.9,528z"/>
		<path class="st2" d="M1044.4,522.9c5.3,1.5,10.8,3.1,16.1,4.6c-0.1,0.1-0.2,0.1-0.2,0.1c-1.5,0.6-3.1,1.3-4.7,1.9
			c-0.2,0.1-0.4,0-0.5,0c-3.5-2.1-7.1-4.4-10.5-6.6C1044.5,523,1044.5,522.9,1044.4,522.9L1044.4,522.9z"/>
		<path class="st2" d="M1060.9,527.3c-0.7-0.9-1.5-1.7-2.1-2.7c-0.4-0.5-0.7-0.9-1.1-1.4c-0.1-0.1-0.1-0.2-0.1-0.4
			c1-4,1.9-8.2,2.7-12.2c0-0.1,0-0.1,0.1-0.2C1060.6,516,1060.8,521.7,1060.9,527.3z"/>
		<path class="st2" d="M1061.3,527.3c0.5-0.6,0.8-1.2,1.3-1.7c0.6-0.8,1.1-1.6,1.7-2.4c0.1-0.1,0.2-0.2,0.5-0.2
			c0.8,0,1.5-0.2,2.4-0.2c1.5-0.2,3.1-0.3,4.6-0.4c1.4-0.2,2.9-0.2,4.3-0.3c0.4,0,0.7,0,1.1,0
			C1071.8,523.7,1066.5,525.5,1061.3,527.3L1061.3,527.3z"/>
		<path class="st2" d="M1071.2,541.1c-3.3-4.4-6.5-8.8-9.8-13.2l0,0c0.4,0.1,0.7,0.2,1.1,0.3c1.2,0.4,2.5,0.9,3.7,1.3
			c0.1,0,0.2,0.1,0.2,0.2c1.5,3.7,3,7.5,4.6,11.2C1071.2,541,1071.2,541.1,1071.2,541.1L1071.2,541.1z"/>
	</g>
</g>
<g id="Ppxovp.tif_1_" class="st0">
	<g>
		<path class="st1" d="M324.1,224.3c0.6,2.3,1.2,4.6,1.8,7c0,0.2,0.1,0.2,0.2,0.2c1.2-0.1,2.5-0.2,3.6-0.2c1.1-0.1,2.2-0.2,3.3-0.2
			c0.1,0,0.1,0,0.2,0v0.1c-0.1,0-0.1,0.1-0.2,0.1c-1.9,1.2-3.8,2.5-5.8,3.8c-0.1,0.1-0.2,0.2-0.1,0.2c0.8,2.1,1.6,4.1,2.4,6.3
			c0.1,0.2,0.2,0.3,0.2,0.5c-0.1,0-0.2,0-0.2-0.1c-0.2-0.2-0.5-0.5-0.8-0.7c-1.5-1.3-3-2.5-4.5-3.8c-0.1,0-0.1-0.1-0.1-0.1
			c-0.1,0-0.2,0.1-0.2,0.1c-1.8,1.5-3.7,3-5.4,4.5c0,0,0,0-0.1,0.1h-0.1c0-0.1,0-0.2,0.1-0.2c0.8-2.1,1.7-4.4,2.5-6.5
			c0-0.1,0-0.1,0.1-0.2c-0.1,0-0.1-0.1-0.2-0.1c-1.8-1.2-3.5-2.3-5.3-3.5c-0.2-0.2-0.5-0.3-0.7-0.4V231c0.2,0,0.4,0,0.6,0
			c0.7,0.1,1.5,0.1,2.1,0.2c0.9,0.1,1.8,0.2,2.8,0.2c0.5,0,1.1,0.1,1.5,0.1c0.1,0,0.2,0,0.2-0.1c0.6-2.3,1.2-4.6,1.8-7l0,0
			C324,224.3,324.1,224.3,324.1,224.3z M324,234.1c-1.8,2.5-3.5,5-5.3,7.5c0.1,0,0.1,0,0.2-0.1c1.7-1.4,3.4-2.8,5.1-4.2
			c0.1-0.1,0.1-0.2,0.1-0.2c0-0.9,0-1.8,0-2.8C324,234.2,324,234.2,324,234.1z M315.3,231.1L315.3,231.1
			C315.3,231.2,315.4,231.2,315.3,231.1c1.9,1.3,3.8,2.5,5.6,3.7c0.1,0.1,0.2,0.1,0.2,0c0.8-0.3,1.7-0.6,2.5-0.9
			c0.1,0,0.1,0,0.2-0.1C321,232.9,318.2,232.1,315.3,231.1z M324,233.7c0-3,0-6,0-9l-0.1,0.1c-0.5,2.1-1.1,4.3-1.7,6.4
			c0,0.1,0,0.2,0.1,0.2c0.2,0.2,0.4,0.5,0.6,0.8C323.3,232.8,323.6,233.2,324,233.7z M324.2,233.7L324.2,233.7
			c2.8-0.8,5.6-1.8,8.4-2.6c-0.2,0-0.4,0-0.5,0c-0.8,0.1-1.5,0.1-2.4,0.2s-1.6,0.1-2.5,0.2c-0.4,0-0.8,0.1-1.2,0.1
			c-0.1,0-0.2,0.1-0.2,0.2c-0.3,0.4-0.6,0.8-0.9,1.2C324.7,233.1,324.5,233.4,324.2,233.7z M329.3,241.2L329.3,241.2L329.3,241.2
			c-0.8-2.1-1.5-4.1-2.3-6.1c0-0.1-0.1-0.2-0.2-0.2c-0.6-0.2-1.3-0.5-1.9-0.8c-0.2-0.1-0.4-0.2-0.5-0.2l0,0
			C326,236.4,327.6,238.8,329.3,241.2z"/>
		<path class="st2" d="M324,234.1c0,0.1,0,0.2,0,0.2c0,0.9,0,1.8,0,2.8c0,0.1,0,0.2-0.1,0.2c-1.7,1.4-3.4,2.8-5.1,4.2
			c0,0-0.1,0.1-0.2,0.1C320.5,239.1,322.2,236.6,324,234.1z"/>
		<path class="st2" d="M315.3,231.1c2.8,0.9,5.7,1.8,8.5,2.7c-0.1,0-0.1,0.1-0.2,0.1c-0.8,0.3-1.7,0.6-2.5,0.9c-0.1,0-0.2,0-0.2,0
			C319.1,233.6,317.2,232.4,315.3,231.1C315.4,231.2,315.4,231.2,315.3,231.1L315.3,231.1z"/>
		<path class="st2" d="M324,233.7c-0.4-0.5-0.8-1-1.1-1.5c-0.2-0.2-0.4-0.5-0.6-0.8c0-0.1-0.1-0.2-0.1-0.2c0.5-2.1,1.1-4.3,1.7-6.4
			c0,0,0-0.1,0.1-0.1C324,227.8,324,230.7,324,233.7z"/>
		<path class="st2" d="M324.2,233.7c0.2-0.3,0.5-0.6,0.7-0.9c0.3-0.4,0.6-0.8,0.9-1.2c0.1-0.1,0.2-0.2,0.2-0.2
			c0.4,0,0.8-0.1,1.2-0.1c0.8-0.1,1.6-0.1,2.5-0.2c0.8-0.1,1.5-0.1,2.4-0.2c0.2,0,0.4,0,0.5,0C329.8,232,327.1,232.9,324.2,233.7
			L324.2,233.7z"/>
		<path class="st2" d="M329.3,241.2c-1.7-2.4-3.3-4.8-5-7.1l0,0c0.2,0.1,0.4,0.2,0.5,0.2c0.6,0.2,1.3,0.5,1.9,0.8
			c0.1,0,0.2,0.1,0.2,0.2C327.7,237.2,328.4,239.2,329.3,241.2C329.3,241.1,329.3,241.1,329.3,241.2L329.3,241.2z"/>
	</g>
</g>
<g id="Ppxovp.tif_7_" class="st0">
	<g>
		<path class="st1" d="M325.4,326.7c1.8,3.2,3.5,6.4,5.4,9.7c0.1,0.2,0.2,0.2,0.3,0.2c1.8-0.6,3.6-1.2,5.3-1.8
			c1.6-0.5,3.3-1.1,4.8-1.6c0.1,0,0.1,0,0.2-0.1l0,0.1c-0.1,0-0.1,0.1-0.2,0.2c-2.4,2.6-4.7,5.3-7.1,7.9c-0.1,0.1-0.2,0.3,0,0.4
			c2,2.8,4,5.6,6,8.5c0.2,0.2,0.4,0.4,0.5,0.6c-0.1,0-0.2,0.1-0.4,0c-0.4-0.3-1-0.5-1.4-0.7c-2.8-1.3-5.5-2.6-8.3-4
			c-0.1,0-0.1-0.1-0.1-0.1c-0.1,0-0.2,0.2-0.2,0.2c-2.1,3-4.3,5.9-6.4,8.9c0,0,0,0-0.1,0.1l-0.1,0c0-0.1-0.1-0.2,0-0.4
			c0.4-3.5,0.8-7.2,1.2-10.7c0-0.1,0-0.1,0.1-0.3c-0.1,0-0.1-0.1-0.3-0.1c-3.1-1-6.2-2.1-9.3-3.1c-0.4-0.1-0.8-0.3-1.2-0.3l0-0.1
			c0.3-0.1,0.6-0.2,0.9-0.2c1.1-0.2,2.2-0.5,3.3-0.6c1.4-0.2,2.8-0.5,4.2-0.9c0.8-0.2,1.6-0.3,2.3-0.5c0.1,0,0.2-0.1,0.2-0.2
			c0-3.7,0-7.4-0.1-11.1l0,0C325.3,326.7,325.4,326.7,325.4,326.7z M329.2,341.3c-1.6,4.5-3.3,8.8-5,13.3c0.1,0,0.1,0,0.2-0.2
			c2-2.7,4-5.5,5.9-8.3c0.1-0.1,0.1-0.3,0-0.4c-0.4-1.4-0.7-2.8-1.1-4.2C329.2,341.5,329.2,341.5,329.2,341.3z M315.1,340.3
			L315.1,340.3c0,0.1,0.1,0.1,0.1,0.1c3.2,1.1,6.4,2.1,9.7,3.2c0.1,0.1,0.3,0.1,0.3-0.1c1.1-0.8,2.3-1.6,3.4-2.4
			c0.1,0,0.1,0,0.2-0.2C324.2,340.8,319.7,340.6,315.1,340.3z M329,340.8c-1.2-4.5-2.4-8.9-3.5-13.4l-0.1,0.1c0,3.4,0.1,6.8,0,10.3
			c0,0.1,0.1,0.2,0.2,0.3c0.3,0.3,0.8,0.7,1.2,0.9C327.6,339.6,328.3,340.2,329,340.8z M329.4,340.7L329.4,340.7
			c3.9-2.4,7.7-4.8,11.6-7.2c-0.2,0.1-0.6,0.2-0.8,0.2c-1.1,0.4-2.3,0.7-3.5,1.2c-1.2,0.4-2.4,0.7-3.6,1.2c-0.6,0.2-1.2,0.4-1.8,0.6
			c-0.1,0-0.2,0.2-0.3,0.3c-0.3,0.7-0.6,1.5-0.9,2.2C329.8,339.6,329.6,340.2,329.4,340.7z M339.9,349.9L339.9,349.9l0-0.1
			c-1.9-2.7-3.9-5.4-5.8-8c0-0.1-0.2-0.2-0.3-0.2c-1-0.1-2.1-0.2-3.2-0.4c-0.3-0.1-0.6-0.1-0.9-0.1l0,0
			C333.1,344.1,336.4,347,339.9,349.9z"/>
		<path class="st2" d="M329.2,341.3c0,0.1,0.1,0.2,0.1,0.2c0.4,1.4,0.7,2.8,1.1,4.2c0,0.1,0.1,0.2,0,0.4c-2,2.7-4,5.5-5.9,8.3
			c0,0-0.1,0.1-0.2,0.2C325.9,350.2,327.5,345.8,329.2,341.3z"/>
		<path class="st2" d="M315.1,340.3c4.6,0.3,9.2,0.5,13.8,0.7c-0.1,0-0.1,0.1-0.2,0.2c-1.1,0.8-2.3,1.6-3.4,2.4
			c-0.1,0-0.2,0.1-0.3,0.1c-3.2-1.1-6.4-2.1-9.7-3.2C315.2,340.4,315.2,340.4,315.1,340.3L315.1,340.3z"/>
		<path class="st2" d="M329,340.8c-0.8-0.5-1.5-1.2-2.2-1.8c-0.4-0.3-0.8-0.7-1.2-0.9c0-0.1-0.2-0.2-0.2-0.3c0-3.4-0.1-6.8,0-10.3
			c0,0,0-0.1,0.1-0.1C326.7,331.9,327.8,336.2,329,340.8z"/>
		<path class="st2" d="M329.4,340.7c0.2-0.5,0.4-1.1,0.7-1.6c0.3-0.7,0.6-1.5,0.9-2.2c0.1-0.1,0.2-0.3,0.3-0.3
			c0.6-0.2,1.2-0.4,1.8-0.6c1.2-0.4,2.4-0.7,3.6-1.2c1.1-0.4,2.3-0.7,3.5-1.2c0.2-0.1,0.6-0.2,0.8-0.2
			C337.1,335.9,333.3,338.4,329.4,340.7L329.4,340.7z"/>
		<path class="st2" d="M339.9,349.9c-3.5-2.9-6.8-5.8-10.3-8.7l0,0c0.3,0.1,0.6,0.1,0.9,0.1c1,0.1,2.1,0.2,3.2,0.4
			c0.1,0,0.3,0.1,0.3,0.2c1.9,2.7,3.9,5.4,5.8,8C339.8,349.8,339.8,349.8,339.9,349.9L339.9,349.9z"/>
	</g>
</g>
<g id="Ppxovp.tif_2_" class="st0">
	<g>
		<path class="st1" d="M68.8,425.7c5.1,5,10.2,10,15.4,15.1c0.2,0.2,0.3,0.2,0.7,0.1c2.9-2,6-4.1,9-6.1c2.7-1.8,5.4-3.8,8.1-5.6
			c0.1,0,0.3-0.1,0.4-0.1l0,0.1c-0.1,0.2-0.2,0.3-0.3,0.5c-3,6.2-6,12.5-9,18.7c-0.2,0.3-0.1,0.5,0.2,0.8
			c5.2,4.1,10.6,8.2,15.9,12.4c0.4,0.3,0.9,0.5,1.4,0.7c-0.3,0.1-0.4,0.1-0.5,0.2c-1-0.1-2-0.4-3-0.6c-5.8-0.9-11.7-1.9-17.6-2.7
			c-0.2-0.1-0.3-0.1-0.3-0.1c-0.1,0.2-0.2,0.3-0.3,0.5c-2.4,6.7-4.7,13.4-7,20.1l-0.1,0.2l-0.1,0c-0.1-0.3-0.3-0.5-0.2-0.8
			c-1.2-6.9-2.5-13.8-3.7-20.7c0-0.1-0.1-0.3-0.1-0.4c-0.1,0-0.3-0.1-0.4,0c-6.3-0.2-12.5-0.5-18.9-0.7c-0.7-0.1-1.6-0.1-2.3,0
			l0-0.1c0.5-0.3,1.1-0.6,1.6-0.9c2-1,3.8-2,5.8-3c2.4-1.3,4.9-2.5,7.4-3.8c1.4-0.7,2.8-1.4,4.2-2.1c0.3-0.1,0.4-0.2,0.3-0.5
			c-2.1-6.9-4.2-13.7-6.3-20.6c0,0,0,0,0-0.1C68.6,425.7,68.6,425.7,68.8,425.7z M83.7,450.9c-0.6,9.2-1.2,18.3-2,27.4
			c0.1-0.2,0.2-0.2,0.3-0.4c2.2-6.2,4.3-12.4,6.6-18.7c0.1-0.3,0.1-0.5-0.1-0.7c-1.4-2.4-2.9-4.8-4.3-7.2
			C84,451.3,83.9,451.1,83.7,450.9z M57,456.8C57,456.8,57,456.9,57,456.8c0.2,0.1,0.3,0.1,0.3,0.1c6.6,0.3,13.1,0.4,19.7,0.7
			c0.3,0.1,0.5-0.2,0.6-0.3c1.6-2.1,3.4-4.3,5-6.4c0.1-0.2,0.1-0.2,0.3-0.4C74.3,452.7,65.6,454.7,57,456.8z M83.2,450.1
			c-4.6-7.7-9.3-15.4-14-23c0,0.1-0.1,0.3,0,0.4c1.9,6.4,3.9,12.8,5.8,19.2c0,0.1,0.2,0.4,0.4,0.4c0.9,0.5,1.8,0.7,2.7,1
			C79.8,448.7,81.4,449.3,83.2,450.1z M83.8,449.8L83.8,449.8c6-6.5,11.7-13.1,17.5-19.7c-0.5,0.3-1,0.6-1.4,0.9
			c-1.9,1.3-3.9,2.6-5.8,3.9c-2,1.3-4,2.8-6,4.1c-1.1,0.7-2.1,1.5-3.1,2.1c-0.2,0.2-0.3,0.4-0.4,0.7c-0.1,1.6-0.3,3.1-0.4,4.7
			C83.9,447.4,83.9,448.6,83.8,449.8z M108.3,461L108.3,461c0-0.1,0-0.1-0.1-0.3c-5-3.9-10.1-7.9-15.1-11.8
			c-0.2-0.1-0.5-0.1-0.6-0.1c-2,0.3-4.1,0.7-6.1,1.1c-0.6,0-1.2,0.2-1.8,0.3c0,0,0,0,0,0.1C92.4,453.8,100.4,457.4,108.3,461z"/>
		<path class="st2" d="M83.7,450.9c0.2,0.2,0.2,0.4,0.3,0.5c1.4,2.4,2.9,4.8,4.3,7.2c0.2,0.2,0.2,0.5,0.1,0.7
			c-2.2,6.2-4.3,12.4-6.6,18.7c-0.1,0.2-0.1,0.3-0.3,0.4C82.5,469.3,83.1,460.2,83.7,450.9z"/>
		<path class="st2" d="M57,456.8c8.6-2.1,17.4-4.2,26.2-6.3c-0.1,0.2-0.2,0.3-0.3,0.4c-1.6,2.1-3.4,4.3-5,6.4
			c-0.2,0.2-0.3,0.4-0.6,0.3c-6.6-0.3-13.1-0.4-19.7-0.7C57.2,456.9,57,456.9,57,456.8C57,456.9,57,456.8,57,456.8z"/>
		<path class="st2" d="M83.2,450.1c-1.8-0.7-3.4-1.4-5-2c-0.9-0.3-1.8-0.7-2.7-1c-0.2-0.1-0.4-0.3-0.4-0.4
			c-1.9-6.4-3.9-12.8-5.8-19.2c0-0.1-0.1-0.3,0-0.4C73.9,434.7,78.5,442.2,83.2,450.1z"/>
		<path class="st2" d="M83.8,449.8c0.1-1.2,0.2-2.2,0.3-3.4c0.1-1.6,0.3-3.1,0.4-4.7c0.1-0.3,0.1-0.5,0.4-0.7
			c1.1-0.7,2.1-1.5,3.1-2.1c2-1.3,4-2.8,6-4.1c1.9-1.3,3.9-2.6,5.8-3.9c0.5-0.3,1-0.6,1.4-0.9C95.4,436.5,89.6,443.1,83.8,449.8
			L83.8,449.8z"/>
		<path class="st2" d="M108.3,461c-7.9-3.6-15.9-7-23.9-10.5c0,0,0,0,0-0.1c0.6,0,1.2-0.2,1.8-0.3c2-0.3,4-0.8,6.1-1.1
			c0.1,0,0.4,0,0.6,0.1c5,3.9,10.1,7.9,15.1,11.8C108.3,460.8,108.3,460.8,108.3,461L108.3,461z"/>
	</g>
</g>
<g id="Ppxovp.tif_3_" class="st0">
	<g>
		<path class="st1" d="M1109.3,0c0.4,5.9,0.9,11.9,1.2,17.9c0,0.3,0.2,0.4,0.4,0.4c3,0.3,6,0.8,9,1.1c2.7,0.4,5.5,0.7,8.1,1
			c0.1,0,0.2,0,0.3,0.1l0,0.1c-0.1,0.1-0.2,0.1-0.5,0.1c-5.2,2.2-10.6,4.5-15.8,6.7c-0.3,0.2-0.4,0.3-0.3,0.5c1,5.5,2.1,11,3.1,16.4
			c0,0.3,0.2,0.7,0.5,1.2c-0.2-0.1-0.4-0.2-0.4-0.2c-0.6-0.7-1-1.4-1.6-2c-3.1-3.8-6.3-7.6-9.4-11.4c-0.1-0.1-0.2-0.3-0.2-0.1
			c-0.1,0.1-0.3,0-0.5,0.1c-5.1,2.9-10.3,5.8-15.4,8.7l-0.1,0.1l-0.1,0c0-0.2,0.1-0.4,0.2-0.6c3-5,6.1-9.9,9.1-15
			c0-0.1,0.1-0.2,0.2-0.3c-0.1-0.1-0.2-0.1-0.3-0.3c-3.8-3.6-7.6-7.2-11.4-10.7c-0.5-0.4-1-0.9-1.5-1.3l0-0.1c0.5,0.1,1,0.2,1.5,0.3
			c1.7,0.4,3.6,0.9,5.3,1.3c2.3,0.5,4.4,1.1,6.7,1.7c1.3,0.3,2.6,0.6,3.8,0.9c0.2,0,0.3,0.1,0.4-0.2c2.4-5.4,5-10.8,7.5-16.3
			c0,0,0,0,0-0.1C1109.1,0,1109.2,0,1109.3,0z M1104.7,24c-5.5,5.4-11,10.7-16.3,16c0.1,0,0.2-0.1,0.4-0.2c4.8-2.6,9.5-5.4,14.3-8
			c0.2-0.1,0.3-0.3,0.3-0.5c0.4-2.3,0.8-4.6,1.3-6.9C1104.6,24.3,1104.7,24.2,1104.7,24z M1084.8,12.9L1084.8,12.9
			c0.1,0.1,0.1,0.2,0.2,0.3c3.9,3.8,8,7.5,11.9,11.3c0.2,0.1,0.4,0.2,0.6,0.2c2.2-0.4,4.4-0.8,6.6-1.2c0.1,0,0.2-0.1,0.4-0.2
			C1097.8,19.9,1091.3,16.4,1084.8,12.9z M1104.9,23.1c1.3-7.4,2.7-14.7,4-22c-0.1,0.1-0.1,0.2-0.1,0.2c-2.3,5-4.6,10.1-6.9,15.1
			c0,0.1-0.1,0.3,0,0.6c0.3,0.7,0.7,1.5,1.1,2.1C1103.4,20.4,1104.1,21.7,1104.9,23.1z M1105.3,23.2
			C1105.4,23.2,1105.4,23.3,1105.3,23.2c7.3-0.8,14.6-1.7,21.9-2.7c-0.4-0.1-0.9-0.2-1.3-0.2c-2-0.2-3.9-0.5-5.8-0.7
			c-2-0.2-4.1-0.5-6-0.8c-1-0.1-2.1-0.3-3.1-0.3c-0.2,0-0.5,0-0.6,0.2c-0.9,0.8-1.9,1.8-2.8,2.6C1106.6,22,1106,22.6,1105.3,23.2z
			 M1114.5,43.7L1114.5,43.7c0-0.1,0-0.1,0-0.2c-1-5.2-1.9-10.5-2.9-15.7c-0.1-0.1-0.2-0.4-0.3-0.4c-1.5-1-2.9-1.8-4.5-2.7
			c-0.4-0.3-0.9-0.5-1.3-0.8c0,0,0,0-0.1,0.1C1108.4,30.6,1111.4,37.1,1114.5,43.7z"/>
		<path class="st2" d="M1104.7,24c0,0.2-0.1,0.3-0.1,0.4c-0.4,2.3-0.8,4.6-1.3,6.9c0,0.2-0.2,0.4-0.3,0.5c-4.8,2.6-9.5,5.4-14.3,8
			c-0.1,0.1-0.2,0.1-0.4,0.2C1093.7,34.7,1099.2,29.4,1104.7,24z"/>
		<path class="st2" d="M1084.8,12.9c6.6,3.4,13.1,7,19.7,10.5c-0.1,0.1-0.2,0.1-0.4,0.2c-2.2,0.4-4.4,0.8-6.6,1.2
			c-0.2,0.1-0.5,0-0.6-0.2c-3.9-3.8-8-7.5-11.9-11.3C1084.9,13,1084.7,13,1084.8,12.9L1084.8,12.9z"/>
		<path class="st2" d="M1104.9,23.1c-0.8-1.4-1.3-2.7-2-4c-0.3-0.7-0.7-1.5-1.1-2.1c-0.1-0.1,0-0.3,0-0.6c2.3-5,4.6-10.1,6.9-15.1
			c0-0.1,0.1-0.2,0.1-0.2C1107.5,8.4,1106.2,15.7,1104.9,23.1z"/>
		<path class="st2" d="M1105.3,23.2c0.7-0.7,1.3-1.2,2-1.9c0.9-0.8,1.9-1.8,2.8-2.6c0.1-0.2,0.4-0.3,0.6-0.2c1,0.2,2.1,0.3,3.1,0.3
			c2,0.2,4.1,0.5,6,0.8c2,0.2,3.9,0.5,5.8,0.7c0.4,0.1,0.9,0.2,1.3,0.2C1119.9,21.4,1112.6,22.4,1105.3,23.2
			C1105.4,23.3,1105.4,23.2,1105.3,23.2z"/>
		<path class="st2" d="M1114.5,43.7c-3-6.6-6-13.1-9-19.8c0,0,0,0,0.1-0.1c0.4,0.3,0.9,0.5,1.3,0.8c1.5,1,2.9,1.8,4.5,2.7
			c0.1,0.1,0.3,0.3,0.3,0.4c1,5.2,1.9,10.5,2.9,15.7C1114.5,43.6,1114.5,43.6,1114.5,43.7L1114.5,43.7z"/>
	</g>
</g>
<g id="Ppxovp.tif_4_" class="st0">
	<g>
		<path class="st1" d="M1105.1,686.4c0.8,3.2,1.7,6.6,2.5,9.8c0.1,0.2,0.1,0.2,0.3,0.2c1.7-0.1,3.4-0.2,5.2-0.3
			c1.6-0.1,3.1-0.2,4.6-0.3c0.1,0,0.1,0,0.2,0c0,0.1,0,0.1,0,0.1c-0.1,0.1-0.2,0.1-0.2,0.1c-2.7,1.8-5.4,3.6-8.2,5.3
			c-0.2,0.1-0.2,0.2-0.1,0.3c1.1,3,2.2,5.9,3.4,8.8c0.1,0.2,0.2,0.4,0.3,0.6c-0.1-0.1-0.2-0.1-0.3-0.1c-0.3-0.3-0.7-0.7-1.1-1
			c-2.1-1.8-4.3-3.6-6.4-5.4c-0.1-0.1-0.1-0.1-0.1-0.1c-0.1,0.1-0.2,0.1-0.2,0.1c-2.6,2.1-5.2,4.3-7.7,6.4l-0.1,0.1
			c-0.1,0-0.1,0-0.1,0c0-0.1,0-0.3,0.1-0.4c1.2-3.1,2.4-6.2,3.5-9.2c0-0.1,0.1-0.1,0.1-0.2c-0.1-0.1-0.1-0.1-0.2-0.1
			c-2.5-1.6-4.9-3.2-7.4-4.9c-0.3-0.2-0.6-0.4-1-0.6c0-0.1,0-0.1,0-0.1c0.3,0,0.6,0,0.9,0c1,0.1,2.1,0.1,3.1,0.2
			c1.3,0.1,2.6,0.2,3.9,0.2c0.7,0.1,1.5,0.1,2.2,0.2c0.1,0,0.2,0,0.2-0.2c0.8-3.2,1.7-6.6,2.5-9.8v-0.1
			C1105,686.4,1105,686.4,1105.1,686.4z M1104.9,700.2c-2.5,3.6-5,7.1-7.5,10.6c0.1,0,0.1-0.1,0.2-0.1c2.4-2,4.8-3.9,7.2-5.9
			c0.1-0.1,0.2-0.2,0.2-0.3c0-1.3,0-2.6,0-4C1105,700.4,1104.9,700.3,1104.9,700.2z M1092.7,696L1092.7,696c0.1,0.1,0.1,0.1,0.1,0.1
			c2.6,1.7,5.2,3.4,7.8,5.1c0.1,0.1,0.2,0.1,0.3,0.1c1.2-0.4,2.4-0.9,3.6-1.3c0.1,0,0.1-0.1,0.2-0.1
			C1100.7,698.6,1096.8,697.3,1092.7,696z M1104.9,699.7c0-4.3,0-8.5,0-12.7c-0.1,0.1-0.1,0.1-0.1,0.2c-0.8,3-1.6,6-2.4,9.1
			c0,0.1,0,0.2,0.1,0.3c0.3,0.4,0.6,0.7,0.8,1.1C1103.9,698.3,1104.4,699,1104.9,699.7z M1105.3,699.7
			C1105.3,699.7,1105.3,699.7,1105.3,699.7c4-1.2,8-2.5,11.9-3.7c-0.3-0.1-0.5,0-0.8,0c-1.1,0.1-2.2,0.1-3.3,0.2
			c-1.2,0.1-2.3,0.1-3.5,0.2c-0.6,0.1-1.2,0.1-1.8,0.1c-0.2,0-0.2,0.1-0.3,0.2c-0.4,0.6-0.9,1.2-1.3,1.7
			C1105.9,698.8,1105.5,699.3,1105.3,699.7z M1112.4,710.2C1112.4,710.2,1112.4,710.2,1112.4,710.2c0-0.1,0-0.1,0-0.1
			c-1.1-2.8-2.1-5.7-3.2-8.5c-0.1-0.1-0.1-0.2-0.2-0.2c-0.9-0.3-1.8-0.7-2.7-1.1c-0.3-0.1-0.6-0.2-0.8-0.3c0,0,0,0-0.1,0.1
			C1107.7,703.5,1110,706.8,1112.4,710.2z"/>
		<path class="st2" d="M1104.9,700.2c0,0.1,0,0.2,0,0.3c0,1.3,0,2.6,0,4c0,0.1-0.1,0.2-0.2,0.3c-2.4,2-4.8,3.9-7.2,5.9
			c-0.1,0.1-0.1,0.1-0.2,0.1C1100,707.2,1102.4,703.7,1104.9,700.2z"/>
		<path class="st2" d="M1092.7,696c4,1.3,8,2.5,12,3.8c-0.1,0.1-0.2,0.1-0.2,0.1c-1.2,0.4-2.4,0.9-3.6,1.3c-0.1,0.1-0.2,0.1-0.3-0.1
			c-2.6-1.7-5.2-3.4-7.8-5.1C1092.8,696.1,1092.8,696.1,1092.7,696L1092.7,696z"/>
		<path class="st2" d="M1104.9,699.7c-0.6-0.7-1-1.3-1.5-2c-0.3-0.3-0.6-0.7-0.8-1.1c-0.1-0.1-0.1-0.2-0.1-0.3c0.8-3,1.6-6,2.4-9.1
			c0-0.1,0.1-0.1,0.1-0.2C1104.9,691.2,1104.9,695.4,1104.9,699.7z"/>
		<path class="st2" d="M1105.3,699.7c0.3-0.4,0.6-0.8,1-1.3c0.4-0.6,0.9-1.2,1.3-1.7c0.1-0.1,0.2-0.2,0.3-0.2
			c0.6-0.1,1.2-0.1,1.8-0.1c1.2-0.1,2.3-0.1,3.5-0.2c1.1-0.1,2.2-0.1,3.3-0.2c0.3,0,0.5-0.1,0.8,0
			C1113.2,697.2,1109.2,698.5,1105.3,699.7C1105.3,699.7,1105.3,699.7,1105.3,699.7z"/>
		<path class="st2" d="M1112.4,710.2c-2.4-3.4-4.7-6.7-7-10.1c0,0,0,0,0.1-0.1c0.3,0.1,0.6,0.2,0.8,0.3c0.9,0.3,1.8,0.7,2.7,1.1
			c0.1,0.1,0.2,0.1,0.2,0.2c1.1,2.8,2.1,5.7,3.2,8.5C1112.4,710.1,1112.4,710.1,1112.4,710.2
			C1112.4,710.2,1112.4,710.2,1112.4,710.2z"/>
	</g>
</g>
<g id="Ppxovp.tif_6_" class="st0">
	<g>
		<path class="st1" d="M1105.4,685.8c0.9,3.5,1.8,6.9,2.7,10.4c0,0.2,0.1,0.2,0.3,0.2c1.8-0.1,3.6-0.2,5.4-0.3
			c1.6-0.1,3.3-0.2,4.9-0.3c0.1,0,0.1,0,0.2,0v0.1c-0.1,0-0.2,0.1-0.2,0.1c-2.9,1.9-5.8,3.8-8.7,5.7c-0.2,0.1-0.2,0.2-0.1,0.4
			c1.2,3.1,2.4,6.2,3.6,9.4c0.1,0.2,0.2,0.4,0.4,0.7c-0.1,0-0.2,0-0.3-0.1c-0.4-0.3-0.7-0.7-1.1-1c-2.3-1.9-4.5-3.8-6.8-5.7
			c-0.1-0.1-0.1-0.1-0.1-0.1c-0.1,0-0.2,0.1-0.3,0.1c-2.7,2.2-5.5,4.5-8.2,6.8l-0.1,0.1h-0.1c0-0.1,0-0.3,0.1-0.4
			c1.3-3.3,2.5-6.5,3.8-9.8c0-0.1,0-0.1,0.1-0.2c-0.1-0.1-0.1-0.1-0.2-0.1c-2.6-1.7-5.3-3.4-7.9-5.1c-0.3-0.2-0.7-0.4-1-0.6V696
			c0.3,0,0.6,0,0.9,0c1.1,0.1,2.2,0.1,3.3,0.2c1.4,0.1,2.7,0.2,4.1,0.3c0.8,0,1.6,0.1,2.4,0.1c0.1,0,0.2,0,0.2-0.1
			c0.9-3.5,1.8-6.9,2.7-10.4l0,0C1105.3,685.8,1105.4,685.8,1105.4,685.8z M1105.3,700.4c-2.7,3.8-5.3,7.5-7.9,11.2
			c0.1,0,0.1-0.1,0.2-0.1c2.5-2.1,5.1-4.2,7.6-6.3c0.1-0.1,0.2-0.2,0.2-0.3c0-1.4,0-2.8,0-4.2
			C1105.3,700.7,1105.3,700.6,1105.3,700.4z M1092.3,696C1092.3,696.1,1092.3,696.1,1092.3,696
			C1092.3,696.1,1092.4,696.1,1092.3,696c2.9,1.9,5.6,3.7,8.4,5.5c0.1,0.1,0.2,0.1,0.4,0c1.3-0.5,2.5-0.9,3.8-1.4
			c0.1,0,0.1-0.1,0.2-0.1C1100.8,698.7,1096.6,697.4,1092.3,696z M1105.3,699.9c0-4.5,0-9,0-13.4c0,0-0.1,0.1-0.1,0.2
			c-0.8,3.2-1.7,6.4-2.5,9.7c0,0.1,0,0.2,0.1,0.3c0.3,0.4,0.6,0.8,0.9,1.2C1104.2,698.5,1104.7,699.2,1105.3,699.9z M1105.6,699.9
			L1105.6,699.9c4.2-1.3,8.4-2.6,12.6-3.9c-0.3,0-0.6,0-0.8,0c-1.2,0.1-2.3,0.1-3.5,0.2c-1.2,0.1-2.4,0.1-3.7,0.2
			c-0.6,0-1.3,0.1-1.9,0.1c-0.2,0-0.3,0.1-0.4,0.2c-0.5,0.6-0.9,1.2-1.4,1.9C1106.2,699,1105.9,699.5,1105.6,699.9z M1113.2,711.1
			C1113.2,711.1,1113.2,711,1113.2,711.1C1113.2,711,1113.2,711,1113.2,711.1c-1.1-3.1-2.3-6.1-3.4-9.1c0-0.1-0.1-0.2-0.2-0.2
			c-1-0.4-1.9-0.7-2.9-1.1c-0.3-0.1-0.6-0.2-0.9-0.3l0,0C1108.2,703.9,1110.7,707.5,1113.2,711.1z"/>
		<path class="st2" d="M1105.3,700.4c0,0.1,0,0.2,0,0.3c0,1.4,0,2.8,0,4.2c0,0.1,0,0.2-0.2,0.3c-2.5,2.1-5.1,4.2-7.6,6.3
			c-0.1,0-0.1,0.1-0.2,0.1C1100,707.9,1102.6,704.2,1105.3,700.4z"/>
		<path class="st2" d="M1092.3,696c4.2,1.3,8.5,2.7,12.8,4.1c-0.1,0-0.2,0.1-0.2,0.1c-1.3,0.5-2.5,0.9-3.8,1.4c-0.1,0.1-0.2,0-0.4,0
			c-2.7-1.8-5.5-3.6-8.3-5.4C1092.4,696.1,1092.4,696.1,1092.3,696C1092.3,696.1,1092.3,696.1,1092.3,696z"/>
		<path class="st2" d="M1105.3,699.9c-0.6-0.7-1.1-1.4-1.6-2.1c-0.3-0.4-0.6-0.8-0.9-1.2c-0.1-0.1-0.1-0.2-0.1-0.3
			c0.8-3.2,1.6-6.4,2.5-9.7c0-0.1,0-0.1,0.1-0.2C1105.3,690.9,1105.3,695.4,1105.3,699.9z"/>
		<path class="st2" d="M1105.6,699.9c0.3-0.4,0.7-0.9,1-1.3c0.5-0.6,0.9-1.2,1.4-1.9c0.1-0.1,0.2-0.2,0.4-0.2c0.6,0,1.3-0.1,1.9-0.1
			c1.2-0.1,2.4-0.1,3.7-0.2c1.2-0.1,2.3-0.1,3.5-0.2c0.3,0,0.5,0,0.8,0C1114,697.3,1109.8,698.6,1105.6,699.9L1105.6,699.9z"/>
		<path class="st2" d="M1113.2,711.1c-2.5-3.6-5-7.1-7.5-10.7l0,0c0.3,0.1,0.6,0.2,0.9,0.3c1,0.4,1.9,0.7,2.9,1.1
			c0.1,0,0.2,0.1,0.2,0.2c1.1,3,2.3,6,3.4,9C1113.2,711,1113.2,711,1113.2,711.1C1113.2,711,1113.2,711.1,1113.2,711.1z"/>
	</g>
</g>
<g id="Ppxovp.tif_5_" class="st0">
	<g>
		<path class="st1" d="M1446.4,158.1c0.3,3.3,0.5,6.6,0.9,9.9c0,0.2,0.1,0.2,0.3,0.2c1.7,0.2,3.4,0.4,5,0.5c1.5,0.1,3.1,0.3,4.6,0.4
			c0.1,0,0.1,0,0.2,0l0,0.1c-0.1,0-0.1,0.1-0.2,0.1c-2.9,1.2-5.8,2.6-8.7,3.8c-0.1,0.1-0.2,0.2-0.1,0.3c0.6,3,1.2,6.1,1.9,9.1
			c0.1,0.2,0.1,0.4,0.3,0.7c-0.1,0-0.2,0-0.3-0.1c-0.3-0.4-0.6-0.7-0.9-1.2c-1.8-2.1-3.6-4.1-5.4-6.2c-0.1,0-0.1-0.1-0.1-0.1
			c-0.1,0-0.2,0.1-0.2,0.1c-2.8,1.7-5.7,3.3-8.5,4.9c0,0,0,0-0.1,0.1l-0.1,0c0-0.1,0-0.3,0.2-0.4c1.7-2.8,3.2-5.5,4.9-8.4
			c0-0.1,0-0.1,0.1-0.2c-0.1,0-0.1-0.1-0.2-0.1c-2.1-2-4.3-3.9-6.4-5.9c-0.3-0.2-0.5-0.5-0.8-0.7l0-0.1c0.3,0,0.6,0.1,0.9,0.1
			c1,0.3,2,0.4,2.9,0.7c1.3,0.3,2.4,0.6,3.7,0.8c0.7,0.1,1.5,0.3,2.2,0.5c0.1,0,0.2,0,0.2-0.1c1.3-3,2.6-6.1,4-9.1l0,0
			C1446.3,158.1,1446.4,158.1,1446.4,158.1z M1444.1,171.5c-3,3.1-6,6-8.9,9.1c0.1,0,0.1-0.1,0.2-0.1c2.6-1.5,5.3-3.1,7.8-4.6
			c0.1-0.1,0.1-0.2,0.1-0.3c0.2-1.3,0.4-2.6,0.6-3.8C1444.1,171.6,1444.1,171.6,1444.1,171.5z M1432.9,165.5L1432.9,165.5
			c0,0.1,0.1,0.1,0.1,0.1c2.2,2.1,4.5,4.1,6.7,6.2c0.1,0.1,0.2,0.1,0.3,0c1.2-0.2,2.4-0.5,3.7-0.7c0.1,0,0.1-0.1,0.2-0.1
			C1440.2,169.2,1436.6,167.3,1432.9,165.5z M1444.2,171c0.7-4.1,1.3-8.2,2-12.2l-0.1,0.1c-1.3,2.8-2.4,5.7-3.7,8.4
			c0,0.1,0,0.2,0.1,0.3c0.2,0.4,0.4,0.8,0.6,1.2C1443.4,169.4,1443.7,170.2,1444.2,171z M1444.5,171L1444.5,171
			c4-0.6,8.1-1.1,12.1-1.7c-0.3,0-0.5-0.1-0.8-0.1c-1.1-0.1-2.2-0.3-3.2-0.3c-1.1-0.1-2.3-0.3-3.4-0.4c-0.6-0.1-1.2-0.1-1.7-0.2
			c-0.1,0-0.2,0.1-0.3,0.1c-0.5,0.5-1.1,1-1.6,1.5C1445.2,170.2,1444.9,170.7,1444.5,171z M1449.7,182.3L1449.7,182.3L1449.7,182.3
			c-0.6-3-1.2-5.9-1.8-8.8c0-0.1-0.1-0.2-0.2-0.2c-0.8-0.4-1.7-1-2.5-1.4c-0.3-0.1-0.5-0.3-0.7-0.4l0,0
			C1446.3,175.1,1448,178.7,1449.7,182.3z"/>
		<path class="st2" d="M1444.1,171.5c0,0.1,0,0.2,0,0.3c-0.2,1.3-0.4,2.6-0.6,3.8c0,0.1,0,0.2-0.1,0.3c-2.6,1.5-5.3,3.1-7.8,4.6
			c-0.1,0-0.1,0.1-0.2,0.1C1438.2,177.5,1441.1,174.4,1444.1,171.5z"/>
		<path class="st2" d="M1432.9,165.5c3.7,1.8,7.3,3.7,11,5.7c-0.1,0-0.1,0.1-0.2,0.1c-1.2,0.2-2.4,0.5-3.7,0.7c-0.1,0-0.2,0-0.3,0
			c-2.2-2.1-4.5-4.1-6.7-6.2C1433,165.6,1432.9,165.5,1432.9,165.5L1432.9,165.5z"/>
		<path class="st2" d="M1444.2,171c-0.4-0.8-0.8-1.4-1.2-2.2c-0.2-0.4-0.4-0.8-0.6-1.2c-0.1-0.1-0.1-0.2-0.1-0.3
			c1.3-2.8,2.4-5.7,3.7-8.4c0-0.1,0-0.1,0.1-0.1C1445.5,162.8,1444.9,166.8,1444.2,171z"/>
		<path class="st2" d="M1444.5,171c0.4-0.3,0.7-0.7,1.1-1c0.5-0.5,1.1-0.9,1.6-1.5c0.1-0.1,0.2-0.2,0.3-0.1c0.6,0.1,1.2,0.1,1.7,0.2
			c1.1,0.1,2.3,0.3,3.4,0.4c1.1,0.1,2.2,0.3,3.2,0.3c0.3,0,0.5,0.1,0.8,0.1C1452.6,169.9,1448.5,170.5,1444.5,171L1444.5,171z"/>
		<path class="st2" d="M1449.7,182.3c-1.7-3.6-3.5-7.3-5.2-10.9l0,0c0.3,0.1,0.5,0.3,0.7,0.4c0.8,0.4,1.7,1,2.5,1.4
			c0.1,0,0.2,0.1,0.2,0.2C1448.6,176.5,1449.1,179.3,1449.7,182.3C1449.8,182.2,1449.8,182.2,1449.7,182.3L1449.7,182.3z"/>
	</g>
</g>
<g id="Ppxovp.tif_10_" class="st0">
	<g>
		<path class="st1" d="M1662.2,398c0.4,4.7,0.8,9.3,1.3,14c0,0.3,0.1,0.3,0.4,0.3c2.4,0.2,4.8,0.5,7.1,0.7c2.1,0.2,4.4,0.4,6.5,0.6
			c0.1,0,0.1,0,0.3,0l0,0.1c-0.1,0-0.2,0.1-0.3,0.1c-4.2,1.8-8.2,3.7-12.4,5.4c-0.2,0.1-0.3,0.2-0.2,0.4c0.9,4.3,1.7,8.6,2.6,12.9
			c0.1,0.3,0.2,0.6,0.4,0.9c-0.1,0-0.3,0-0.4-0.2c-0.5-0.5-0.8-1-1.3-1.6c-2.5-3-5.1-5.8-7.6-8.8c-0.1,0-0.1-0.2-0.1-0.2
			c-0.1,0-0.3,0.1-0.3,0.1c-4,2.4-8.1,4.7-12,6.9c0,0,0,0-0.2,0.1l-0.1,0c0-0.1,0.1-0.4,0.2-0.5c2.4-3.9,4.6-7.9,7-11.9
			c0-0.1,0-0.1,0.2-0.3c-0.1,0-0.1-0.2-0.3-0.2c-3-2.8-6.1-5.6-9.1-8.4c-0.4-0.3-0.7-0.7-1.1-1l0-0.1c0.4,0.1,0.8,0.1,1.3,0.2
			c1.4,0.4,2.8,0.6,4.1,1c1.8,0.4,3.4,0.9,5.3,1.1c1,0.2,2.1,0.5,3,0.6c0.1,0,0.3,0,0.3-0.1c1.8-4.3,3.7-8.6,5.7-12.8l0,0
			C1662.1,398,1662.2,398,1662.2,398z M1659,417c-4.3,4.3-8.4,8.5-12.6,12.9c0.1,0,0.2-0.1,0.3-0.1c3.6-2.1,7.5-4.4,11.1-6.5
			c0.2-0.1,0.2-0.3,0.2-0.4c0.3-1.8,0.6-3.6,0.9-5.4C1659,417.1,1659,417.1,1659,417z M1643.2,408.5L1643.2,408.5
			c0,0.1,0.1,0.2,0.1,0.2c3.1,2.9,6.4,5.8,9.5,8.7c0.1,0.2,0.3,0.2,0.4,0.1c1.8-0.3,3.4-0.7,5.2-1c0.1,0,0.2-0.1,0.3-0.1
			C1653.5,413.8,1648.3,411.1,1643.2,408.5z M1659.1,416.3c1-5.9,1.9-11.6,2.8-17.3l-0.2,0.1c-1.8,4-3.5,8-5.2,11.9
			c0,0.1,0,0.3,0.1,0.4c0.3,0.6,0.5,1.1,0.9,1.7C1658,414.1,1658.4,415.2,1659.1,416.3z M1659.5,416.4L1659.5,416.4
			c5.7-0.8,11.4-1.6,17.2-2.4c-0.4-0.1-0.7-0.1-1.1-0.2c-1.6-0.1-3.1-0.4-4.5-0.5c-1.6-0.1-3.2-0.4-4.8-0.5
			c-0.8-0.1-1.7-0.1-2.4-0.2c-0.1,0-0.3,0.1-0.5,0.2c-0.7,0.7-1.5,1.5-2.2,2.1C1660.6,415.3,1660,415.9,1659.5,416.4z M1666.9,432.4
			L1666.9,432.4l0-0.1c-0.9-4.2-1.7-8.2-2.6-12.3c0-0.1-0.1-0.3-0.2-0.3c-1.2-0.6-2.4-1.4-3.5-2c-0.4-0.2-0.7-0.4-1-0.6l0,0
			C1662,422.1,1664.5,427.2,1666.9,432.4z"/>
		<path class="st2" d="M1659,417c0,0.1,0,0.3-0.1,0.4c-0.3,1.8-0.6,3.6-0.9,5.4c0,0.1,0,0.3-0.2,0.4c-3.6,2.1-7.5,4.4-11.1,6.5
			c-0.1,0-0.2,0.1-0.3,0.1C1650.6,425.5,1654.7,421.2,1659,417z"/>
		<path class="st2" d="M1643.2,408.5c5.2,2.6,10.3,5.3,15.6,8c-0.1,0-0.2,0.1-0.3,0.1c-1.8,0.3-3.4,0.7-5.2,1c-0.1,0-0.3,0-0.4-0.1
			c-3.1-2.9-6.4-5.8-9.5-8.7C1643.3,408.7,1643.2,408.5,1643.2,408.5L1643.2,408.5z"/>
		<path class="st2" d="M1659.1,416.3c-0.5-1.1-1.1-2-1.6-3.1c-0.3-0.6-0.5-1.1-0.9-1.7c-0.1-0.2-0.1-0.3-0.1-0.4
			c1.8-4,3.5-8,5.2-11.9c0-0.1,0-0.1,0.2-0.1C1661,404.7,1660.1,410.4,1659.1,416.3z"/>
		<path class="st2" d="M1659.5,416.4c0.5-0.5,1-1,1.5-1.5c0.7-0.7,1.5-1.3,2.2-2.1c0.2-0.1,0.3-0.2,0.5-0.2c0.8,0.1,1.7,0.1,2.4,0.2
			c1.6,0.1,3.2,0.4,4.8,0.5c1.6,0.1,3.1,0.4,4.5,0.5c0.4,0.1,0.7,0.1,1.1,0.2C1671,414.8,1665.2,415.6,1659.5,416.4L1659.5,416.4z"
			/>
		<path class="st2" d="M1666.9,432.4c-2.5-5.1-4.9-10.3-7.4-15.4l0,0c0.4,0.2,0.7,0.4,1,0.6c1.2,0.6,2.4,1.4,3.5,2
			c0.1,0,0.3,0.2,0.2,0.3c0.9,4.2,1.7,8.2,2.6,12.3C1667,432.2,1667,432.2,1666.9,432.4L1666.9,432.4z"/>
	</g>
</g>
<path class="st3" d="M99.4,239.9h-0.6c-0.4,0-0.6,0-0.8,0.1l-0.7-0.6c0.6-0.7,1.1-1.4,1.8-2.1c0,0-0.8-0.4-1.2-1.2
	c-0.3-0.4-1.1-1.8-2.5-2.8l0,0l0,0l0,0l0,0c-1.7-0.8-3.2-1.2-3.7-1.2c-1,0-1.5-0.7-1.5-0.7c-0.4,0.8-0.8,1.7-1.2,2.5l-0.7-0.4
	c0-0.3,0-0.6-0.1-0.8l-0.3-0.6c-0.4-1-1.4-1-1.9-0.1l-0.4,0.6c-0.6,0.8-0.1,1.7,0.8,1.7h0.6c0.4,0,0.6-0.1,0.8-0.3l0.8,0.6
	c-0.6,1.1-1.2,2.1-1.8,3.1l-1-0.6c0-0.3,0-0.6-0.1-0.8l-0.3-0.6c-0.4-1-1.4-1-1.9-0.1l-0.1,0.6c-0.6,0.8-0.1,1.7,0.8,1.7h0.6
	c0.4,0,0.6-0.1,0.8-0.3l1,0.6c-0.7,1.1-1.4,2.1-1.9,2.9l-0.8-0.4c0-0.3,0-0.6-0.1-0.8l-0.3-0.6c-0.4-1-1.4-1-1.9-0.1l-0.4,0.6
	c-0.4,1,0,1.7,1,1.8h0.6c0.4,0,0.6-0.1,0.8-0.3l0.8,0.6c-0.8,1.1-1.4,1.7-1.4,1.7c0.7,1.8-0.1,4-0.1,4l-32.3,44.2
	c-1-0.8-6.4-5.3-12.5-4.3c-6.8,1.1-8.7,7.6-9.7,12.6c-1.1,5-3.6,6-10.8,8.3c-7.2,2.1-27,15.4-11.2,34.4l0,0c0,0,0,0,0.1,0.1
	c0.1,0.1,0.1,0.3,0.3,0.3l0.1,0.1c1.9,2.1,9.6,9.6,18.6,12.2h0.1c23,7.5,28-15.7,27.5-23.2s-0.6-10.3,3.7-13s9.7-7.1,8.3-13.7
	c-1.2-5.5-6.7-9-8.3-9.8l30.8-45.1c0,0,0.7-0.8,3.3-1.2c0,0,0.4-0.8,1.2-2.2l0.7,0.6c0,0.3,0,0.6,0.1,0.8l0.1,0.6
	c0.4,1,1.2,1.1,1.9,0.3l0.4-0.6c0.7-0.8,0.3-1.7-0.8-1.8h-0.4c-0.4,0-0.6,0-0.8,0.1l-0.7-0.6c0.6-0.8,1.1-1.8,1.9-2.9l0.8,0.6
	c0,0.3,0,0.6,0.1,0.8l0.3,0.6c0.4,1,1.2,1.1,1.9,0.3l0.4-0.6c0.7-0.8,0.3-1.7-0.8-1.8h-0.6c-0.4,0-0.6,0-0.8,0.1l-0.8-0.6
	c0.7-0.8,1.4-1.8,2.1-2.8l0.7,0.6c0,0.3,0,0.6,0.1,0.8l0.3,0.6c0.4,1,1.2,1.1,1.9,0.3l0.4-0.6C100.8,240.7,100.4,240,99.4,239.9z
	 M42,302.2c3.7,0,6.8,3.1,6.8,6.8s-3.1,6.8-6.8,6.8s-6.8-3.1-6.8-6.8C35.2,305.2,38.3,302.2,42,302.2z M38.4,328.5l-0.8,1.2
	c-0.3,0.4-0.8,0.4-1.1,0.1l-0.8-0.6c-1.1-0.7-2.6-0.1-3.7-0.4c-1.4-0.4-4.4-2.6-5.1-3.7c-0.6-1-0.6-2.8-1.7-3.5l0,0l-0.7-0.6
	c-0.4-0.3-0.4-0.8-0.1-1.1l0.8-1.2c0.3-0.4,0.8-0.4,1.1-0.1l12.2,8.9C38.7,327.5,38.7,328.1,38.4,328.5z M50.6,320.3
	c-0.1,1.7,2.2,9-4.7,11.9c0,0-0.8-3.2-6.1-6.1c-3.9-2.2-1-6.8,0.6-7.9c0,0,8.2,2.4,11.2-8c0,0,2.4,1.1,1.7,5.3
	c-0.1,0.3-0.3,1.2,0.3,2.4C53.5,317.8,50.9,318.5,50.6,320.3z"/>
<g class="st0">
	<path class="st2" d="M701.8,731c-2.2,0.6,3.6,14.9,0.8,15.6c-1.4,0.4-2.5-2.8-4.3-2.4c-1.7,0.4-0.8,5.4,1.8,10.5
		c2.6,5.1,7.9,10.3,5.9,11.5c-1.9,1.1-12-9.9-14.8-15s-4.9-12.2-6.2-17.4c-1.4-0.8-2.9-2.4-4.9-4.7c-4.3-5.7-2.4-9.4-0.2-13.9
		c-3.9,0.5-9,0.6-14.3,0c-9.1-1.2-17.4-5.7-22.4-7c-8.1-1.9-15.9,2.7-16.3,1.1s4.4-5.6,12.2-6.8c8.5-1.3,19.3,2.6,27.1,3.4
		c6.6,0.6,11.6-0.8,18.8-2.6c1.9-3,4.3-5.2,8.1-6.2s6.9-0.1,10,1.6c7.2-1.7,12.3-2.8,17.7-6.7c6.7-4.5,14.3-13.1,22.2-15.9
		c7.4-2.7,13.6-1.4,14,0.1s-8.7,1.2-14.9,6.8c-3.9,3.5-8.9,11.4-16.4,16.8c-4.4,3.1-8.9,5.4-12.6,6.8c4.1,3,7.4,5.1,6.4,12.3
		c-0.4,3.1-1.2,5.1-2,6.5c1.3,5.2,2.8,12.4,2.8,18.2c-0.1,5.7-3.6,20.4-5.8,20.2c-2.2-0.1-0.2-7.3-0.3-12.9
		c-0.1-5.8-1.7-10.5-3.4-10.1c-1.7,0.4-1.2,3.8-2.6,4.1C705.7,745.8,704,730.4,701.8,731z"/>
	<path class="st4" d="M690.3,719c-1-0.6-4.2,8.5-7.5,12.9c0.9,0.9,1.7,1.6,2.3,2.1c0.5,1.9,1,3.9,1.7,6
		C690.4,733.4,691.4,719.7,690.3,719z M656.6,709.4c-7.4-2.4-11.3-2.6-12.5-1c5,1.4,13.1,5.7,21.8,6.8c5.3,0.6,10.4,0.5,14.3,0
		C688.2,705.4,669.7,713.7,656.6,709.4z M698.3,744.2c1.7-0.4,2.9,2.8,4.3,2.4c-1.4-3.5-2.9-4.9-4.9-4.4c-2.2,0.6-5.2,3.6-0.8,11.2
		c3.5,6.1,6.5,10.5,9.6,12.5c0.7-1.7-3.8-6.5-6.3-11.2C697.5,749.5,696.6,744.6,698.3,744.2z M744.3,679.4c-11.3,4-15.1,15-25.8,20
		c-3.2,1.6-8.8,4-9.8,5.8c-0.3,0.6-0.5,1.3-0.5,1.8c-10.3,2.1,6.3,17.5,8.5,29.7c2.5,12.3,0.1,20.2-2.1,27.3c0,0,0.2,0,0.2,0.1
		c2.3,0.1,5.8-14.4,5.8-20.2c0-5.8-1.5-13.1-2.8-18.2c0.8-1.4,1.4-3.5,2-6.5c1-7.1-2.4-9.4-6.4-12.3c3.6-1.4,8.2-3.7,12.6-6.8
		c7.4-5.4,12.6-13.3,16.4-16.8c6.1-5.4,15.1-5.2,14.9-6.6C754.6,676.5,750.4,677.2,744.3,679.4z"/>
</g>
</svg>
