<?xml version="1.0" encoding="utf-8"?>
<!-- Generator: Adobe Illustrator 22.1.0, SVG Export Plug-In . SVG Version: 6.00 Build 0)  -->
<svg version="1.1" id="Layer_1" xmlns="http://www.w3.org/2000/svg" xmlns:xlink="http://www.w3.org/1999/xlink" x="0px" y="0px"
	 viewBox="0 0 1705.5 804.7" style="enable-background:new 0 0 1705.5 804.7;" xml:space="preserve">
<style type="text/css">
	.st0{opacity:0.5;}
	.st1{fill:#FFFFFF;}
	.st2{opacity:0.5;fill:#FFFFFF;enable-background:new    ;}
</style>
<g class="st0">
	<g>
		<path class="st1" d="M789.2,21.8c0,7.7,4.2,11.1,6,12.1c1.7-1,6-4.3,6-12.1c0-6.4-2.8-14.2-5-19.3c-0.3-0.7-1.5-0.8-1.8-0.1
			C792,7.5,789.2,15.4,789.2,21.8z"/>
		<path class="st1" d="M800.1,37.5c1,0.7,3.3,1.9,6.7,1.9c2.2,0,4.5-0.6,6.8-1.6c6-2.8,12.1-9,15.8-13.2c0.4-0.4,0.5-1.2-0.4-1.2
			c-5.5,0.1-14.3,0.7-20.4,3.5C801.5,30.3,800.3,35.6,800.1,37.5z"/>
		<path class="st1" d="M804.6,21.8c0,1.3-0.1,2.5-0.3,3.6c0.9-0.5,1.7-1,2.7-1.5c1.3-0.6,2.7-1.1,4-1.5c1.7-3.9,2.9-8.1,3.7-11.4
			c0.2-0.9-0.3-1.4-0.9-1.2c-2.9,1.5-6.5,4-9.8,6.8C804.4,18.3,804.6,20,804.6,21.8z"/>
		<path class="st1" d="M776.6,37.9c2.3,1.1,4.6,1.6,6.8,1.6c3.3,0,5.6-1.2,6.7-1.9c-0.2-1.9-1.4-7.2-8.4-10.4
			c-5.9-2.7-14.6-3.5-20.1-3.5c-0.7,0-0.9,0.9-0.6,1.3C764.5,29,770.6,35.1,776.6,37.9z"/>
		<path class="st1" d="M776.7,8.6c0.4,3.9,1.2,9.2,2.7,13.8c1.3,0.4,2.5,0.9,3.7,1.4c1,0.4,1.9,0.9,2.7,1.5
			c-0.1-1.1-0.3-2.3-0.3-3.6c0-2,0.2-4.1,0.6-6.2c-2.9-3.1-6.1-5.9-8.6-7.8C776.9,7.2,776.7,8,776.7,8.6z"/>
		<path class="st1" d="M820.8,65.9c-2-5.2-5.6-12.9-10.2-17.5c-3.8-3.8-7.5-4.6-10.1-4.6c-1.2,0-2.1,0.1-2.7,0.3
			c-0.5,1.9-1.2,7.3,4.3,12.7c4.7,4.7,12.5,8.2,17.6,10.2C820.4,67.3,821.1,66.5,820.8,65.9z"/>
		<path class="st1" d="M815.1,41.1c-1.9,0.9-3.8,1.4-5.7,1.7c1.2,0.8,2.5,1.8,3.7,3c0.4,0.4,0.9,0.9,1.3,1.4c4.5,0,9.2-0.9,12.7-1.5
			c0.9-0.2,0.9-0.8,0.6-1.1c-2.4-1.7-5.6-3.8-9.1-5.5C817.4,39.9,816.3,40.5,815.1,41.1z"/>
		<path class="st1" d="M800.6,60.1c-0.3-0.3-0.6-0.6-0.9-0.9c-2.4-2.4-3.8-4.7-4.6-6.9c-0.8,2-2.1,4.2-4.2,6.5
			c1.1,5.2,2.5,9.8,4.3,13.7c0.4,0.8,1.4,0.9,1.7,0.1C798.5,69.4,800.2,64.2,800.6,60.1z"/>
		<path class="st1" d="M775.3,47.1c0.2,0,0.4,0,0.6,0c0.4-0.4,0.7-0.8,1.1-1.2c1.2-1.2,2.5-2.2,3.7-3c-1.9-0.3-3.7-0.9-5.7-1.7
			c-1.6-0.7-3.2-1.7-4.8-2.8c-3.5,1.5-7,3.4-9.6,5c-0.6,0.4-0.4,1.4,0.4,1.6C765.1,45.9,770.5,47.1,775.3,47.1L775.3,47.1
			L775.3,47.1z"/>
		<path class="st1" d="M792.3,44c-0.6-0.1-1.5-0.3-2.7-0.3c-2.5,0-6.3,0.8-10.1,4.6c-4.5,4.5-8.1,12.1-10.1,17.3
			c-0.3,0.7,0.5,1.5,1.2,1.2c5.1-2,12.7-5.5,17.3-10.1C793.4,51.3,792.8,46,792.3,44z"/>
	</g>
	<g>
		<g>
			<circle class="st1" cx="792.3" cy="37.8" r="1.4"/>
		</g>
		<g>
			<circle class="st1" cx="797.4" cy="37.8" r="1.4"/>
		</g>
	</g>
	<g>
		<circle class="st1" cx="794.8" cy="41.7" r="1.4"/>
	</g>
</g>
<g class="st0">
	<g>
		<path class="st1" d="M875,696.9c0,3.9,2.1,5.6,3,6.1c0.9-0.5,3-2.2,3-6.1c0-3.2-1.4-7.2-2.5-9.7c-0.1-0.4-0.8-0.4-0.9,0
			C876.4,689.7,875,693.7,875,696.9z"/>
		<path class="st1" d="M880.5,704.9c0.5,0.4,1.7,1,3.4,1c1.1,0,2.3-0.3,3.4-0.8c3.1-1.4,6.1-4.5,8-6.6c0.2-0.2,0.3-0.6-0.2-0.6
			c-2.8,0.1-7.2,0.4-10.3,1.8C881.2,701.2,880.6,703.9,880.5,704.9z"/>
		<path class="st1" d="M882.8,696.9c0,0.7,0,1.3-0.1,1.8c0.4-0.3,0.9-0.5,1.4-0.8c0.7-0.3,1.3-0.5,2-0.8c0.9-2,1.5-4.1,1.9-5.7
			c0.1-0.5-0.1-0.7-0.4-0.6c-1.5,0.8-3.3,2-4.9,3.4C882.7,695.2,882.8,696.1,882.8,696.9z"/>
		<path class="st1" d="M868.6,705.1c1.2,0.5,2.3,0.8,3.4,0.8c1.7,0,2.8-0.6,3.4-1c-0.1-1-0.7-3.6-4.2-5.3c-3-1.4-7.4-1.7-10.2-1.8
			c-0.4,0-0.5,0.4-0.3,0.7C862.5,700.6,865.6,703.6,868.6,705.1z"/>
		<path class="st1" d="M868.6,690.3c0.2,2,0.6,4.6,1.4,7c0.7,0.2,1.3,0.4,1.9,0.7c0.5,0.2,1,0.5,1.4,0.8c-0.1-0.5-0.1-1.2-0.1-1.8
			c0-1,0.1-2.1,0.3-3.1c-1.5-1.6-3.1-3-4.4-3.9C868.8,689.6,868.6,690,868.6,690.3z"/>
		<path class="st1" d="M890.9,719.2c-1-2.6-2.8-6.5-5.2-8.8c-1.9-1.9-3.8-2.3-5.1-2.3c-0.6,0-1.1,0.1-1.3,0.1
			c-0.3,1-0.6,3.7,2.2,6.4c2.4,2.4,6.3,4.1,8.9,5.2C890.8,719.9,891.1,719.5,890.9,719.2z"/>
		<path class="st1" d="M888,706.7c-0.9,0.4-1.9,0.7-2.9,0.9c0.6,0.4,1.3,0.9,1.9,1.5c0.2,0.2,0.4,0.4,0.7,0.7c2.3,0,4.6-0.4,6.4-0.8
			c0.5-0.1,0.5-0.4,0.3-0.5c-1.2-0.8-2.8-1.9-4.6-2.8C889.2,706.1,888.7,706.4,888,706.7z"/>
		<path class="st1" d="M880.7,716.3c-0.1-0.1-0.3-0.3-0.5-0.4c-1.2-1.2-1.9-2.4-2.3-3.5c-0.4,1-1.1,2.1-2.1,3.3
			c0.5,2.7,1.3,5,2.2,6.9c0.2,0.4,0.7,0.4,0.9,0C879.7,721,880.6,718.4,880.7,716.3z"/>
		<path class="st1" d="M868,709.7c0.1,0,0.2,0,0.3,0c0.2-0.2,0.4-0.4,0.5-0.6c0.6-0.6,1.3-1.1,1.9-1.5c-0.9-0.1-1.9-0.4-2.9-0.9
			c-0.8-0.4-1.6-0.9-2.4-1.4c-1.8,0.8-3.5,1.7-4.8,2.5c-0.3,0.2-0.2,0.7,0.2,0.8C862.8,709.1,865.5,709.7,868,709.7L868,709.7
			L868,709.7z"/>
		<path class="st1" d="M876.5,708.2c-0.3-0.1-0.8-0.1-1.3-0.1c-1.3,0-3.2,0.4-5.1,2.3c-2.3,2.3-4.1,6.1-5.1,8.7
			c-0.1,0.4,0.3,0.8,0.6,0.6c2.6-1,6.4-2.8,8.7-5.1C877.1,711.8,876.8,709.2,876.5,708.2z"/>
	</g>
	<g>
		<g>
			<circle class="st1" cx="876.5" cy="705" r="0.7"/>
		</g>
		<g>
			<circle class="st1" cx="879.1" cy="705" r="0.7"/>
		</g>
	</g>
	<g>
		<circle class="st1" cx="877.8" cy="707" r="0.7"/>
	</g>
</g>
<g class="st0">
	<g>
		<path class="st1" d="M1093.1,168.4c0,6,3.3,8.6,4.6,9.4c1.3-0.8,4.6-3.4,4.6-9.4c0-5-2.2-11-3.9-15c-0.2-0.6-1.2-0.6-1.4-0.1
			C1095.3,157.2,1093.1,163.4,1093.1,168.4z"/>
		<path class="st1" d="M1101.7,180.6c0.8,0.6,2.6,1.5,5.2,1.5c1.7,0,3.5-0.4,5.3-1.2c4.7-2.2,9.5-7,12.3-10.2c0.3-0.3,0.4-1-0.3-1
			c-4.3,0.1-11.1,0.6-15.9,2.7C1102.8,175,1101.8,179.1,1101.7,180.6z"/>
		<path class="st1" d="M1105.2,168.4c0,1-0.1,2-0.2,2.8c0.7-0.4,1.3-0.8,2.1-1.2c1-0.4,2.1-0.8,3.1-1.2c1.3-3,2.3-6.3,2.9-8.8
			c0.2-0.7-0.2-1.1-0.7-0.9c-2.2,1.2-5.1,3.1-7.6,5.3C1105,165.7,1105.2,167,1105.2,168.4z"/>
		<path class="st1" d="M1083.4,180.9c1.8,0.8,3.6,1.2,5.3,1.2c2.6,0,4.4-1,5.2-1.5c-0.2-1.5-1.1-5.6-6.5-8.1
			c-4.6-2.1-11.4-2.7-15.7-2.7c-0.6,0-0.7,0.7-0.4,1C1074,173.9,1078.7,178.7,1083.4,180.9z"/>
		<path class="st1" d="M1083.4,158.1c0.3,3,0.9,7.2,2.1,10.7c1,0.3,2,0.7,2.9,1.1c0.8,0.3,1.5,0.7,2.1,1.2c-0.1-0.8-0.2-1.8-0.2-2.8
			c0-1.6,0.2-3.2,0.5-4.8c-2.2-2.4-4.8-4.6-6.7-6C1083.6,157,1083.4,157.7,1083.4,158.1z"/>
		<path class="st1" d="M1117.8,202.7c-1.6-4-4.4-10-7.9-13.6c-3-3-5.9-3.6-7.8-3.6c-0.9,0-1.6,0.1-2.1,0.2c-0.4,1.5-0.9,5.7,3.4,9.9
			c3.6,3.6,9.7,6.4,13.7,7.9C1117.5,203.8,1118,203.2,1117.8,202.7z"/>
		<path class="st1" d="M1113.3,183.4c-1.5,0.7-3,1.1-4.4,1.3c1,0.6,2,1.4,2.9,2.4c0.3,0.3,0.7,0.7,1,1.1c3.5,0,7.2-0.7,9.8-1.2
			c0.7-0.2,0.7-0.6,0.4-0.8c-1.8-1.3-4.4-3-7.1-4.3C1115.1,182.5,1114.2,183,1113.3,183.4z"/>
		<path class="st1" d="M1102,198.2c-0.2-0.2-0.5-0.4-0.7-0.7c-1.8-1.8-3-3.6-3.6-5.4c-0.6,1.6-1.6,3.3-3.2,5c0.8,4.1,2,7.7,3.4,10.7
			c0.3,0.6,1.1,0.7,1.3,0.1C1100.4,205.4,1101.8,201.4,1102,198.2z"/>
		<path class="st1" d="M1082.3,188c0.2,0,0.3,0,0.4,0c0.3-0.3,0.6-0.6,0.8-0.9c1-1,2-1.7,2.9-2.4c-1.5-0.2-2.9-0.7-4.4-1.3
			c-1.2-0.6-2.5-1.3-3.7-2.2c-2.7,1.2-5.4,2.6-7.4,3.9c-0.4,0.3-0.3,1.1,0.3,1.2C1074.4,187.2,1078.6,188,1082.3,188L1082.3,188
			L1082.3,188z"/>
		<path class="st1" d="M1095.6,185.7c-0.4-0.1-1.2-0.2-2.1-0.2c-2,0-4.9,0.6-7.8,3.6c-3.5,3.5-6.3,9.5-7.8,13.4
			c-0.2,0.6,0.4,1.2,1,1c4-1.6,9.9-4.3,13.4-7.8C1096.4,191.3,1095.9,187.2,1095.6,185.7z"/>
	</g>
	<g>
		<g>
			<circle class="st1" cx="1095.6" cy="180.8" r="1.1"/>
		</g>
		<g>
			<circle class="st1" cx="1099.5" cy="180.8" r="1.1"/>
		</g>
	</g>
	<g>
		<circle class="st1" cx="1097.5" cy="183.9" r="1.1"/>
	</g>
</g>
<g class="st0">
	<g>
		<path class="st1" d="M358.4,32.3c0,3.9,2.1,5.6,3,6.1c0.9-0.5,3-2.2,3-6.1c0-3.2-1.4-7.2-2.5-9.8c-0.1-0.4-0.8-0.4-0.9,0
			C359.8,25,358.4,29,358.4,32.3z"/>
		<path class="st1" d="M363.9,40.3c0.5,0.4,1.7,1,3.4,1c1.1,0,2.3-0.3,3.4-0.8c3.1-1.4,6.2-4.6,8-6.7c0.2-0.2,0.3-0.6-0.2-0.6
			c-2.8,0.1-7.2,0.4-10.3,1.8C364.7,36.6,364.1,39.3,363.9,40.3z"/>
		<path class="st1" d="M366.2,32.3c0,0.7,0,1.3-0.1,1.8c0.4-0.3,0.9-0.5,1.4-0.8c0.7-0.3,1.3-0.5,2-0.8c0.9-2,1.5-4.1,1.9-5.8
			c0.1-0.5-0.1-0.7-0.4-0.6c-1.5,0.8-3.3,2-5,3.4C366.1,30.5,366.2,31.4,366.2,32.3z"/>
		<path class="st1" d="M352,40.4c1.2,0.5,2.3,0.8,3.4,0.8c1.7,0,2.8-0.6,3.4-1c-0.1-1-0.7-3.6-4.3-5.3c-3-1.4-7.4-1.7-10.2-1.8
			c-0.4,0-0.5,0.4-0.3,0.7C345.9,35.9,349,39,352,40.4z"/>
		<path class="st1" d="M352.1,25.6c0.2,2,0.6,4.7,1.4,7c0.7,0.2,1.3,0.4,1.9,0.7c0.5,0.2,1,0.5,1.4,0.8c-0.1-0.5-0.1-1.2-0.1-1.8
			c0-1,0.1-2.1,0.3-3.1c-1.5-1.6-3.1-3-4.4-3.9C352.2,24.9,352.1,25.3,352.1,25.6z"/>
		<path class="st1" d="M374.4,54.6c-1-2.6-2.8-6.5-5.2-8.9c-1.9-1.9-3.8-2.3-5.1-2.3c-0.6,0-1.1,0.1-1.3,0.1c-0.3,1-0.6,3.7,2.2,6.4
			c2.4,2.4,6.3,4.2,8.9,5.2C374.3,55.3,374.6,54.9,374.4,54.6z"/>
		<path class="st1" d="M371.5,42.1c-0.9,0.4-1.9,0.7-2.9,0.9c0.6,0.4,1.3,0.9,1.9,1.5c0.2,0.2,0.4,0.4,0.7,0.7
			c2.3,0,4.7-0.4,6.4-0.8c0.5-0.1,0.5-0.4,0.3-0.5c-1.2-0.8-2.8-1.9-4.6-2.8C372.7,41.5,372.1,41.8,371.5,42.1z"/>
		<path class="st1" d="M364.2,51.7c-0.1-0.1-0.3-0.3-0.5-0.4c-1.2-1.2-1.9-2.4-2.3-3.5c-0.4,1-1.1,2.1-2.1,3.3c0.5,2.7,1.3,5,2.2,7
			c0.2,0.4,0.7,0.4,0.9,0C363.1,56.4,364,53.8,364.2,51.7z"/>
		<path class="st1" d="M351.4,45.1c0.1,0,0.2,0,0.3,0c0.2-0.2,0.4-0.4,0.5-0.6c0.6-0.6,1.3-1.1,1.9-1.5c-0.9-0.1-1.9-0.4-2.9-0.9
			c-0.8-0.4-1.6-0.9-2.4-1.4c-1.8,0.8-3.5,1.7-4.8,2.5c-0.3,0.2-0.2,0.7,0.2,0.8C346.2,44.5,348.9,45.1,351.4,45.1L351.4,45.1
			L351.4,45.1z"/>
		<path class="st1" d="M360,43.6c-0.3-0.1-0.8-0.1-1.3-0.1c-1.3,0-3.2,0.4-5.1,2.3c-2.3,2.3-4.1,6.2-5.1,8.7
			c-0.1,0.4,0.3,0.8,0.6,0.6c2.6-1,6.4-2.8,8.7-5.1C360.6,47.3,360.2,44.6,360,43.6z"/>
	</g>
	<g>
		<g>
			<circle class="st1" cx="360" cy="40.4" r="0.7"/>
		</g>
		<g>
			<circle class="st1" cx="362.6" cy="40.4" r="0.7"/>
		</g>
	</g>
	<g>
		<circle class="st1" cx="361.3" cy="42.4" r="0.7"/>
	</g>
</g>
<path class="st2" d="M15.5,143.6c0,0,14.4,14.1,30.1,19.7c-32.7,10.4-45.6-31-45.6-31c39.4-0.6,46,19.5,47.1,27.3
	C38.6,156.1,26.4,149.2,15.5,143.6z"/>
<path class="st2" d="M982.3,58.8c-6.8-0.8-24.4-6.1-24.7-40.3c0,0,36.1,10.3,27.8,38.9c-5.2-13.5-17.7-25.7-17.7-25.7
	C972.7,41,978.9,51.4,982.3,58.8z"/>
<path class="st2" d="M945.6,509.9c2.2,6.5,4.7,24.7-26.3,39.3c0,0-5.8-37.1,23.7-41.6c-10.1,10.4-15.9,26.9-15.9,26.9
	C933.4,526,940.3,516,945.6,509.9z"/>
<path class="st2" d="M1664.4,304.6c2.8-5.4,12.7-18.3,41.1-7.7c0,0-19.9,26.7-40.9,10.7c12.9-0.1,26.8-6.6,26.8-6.6
	C1682.2,302.3,1671.5,304.2,1664.4,304.6z"/>
<path class="st2" d="M1452.3,718.4c12-0.2,43.3,4.9,51.6,63.6c0,0-64.4-9.5-56.7-60.5c12.1,22,36.4,40.2,36.4,40.2
	C1472.7,746.8,1459.7,730.4,1452.3,718.4z"/>
<path class="st2" d="M47.1,792.1c0,0,16.1-11,24.4-25c3.7,33.1-38,37.6-38,37.6c6.8-37.7,27.2-40.2,34.8-39.7
	C63.3,772.5,54.5,782.8,47.1,792.1z"/>
<path class="st2" d="M712.9,682.6c-0.6,8.7-6.5,31.4-50.1,33.5c0,0,11.2-46.5,48.1-37.5c-17,7.4-31.9,23.9-31.9,23.9
	C690.7,695.7,703.7,687.3,712.9,682.6z"/>
<path class="st2" d="M1374.1,153.1c0.4-12.5,7.2-44.8,68.8-50.4c0,0-13.1,66.4-65.7,55.8c23.6-11.3,43.6-35.7,43.6-35.7
	C1404.7,133.4,1386.9,146.1,1374.1,153.1z"/>
<g class="st0">
	<path class="st1" d="M1520.5,476l3.3,8.2c0.1,0.3,0.4,0.6,0.7,0.6c0.3,0.1,0.6,0.1,0.9-0.1c2.2-1.2,4-3.1,5.3-5.2
		c0.2-0.3,0.2-0.6,0.1-1c-0.1-0.3-0.3-0.5-0.6-0.6l-8.1-3.5c-0.4-0.2-0.9-0.1-1.2,0.2C1520.5,475.1,1520.4,475.6,1520.5,476z"/>
	<path class="st1" d="M1516.1,475.1c-0.2-0.5-0.8-0.9-1.5-0.6l0,0l-8.2,3.3c-0.6,0.2-0.9,0.9-0.6,1.5l0,0c0,0,0,0.1,0.1,0.1
		c1.2,2.2,3.1,4,5.2,5.3c0.3,0.2,0.6,0.2,0.9,0.1s0.6-0.3,0.7-0.6l3.5-8.2C1516.2,475.6,1516.1,475.3,1516.1,475.1z"/>
	<path class="st1" d="M1513.8,485.6c0.1,0.3,0.4,0.6,0.7,0.7c2.4,0.7,5,0.7,7.4,0.1c0.3-0.1,0.6-0.3,0.7-0.6s0.2-0.6,0-0.9l-3.3-8.2
		c-0.2-0.4-0.6-0.7-1-0.7c-0.5,0-0.8,0.3-1,0.7l0,0l-3.5,8.2C1513.7,485,1513.7,485.3,1513.8,485.6z"/>
	<path class="st1" d="M1504.4,468.4c-0.7,2.4-0.7,5-0.1,7.4c0.1,0.4,0.3,0.6,0.6,0.8c0.3,0.1,0.6,0.1,0.9,0l0,0l8.2-3.3
		c0.7-0.3,0.8-1,0.6-1.5c-0.1-0.2-0.2-0.5-0.6-0.6l-8.2-3.5c-0.3-0.1-0.6-0.1-0.9,0C1504.7,467.9,1504.5,468.1,1504.4,468.4z"/>
	<path class="st1" d="M1515.9,473.3c0.6,0.2,1.1,0.7,1.4,1.4c0,0,0,0,0,0.1c0.3-0.1,0.6-0.2,1-0.2s0.7,0.1,1,0.2
		c0.1-0.3,0.3-0.6,0.6-0.9c0.3-0.2,0.5-0.4,0.9-0.5l-4.9-2.1c0,0,0,0,0,0.1C1516.2,472,1516.2,472.7,1515.9,473.3z"/>
	<path class="st1" d="M1536,479.8l-4-1.7c0,0,0,0,0,0.1c0.3,0.7,0.2,1.5-0.1,2.1c-1.4,2.4-3.4,4.3-5.8,5.7c-0.6,0.4-1.4,0.4-2,0.2
		c-0.1,0-0.2,0-0.2-0.1c0,0.1,0,0.2-0.1,0.2c-0.3,0.6-0.9,1.1-1.6,1.3c-2.6,0.7-5.5,0.7-8.1-0.1c-0.7-0.2-1.3-0.7-1.6-1.4l0,0
		c0,0,0,0,0-0.1c-0.1,0-0.1,0.1-0.2,0.1c-0.7,0.2-1.4,0.1-2-0.2c-2.4-1.4-4.3-3.4-5.7-5.8c-0.1-0.1-0.1-0.2-0.2-0.3l0,0
		c-0.3-0.7-0.2-1.4,0.1-2h-0.1c-0.6-0.3-1.1-0.7-1.3-1.3l0,0c0-0.1-0.1-0.2-0.1-0.3c-0.7-2.6-0.7-5.5,0.1-8.1
		c0.2-0.7,0.7-1.2,1.3-1.5c0.1,0,0.1-0.1,0.2-0.1l-4-1.7c-4.1,9.7,0.4,21,10.2,25.2C1520.6,494.1,1531.9,489.5,1536,479.8z"/>
</g>
<g class="st0">
	<path class="st1" d="M1631.5,105.7l11.1,7.3c0.4,0.3,1,0.4,1.4,0.1c0.5-0.1,0.8-0.4,1-0.9c1.7-3.4,2.3-7.3,2.1-11
		c0-0.5-0.3-0.9-0.7-1.3c-0.4-0.3-0.8-0.4-1.3-0.2l-13,2.6c-0.7,0.1-1.2,0.6-1.3,1.3C1630.8,104.5,1631.1,105.2,1631.5,105.7z"/>
	<path class="st1" d="M1625.3,108.3c-0.7-0.4-1.8-0.4-2.4,0.5l0,0l-7.3,11.1c-0.6,0.8-0.3,1.9,0.5,2.4l0,0c0,0,0.1,0.1,0.2,0
		c3.4,1.7,7.3,2.3,11,2.1c0.5,0,0.9-0.3,1.2-0.6s0.5-0.9,0.4-1.3l-2.7-13.2C1625.9,108.9,1625.5,108.6,1625.3,108.3z"/>
	<path class="st1" d="M1631.5,123.3c0.4,0.3,1,0.4,1.5,0.3c3.6-1.2,6.8-3.4,9.3-6.2c0.3-0.4,0.5-0.9,0.4-1.3
		c-0.1-0.5-0.3-0.9-0.8-1.1l-11.1-7.3c-0.6-0.3-1.3-0.4-1.8,0c-0.6,0.4-0.7,1.1-0.6,1.7l0,0l2.7,13.2
		C1630.8,122.7,1631.1,123,1631.5,123.3z"/>
	<path class="st1" d="M1605,110.1c1.2,3.6,3.4,6.8,6.2,9.3c0.5,0.4,0.9,0.5,1.4,0.5c0.5-0.1,0.8-0.4,1.1-0.8l0,0l7.3-11.1
		c0.6-1,0.1-1.9-0.5-2.4c-0.3-0.2-0.7-0.4-1.3-0.2l-13.2,2.7c-0.5,0.1-0.8,0.4-1.1,0.8C1605,109.2,1604.9,109.6,1605,110.1z"/>
	<path class="st1" d="M1623.5,106.3c0.9-0.3,2-0.1,2.9,0.5c0,0,0,0,0.1,0.1c0.3-0.4,0.6-0.8,1.1-1.1c0.5-0.3,1-0.5,1.4-0.6
		c-0.1-0.5-0.1-1,0-1.6c0.2-0.5,0.3-0.9,0.7-1.4l-7.9,1.6c0,0,0,0,0.1,0.1C1622.8,104.4,1623.4,105.3,1623.5,106.3z"/>
	<path class="st1" d="M1654,97.1l-6.4,1.3c0,0,0,0,0.1,0.1c1,0.6,1.5,1.7,1.7,2.7c0.3,4.2-0.5,8.3-2.3,12c-0.4,1-1.4,1.7-2.3,2
		c-0.1,0.1-0.2,0.2-0.3,0c0.1,0.1,0.2,0.2,0,0.3c0.1,1-0.2,2.1-0.9,3c-2.6,3.1-6.2,5.6-10.1,6.8c-1,0.4-2.2,0.2-3.2-0.4l0,0
		c0,0,0,0-0.1-0.1c-0.1,0.1,0,0.2-0.2,0.3c-0.7,0.8-1.6,1.3-2.7,1.5c-4.2,0.3-8.3-0.5-12-2.3c-0.2,0-0.3-0.2-0.5-0.2l0,0
		c-1-0.6-1.5-1.6-1.6-2.6l-0.1,0.1c-1,0.1-2,0.1-2.7-0.5l0,0c-0.1-0.1-0.3-0.2-0.4-0.3c-3.1-2.6-5.6-6.2-6.8-10.1
		c-0.4-1-0.2-2.1,0.3-3c0.1-0.1,0-0.2,0.2-0.3l-6.4,1.3c3.2,15.5,18.5,25.7,34.3,22.5C1647.2,128,1657.3,112.6,1654,97.1z"/>
</g>
<g class="st0">
	<path class="st1" d="M1242.3,29.5l21.1,1.2c0.8,0,1.6-0.2,2.1-0.8c0.5-0.6,0.8-1.3,0.7-2.1c-0.5-6-2.5-11.7-5.8-16.6
		c-0.5-0.6-1.2-1.1-2-1.1c-0.7,0-1.4,0.2-2,0.7l-15.7,14c-0.8,0.8-1.1,1.9-0.7,2.9C1240.3,28.7,1241.2,29.4,1242.3,29.5z"/>
	<path class="st1" d="M1235.8,38.2c-1.4-0.1-2.8,0.8-2.9,2.6l0,0l-1.2,21.1c-0.1,1.5,1,2.8,2.5,2.9l0,0c0.1,0,0.2,0,0.4,0
		c6-0.5,11.7-2.5,16.6-5.8c0.6-0.4,1-1.1,1.1-1.9c0.1-0.8-0.2-1.6-0.7-2.1l-14-15.8C1237,38.5,1236.3,38.2,1235.8,38.2z"/>
	<path class="st1" d="M1255.9,53.7c0.8,0,1.6-0.3,2.2-0.9c3.9-4.5,6.5-10,7.7-15.9c0.2-0.8,0-1.6-0.5-2.1c-0.5-0.6-1.2-1-2-1
		l-21.1-1.2c-1.1-0.1-2.1,0.5-2.6,1.5s-0.3,2.1,0.4,2.9l0,0l14.1,15.8C1254.5,53.3,1255.2,53.7,1255.9,53.7z"/>
	<path class="st1" d="M1209.5,56.5c4.5,3.9,10,6.5,15.9,7.7c0.9,0.2,1.7-0.1,2.3-0.6c0.5-0.5,0.9-1.1,0.9-1.9l0,0l1.2-21.1
		c0.1-1.7-1.2-2.8-2.6-2.9c-0.5,0-1.2,0.1-1.9,0.7l-15.7,14.1c-0.6,0.5-0.9,1.2-0.9,2.1C1208.7,55.3,1209,56,1209.5,56.5z"/>
	<path class="st1" d="M1231.6,36.7c1.1-1.1,2.7-1.7,4.4-1.6c0.1,0,0.1,0,0.2,0c0-0.8,0.2-1.6,0.6-2.4c0.4-0.8,0.9-1.4,1.5-2
		c-0.5-0.6-1-1.3-1.2-2.1c-0.3-0.8-0.4-1.6-0.3-2.4l-9.4,8.4c0.1,0,0.1,0,0.2,0C1229.1,34.7,1230.6,35.5,1231.6,36.7z"/>
	<path class="st1" d="M1266,0l-7.7,6.8c0.1,0,0.1,0,0.2,0c1.8,0.1,3.4,1,4.4,2.5c3.7,5.4,5.8,11.7,6.3,18.1c0.2,1.7-0.5,3.3-1.6,4.6
		c-0.1,0.1-0.3,0.3-0.5,0.4c0.1,0.1,0.3,0.3,0.4,0.5c1,1.3,1.4,3.1,1.1,4.7c-1.2,6.4-4.1,12.4-8.4,17.3c-1.2,1.4-2.9,2.1-4.7,2l0,0
		c-0.1,0-0.1,0-0.2,0c0,0.2,0,0.4,0,0.6c-0.2,1.7-1.1,3.1-2.5,4.1c-5.4,3.7-11.7,5.8-18.1,6.3c-0.3,0-0.5,0-0.8,0l0,0
		c-1.7-0.1-3.2-0.9-4.2-2.1c-0.1,0.1-0.1,0.1-0.1,0.2c-1.2,1-2.6,1.5-4.2,1.4l0,0c-0.2,0-0.5,0-0.8-0.1c-6.4-1.2-12.4-4.1-17.3-8.4
		c-1.2-1.1-2-2.7-2-4.3c0-0.2,0-0.4,0-0.6l-7.6,6.8c16.8,18.8,45.7,20.4,64.5,3.6S1282.8,18.8,1266,0z"/>
</g>
<g class="st0">
	<path class="st1" d="M37,528.7l0.1,13.6c0,0.5,0.2,1,0.6,1.3c0.4,0.3,0.9,0.5,1.4,0.4c3.8-0.5,7.4-2.1,10.5-4.4
		c0.4-0.3,0.6-0.8,0.6-1.4c0-0.5-0.2-0.9-0.5-1.2l-9.6-9.5c-0.5-0.5-1.2-0.6-1.9-0.3C37.4,527.4,37,528,37,528.7z"/>
	<path class="st1" d="M31.1,524.9c0-0.9-0.7-1.7-1.8-1.7l0,0l-13.6,0.1c-1,0-1.7,0.8-1.7,1.7l0,0c0,0.1,0,0.2,0,0.2
		c0.5,3.8,2.1,7.4,4.4,10.5c0.3,0.4,0.7,0.6,1.2,0.6s1-0.2,1.4-0.5l9.6-9.7C31,525.7,31.1,525.2,31.1,524.9z"/>
	<path class="st1" d="M21.9,538.5c0,0.5,0.2,1,0.6,1.4c3,2.3,6.7,3.8,10.5,4.3c0.5,0.1,1-0.1,1.4-0.4c0.4-0.3,0.6-0.8,0.6-1.3
		l-0.1-13.6c0-0.7-0.4-1.3-1.1-1.6s-1.4-0.1-1.9,0.4l0,0l-9.6,9.7C22.1,537.6,21.9,538,21.9,538.5z"/>
	<path class="st1" d="M18.2,508.8c-2.3,3-3.8,6.7-4.3,10.5c-0.1,0.6,0.1,1.1,0.5,1.4c0.3,0.3,0.8,0.5,1.2,0.5l0,0l13.6-0.1
		c1.1,0,1.7-0.9,1.7-1.8c0-0.3-0.1-0.8-0.5-1.2l-9.7-9.5c-0.4-0.4-0.8-0.6-1.4-0.5C19,508.2,18.5,508.4,18.2,508.8z"/>
	<path class="st1" d="M31.9,522.1c0.8,0.7,1.2,1.7,1.2,2.7v0.1c0.5,0,1,0.1,1.6,0.3c0.5,0.2,1,0.5,1.3,0.9c0.4-0.4,0.8-0.7,1.3-0.9
		s1-0.3,1.6-0.3l-5.8-5.7v0.1C33,520.5,32.6,521.5,31.9,522.1z"/>
	<path class="st1" d="M56.9,542.8l-4.7-4.7v0.1c0,1.2-0.5,2.2-1.4,3c-3.3,2.6-7.3,4.2-11.4,4.8c-1.1,0.2-2.2-0.2-3-0.9
		c-0.1-0.1-0.2-0.2-0.3-0.3c-0.1,0.1-0.2,0.2-0.3,0.3c-0.8,0.7-1.9,1.1-3,0.9c-4.2-0.5-8.1-2.1-11.5-4.7c-0.9-0.7-1.4-1.8-1.5-2.9
		l0,0v-0.1c-0.1,0-0.2,0-0.4,0c-1.1-0.1-2-0.6-2.7-1.4c-2.6-3.3-4.2-7.3-4.8-11.4c0-0.2,0-0.3,0-0.5l0,0c0-1.1,0.5-2.1,1.2-2.8
		l-0.1-0.1c-0.7-0.7-1.1-1.6-1.1-2.6l0,0c0-0.2,0-0.3,0-0.5c0.5-4.2,2.1-8.1,4.7-11.5c0.6-0.8,1.6-1.4,2.7-1.5c0.1,0,0.2,0,0.4,0
		l-4.7-4.6C3.6,513,3.7,531.7,15.3,543.1C26.9,554.5,45.5,554.3,56.9,542.8z"/>
</g>
</svg>
