<?xml version="1.0" encoding="utf-8"?>
<!-- Generator: Adobe Illustrator 22.1.0, SVG Export Plug-In . SVG Version: 6.00 Build 0)  -->
<svg version="1.1" id="Layer_1" xmlns="http://www.w3.org/2000/svg" xmlns:xlink="http://www.w3.org/1999/xlink" x="0px" y="0px"
	 viewBox="0 0 26.9 25.8" style="enable-background:new 0 0 26.9 25.8;" xml:space="preserve">
<style type="text/css">
	.st0{fill:#EC1C24;}
</style>
<path class="st0" d="M1.6,8.7l7.9,0l2.4-7.5C12.1,0.4,12.7,0,13.4,0c0.7,0,1.3,0.4,1.5,1.1l2.5,7.5l7.9,0c0.7,0,1.3,0.4,1.5,1.1
	c0.2,0.7,0,1.4-0.6,1.8l-6.4,4.7l2.5,7.5c0.2,0.7,0,1.4-0.6,1.8c-0.6,0.4-1.3,0.4-1.9,0l-6.4-4.6l-6.4,4.7c-0.3,0.2-0.6,0.3-0.9,0.3
	c-0.3,0-0.7-0.1-0.9-0.3c-0.6-0.4-0.8-1.1-0.6-1.8l2.4-7.5l-6.4-4.6c-0.6-0.4-0.8-1.1-0.6-1.8C0.3,9.1,0.9,8.7,1.6,8.7z"/>
</svg>
