<?xml version="1.0" encoding="utf-8"?>
<!-- Generator: Adobe Illustrator 22.1.0, SVG Export Plug-In . SVG Version: 6.00 Build 0)  -->
<svg version="1.1" id="Logo" xmlns="http://www.w3.org/2000/svg" xmlns:xlink="http://www.w3.org/1999/xlink" x="0px" y="0px"
	 viewBox="0 0 174.5 93.8" style="enable-background:new 0 0 174.5 93.8;" xml:space="preserve">
<style type="text/css">
	.st0{fill:#FFFFFF;}
</style>
<g>
	<path class="st0" d="M77.5,15.7c-3.8-0.2-8.2-0.5-12.3-0.9c-4.4-0.4-8.5-0.9-12.4-1.4c-8.6-1.1-16.5-2.3-24.2-3.6
		c-0.3,0-0.5-0.3-0.4-0.6l0-0.1c0-0.2,0.3-0.4,0.5-0.4c0,0,0,0,0.1,0c7.7,1.1,15.8,2,24.3,2.7c3.9,0.4,8,0.6,12.4,0.9
		c3.5,0.2,7.3,0.4,12,0.5c0.3,0,0.5,0.2,0.5,0.5l0.1,2c0,0.1,0,0.3-0.1,0.4C77.8,15.6,77.7,15.7,77.5,15.7
		C77.6,15.7,77.6,15.7,77.5,15.7z"/>
	<path class="st0" d="M96.4,15.7c-0.1,0-0.3-0.1-0.4-0.2c-0.1-0.1-0.1-0.3-0.1-0.4l0.4-2c0-0.2,0.2-0.4,0.5-0.4
		c4.7-0.1,8.5-0.3,12-0.5c4.4-0.3,8.5-0.6,12.4-0.9c8.4-0.7,16.6-1.7,24.3-2.7c0,0,0,0,0.1,0c0.2,0,0.5,0.2,0.5,0.4l0,0.1
		c0,0.3-0.1,0.5-0.4,0.6c-7.8,1.4-15.7,2.6-24.2,3.6c-3.9,0.5-8,1-12.4,1.4C105.1,15.1,100.5,15.4,96.4,15.7
		C96.5,15.7,96.4,15.7,96.4,15.7z"/>
	<path class="st0" d="M43.1,20.6l-3-0.5l-0.4-3c0-0.3-0.2-0.5-0.5-0.5c-0.3,0-0.5,0.1-0.6,0.3l-1.4,2.7l-3-0.5
		c-0.3,0-0.5,0.1-0.6,0.3c-0.1,0.2-0.1,0.5,0.1,0.7l2.1,2.1l-1.4,2.7c-0.1,0.2-0.1,0.5,0.1,0.7c0.2,0.2,0.5,0.2,0.7,0.1l2.7-1.3
		l2.1,2.1c0.1,0.1,0.2,0.2,0.3,0.2c0.1,0,0.3,0,0.4-0.1c0.2-0.1,0.4-0.4,0.3-0.6l-0.4-3l2.7-1.3c0.2-0.1,0.4-0.4,0.3-0.6
		C43.6,20.8,43.4,20.6,43.1,20.6z"/>
	<path class="st0" d="M131.2,20.6l3-0.5l0.4-3c0-0.3,0.2-0.5,0.5-0.5c0.3,0,0.5,0.1,0.6,0.3l1.4,2.7l3-0.5c0.3,0,0.5,0.1,0.6,0.3
		c0.1,0.2,0.1,0.5-0.1,0.7l-2.1,2.1l1.4,2.7c0.1,0.2,0.1,0.5-0.1,0.7c-0.2,0.2-0.5,0.2-0.7,0.1l-2.7-1.3l-2.1,2.1
		c-0.1,0.1-0.2,0.2-0.3,0.2c-0.1,0-0.3,0-0.4-0.1c-0.2-0.1-0.4-0.4-0.3-0.6l0.4-3l-2.7-1.3c-0.2-0.1-0.4-0.4-0.3-0.6
		C130.7,20.8,130.9,20.6,131.2,20.6z"/>
	<g>
		<path class="st0" d="M56.6,92.1c-0.3,0-0.5-0.3-0.4-0.5l0.9-9.1c0-0.2-0.1-0.4-0.4-0.4l-2.9-0.3c-0.3,0-0.5-0.3-0.4-0.5l0.2-2.4
			c0-0.3,0.2-0.4,0.5-0.4c0,0,10.3,1,10.3,1c0.1,0,0.3,0.1,0.3,0.2c0.1,0.1,0.1,0.2,0.1,0.4l-0.2,2.4c0,0.3-0.2,0.4-0.5,0.4
			c0,0-2.1-0.2-3-0.3c-0.2,0-0.4,0.1-0.4,0.4l-0.9,9.1c0,0.1-0.1,0.3-0.2,0.3c-0.1,0.1-0.2,0.1-0.3,0.1
			C59.3,92.4,56.6,92.1,56.6,92.1z"/>
		<path class="st0" d="M65.5,93c-0.3,0-0.5-0.3-0.5-0.5L65.8,80c0-0.1,0.1-0.3,0.2-0.3c0.1-0.1,0.2-0.1,0.3-0.1c0,0,9.2,0.5,9.2,0.5
			c0.3,0,0.5,0.3,0.5,0.5l-0.1,2.5c0,0.3-0.2,0.5-0.5,0.5c0,0-4.5-0.3-5.7-0.3c-0.2,0-0.3,0.1-0.3,0.3l0,0.9c0,0.2,0.1,0.3,0.3,0.3
			l4.2,0.2c0.1,0,0.3,0.1,0.3,0.2c0.1,0.1,0.1,0.2,0.1,0.4l-0.1,2.1c0,0.3-0.2,0.5-0.5,0.5c0,0-3.3-0.2-4.3-0.3
			c-0.2,0-0.3,0.1-0.3,0.3l0,1.1c0,0.2,0.1,0.3,0.3,0.3l5.7,0.3c0.1,0,0.3,0.1,0.3,0.2c0.1,0.1,0.1,0.2,0.1,0.4L75.2,93
			c0,0.3-0.2,0.5-0.5,0.5C74.7,93.5,65.5,93,65.5,93z"/>
		<path class="st0" d="M86.1,93.8c-0.2,0-0.4-0.1-0.5-0.4L85,91.2c0-0.1-0.1-0.2-0.3-0.2l-3.4,0c-0.1,0-0.2,0.1-0.3,0.2l-0.7,2.2
			c-0.1,0.2-0.3,0.3-0.5,0.3c0,0-2.7,0-2.7,0c-0.2,0-0.3-0.1-0.4-0.2c-0.1-0.1-0.1-0.3-0.1-0.4l3.7-12.4c0.1-0.2,0.3-0.4,0.5-0.4
			c0,0,4.5,0.1,4.5,0.1c0.2,0,0.4,0.2,0.5,0.4l3.4,12.5c0,0.2,0,0.3-0.1,0.4c-0.1,0.1-0.2,0.2-0.4,0.2
			C88.8,93.8,86.1,93.8,86.1,93.8z M82.2,87.6l1.8,0c0.1,0,0.2-0.1,0.1-0.2L83.2,84c0-0.1-0.2-0.1-0.2,0l-1,3.5
			C82,87.6,82.1,87.6,82.2,87.6z"/>
		<path class="st0" d="M100.8,93.6c-2.9,0-6.3-1.7-6.6-6.7c-0.1-2.4,0.6-4.3,2-5.6c1.6-1.4,3.5-1.6,4.2-1.7c0.1,0,0.2,0,0.3,0
			c1.8,0,3.2,0.7,3.8,1c0.2,0.1,0.3,0.4,0.2,0.6l-0.9,2.2c-0.1,0.1-0.2,0.2-0.3,0.3c-0.1,0-0.1,0-0.2,0c-0.1,0-0.2,0-0.2-0.1
			c-0.5-0.3-1.2-0.6-2.1-0.6l-0.2,0c-0.9,0-1.7,0.4-2.2,1c-0.5,0.6-0.8,1.5-0.7,2.5c0.1,2.1,1.2,3.2,3,3.2l0.2,0
			c0.9,0,1.7-0.4,2.2-0.8c0.1-0.1,0.2-0.1,0.3-0.1c0,0,0.1,0,0.1,0c0.1,0,0.3,0.1,0.3,0.3l1.1,2.1c0.1,0.2,0.1,0.5-0.2,0.6
			c-0.7,0.5-2.1,1.3-4.1,1.4C101,93.6,100.9,93.6,100.8,93.6z"/>
		<path class="st0" d="M112.4,92.8c-1.4,0-6-0.5-6.5-6.4c-0.3-3,0.9-4.8,1.9-5.7c1.5-1.4,3.3-1.7,4-1.8c0.2,0,0.4,0,0.6,0
			c1.4,0,6,0.5,6.5,6.4c0.5,5.1-2.9,7.2-5.9,7.5C112.8,92.8,112.6,92.8,112.4,92.8z M112.3,82.2c-0.1,0-0.2,0-0.2,0
			c-2.3,0.2-2.3,2.8-2.2,3.9c0.2,2.3,1.1,3.5,2.6,3.5c0.1,0,0.2,0,0.3,0c1.6-0.1,2.4-1.5,2.1-4C114.8,84.4,114.3,82.2,112.3,82.2z"
			/>
		<path class="st0" d="M121.5,91.9c-1,0-1.8-0.7-1.9-1.7c-0.1-1.1,0.6-2,1.7-2.1c0.1,0,0.2,0,0.2,0c1,0,1.8,0.7,1.9,1.7
			c0.1,1-0.6,2-1.7,2.1C121.6,91.8,121.6,91.9,121.5,91.9z"/>
	</g>
	<path class="st0" d="M49.5,87c-5.5-0.9-10.4-1.8-15-2.9c-2.5-0.6-5.1-1.2-7.7-1.9c-1-0.3-2-0.5-2.9-0.8l-0.1,0
		c-1.3-0.4-2.7-0.7-4-1.1c-0.3-0.1-0.4-0.3-0.4-0.6l0-0.2c0-0.2,0.3-0.4,0.5-0.4c0,0,0.1,0,0.1,0c1.4,0.3,2.8,0.6,4.1,0.8
		c1,0.2,2.1,0.4,3.1,0.6c2.5,0.5,5.1,1,7.7,1.4c4.6,0.8,9.5,1.4,15,2c0.1,0,0.3,0.1,0.3,0.2c0.1,0.1,0.1,0.2,0.1,0.4l-0.3,2
		c0,0.1-0.1,0.3-0.2,0.3C49.8,87,49.6,87,49.5,87C49.5,87,49.5,87,49.5,87z"/>
	<path class="st0" d="M124.8,87c-0.1,0-0.2,0-0.3-0.1c-0.1-0.1-0.2-0.2-0.2-0.3l-0.3-2c0-0.1,0-0.3,0.1-0.4s0.2-0.2,0.3-0.2
		c5.5-0.6,10.4-1.2,15-2c2.6-0.4,5.1-0.9,7.7-1.4c1-0.2,2.1-0.4,3.1-0.6c1.3-0.3,2.7-0.6,4.1-0.8c0,0,0.1,0,0.1,0
		c0.2,0,0.4,0.2,0.5,0.4l0,0.2c0,0.3-0.1,0.5-0.4,0.6c-1.3,0.3-2.7,0.7-4,1.1l-0.2,0.1c-1,0.3-1.9,0.5-2.9,0.8
		c-2.6,0.7-5.1,1.3-7.7,1.9C135.3,85.2,130.3,86.1,124.8,87C124.8,87,124.8,87,124.8,87z"/>
	<g>
		<g>
			<path class="st0" d="M84.9,75.3c-0.3,0-0.5-0.2-0.5-0.5V46.3c0-0.3-0.2-0.5-0.5-0.5c-2.5,0-4.4-0.1-4.4-0.1
				c-0.3,0-0.5-0.2-0.5-0.5v-5.2c0-0.3,0.2-0.5,0.5-0.5h14.6c0.3,0,0.5,0.2,0.5,0.5v5.2c0,0.3-0.2,0.5-0.5,0.5
				c-0.7,0.1-1.8,0.1-3.3,0.1c-0.3,0-0.5,0.2-0.5,0.5l0.4,28.4c0,0.1,0,0.3-0.1,0.4c-0.1,0.1-0.2,0.1-0.4,0.1H84.9z M66.1,75.3
				c-0.1,0-0.3-0.1-0.4-0.2c-0.1-0.1-0.1-0.2-0.1-0.4L66.8,40c0-0.3,0.2-0.5,0.5-0.5h8.9c0.3,0,0.5,0.2,0.5,0.5v4.7
				c0,0.3-0.2,0.5-0.5,0.5h-3.7c-0.3,0-0.5,0.2-0.5,0.5l0,8.8c0,0.1,0.1,0.3,0.1,0.4c0.1,0.1,0.2,0.1,0.4,0.1h3.7
				c0.3,0,0.5,0.2,0.5,0.5v4.2c0,0.1-0.1,0.3-0.2,0.4c-0.1,0.1-0.2,0.1-0.3,0.1c-0.1,0-3.8-0.1-3.8-0.1c-0.1,0-0.3,0-0.3,0.1
				c-0.1,0.1-0.2,0.2-0.2,0.4l0,8.2c0,0.1,0.1,0.3,0.1,0.4c0.1,0.1,0.2,0.1,0.4,0.1h3.8c0.3,0,0.5,0.2,0.5,0.5v5
				c0,0.3-0.2,0.5-0.5,0.5H66.1z M108.1,75.3c-0.3,0-0.5-0.2-0.5-0.5l-3.4-36.1c0-0.1,0-0.3,0.1-0.4c0.1-0.1,0.2-0.2,0.4-0.2
				c0,0,5.8-0.2,5.9-0.2c0.2,0,0.5,0.2,0.5,0.5l2.6,27.6c0,0.3,0.2,0.5,0.5,0.5c0,0,6.8-0.6,6.8-0.6c0.2,0,0.3,0,0.4,0.1
				c0.1,0.1,0.2,0.2,0.2,0.3l0.6,7.7c0,0.1,0,0.3-0.1,0.4c-0.1,0.1-0.2,0.2-0.3,0.2C121.6,74.5,108.6,75.3,108.1,75.3z M59.6,75
				c-4.3,0-9.5-0.8-9.6-0.8c-0.3,0-0.5-0.3-0.4-0.6l5-35.2c0-0.1,0.1-0.3,0.2-0.3c0.1-0.1,0.2-0.1,0.3-0.1c2.7,0.5,8.1,0.7,8.3,0.7
				c0.3,0,0.5,0.2,0.5,0.5v5.3c0,0.1-0.1,0.3-0.2,0.4c-0.1,0.1-0.2,0.1-0.3,0.1c-0.2,0-1.8-0.1-3.7-0.3c0,0,0,0-0.1,0
				c-0.1,0-0.2,0-0.3,0.1c-0.1,0.1-0.2,0.2-0.2,0.3l-0.9,8.4c0,0.1,0,0.3,0.1,0.4c0.1,0.1,0.2,0.2,0.4,0.2l2.7,0.2
				c0.3,0,0.5,0.2,0.5,0.5v4.8c0,0.1-0.1,0.3-0.2,0.4c-0.1,0.1-0.2,0.1-0.3,0.1c-0.1,0-3.3-0.2-3.3-0.2c-0.3,0-0.5,0.2-0.5,0.4
				l-0.8,7.3c0,0.3,0.2,0.5,0.4,0.5l3,0.4c0.2,0,0.4,0.2,0.4,0.5c0.1,5.2,0.1,5.6-0.1,5.8c-0.1,0.1-0.2,0.1-0.3,0.1L59.6,75z
				 M126.2,73.7c-0.3,0-0.5-0.2-0.5-0.5l-3.2-34.8c0-0.3,0.2-0.5,0.4-0.5c0,0,10.1-1.5,10.1-1.5c0.3,0,0.5,0.2,0.6,0.4l0.7,4.6
				c0,0.3-0.1,0.5-0.4,0.6l-4.1,0.8c-0.3,0-0.4,0.3-0.4,0.5l0.8,9c0,0.3,0.2,0.5,0.5,0.5c0,0,4.1-0.2,4.2-0.2c0.2,0,0.5,0.2,0.5,0.5
				l0.3,4.7c0,0.3-0.2,0.5-0.4,0.5l-3.9,0.4c-0.3,0-0.5,0.3-0.4,0.5l0.8,8.1c0,0.3,0.2,0.5,0.5,0.5c0,0,4.6-0.4,4.6-0.4
				c0.3,0,0.5,0.2,0.5,0.4l0.6,4.6c0,0.1,0,0.3-0.1,0.4c-0.1,0.1-0.2,0.2-0.4,0.2C137.4,73.1,126.7,73.7,126.2,73.7z M10.9,72.2
				c-2.5,0-8.7-1.1-10.9-11.7C0,60.3,0.1,60,0.4,60l6.1-1.6c0,0,0.1,0,0.1,0c0.1,0,0.2,0,0.3,0.1c0.1,0.1,0.2,0.2,0.2,0.4
				c0,0.2,0.5,5.4,3.7,5.4c0.3,0,0.6,0,0.9-0.1c0.9-0.2,1.5-0.7,1.9-1.5c0.9-2.1-0.4-6.4-3.5-11.8c-3.2-5.5-7.4-13.5-6.7-19.4
				C4,25.7,8.1,22,13.9,22c3.4,0,6.9,1.3,9.9,3.7c0.2,0.2,0.2,0.4,0.1,0.6L21.2,31c-0.1,0.1-0.2,0.2-0.4,0.2l0,0
				c-0.2,0-0.3-0.1-0.4-0.2c-0.1-0.1-1.5-2.2-4.7-2.2c-0.3,0-0.7,0-1,0.1c-1.5,0.2-2.6,0.9-3.1,2c-0.9,1.7-1,5.4,3.5,13.2
				c5.8,10.2,7.3,16.6,5.2,22.3C19,69.7,14.9,72.2,10.9,72.2z M38,72.2c-0.2,0-0.4-0.2-0.5-0.4l-2.7-11.3c-0.1-0.2-0.2-0.4-0.5-0.4
				c0,0,0,0,0,0c-0.2,0-0.4,0.1-0.5,0.3l-3.8,10.4c-0.1,0.2-0.3,0.3-0.5,0.3l-3.3-0.4c-0.2,0-0.4-0.2-0.4-0.4l-3.7-34.4
				c0-0.1,0-0.3,0.1-0.4c0.1-0.1,0.2-0.2,0.4-0.2c0,0,5.4-0.1,5.5-0.1c0.3,0,0.5,0.2,0.5,0.5l1.3,17.4c0,0.2,0.2,0.4,0.4,0.5
				c0,0,0.1,0,0.1,0c0.2,0,0.4-0.1,0.5-0.3l4.1-9.5c0.1-0.2,0.3-0.3,0.5-0.3c0.2,0,0.4,0.1,0.5,0.3l3.8,11.4
				c0.1,0.2,0.3,0.3,0.5,0.3c0,0,0,0,0,0c0.2,0,0.4-0.2,0.5-0.4L46,36.3c0-0.1,0.1-0.2,0.3-0.3c0.1,0,0.2-0.1,0.2-0.1
				c0.1,0,0.1,0,0.2,0l5.1,1.8c0.3,0.1,0.4,0.4,0.3,0.6l-9.8,33.5c-0.1,0.2-0.3,0.4-0.5,0.4H38z M140.6,71.7c-0.1,0-0.3-0.1-0.3-0.1
				c-0.1-0.1-0.2-0.2-0.1-0.4c0-1,0.2-24.4,0.3-36.6c0-0.3,0.2-0.5,0.5-0.5h1.8c0.2,0,0.3,0.1,0.4,0.2c6.4,10.5,16.3,33.8,16.4,34.1
				c0.1,0.1,0.1,0.3,0,0.4c-0.1,0.1-0.2,0.2-0.3,0.3l-5.2,1.3c0,0-0.1,0-0.1,0c-0.2,0-0.4-0.1-0.5-0.3c-0.5-1.7-1.2-3.5-2.2-5.9
				c-0.1-0.2-0.3-0.3-0.5-0.3c0,0-0.1,0-0.1,0l-4.1,1c-0.2,0.1-0.4,0.3-0.4,0.5l0.2,5.6c0,0.3-0.2,0.5-0.5,0.5
				C146,71.4,140.9,71.7,140.6,71.7z M146.2,52.5c0,0-0.1,0-0.1,0c-0.2,0.1-0.4,0.2-0.4,0.5l-0.1,5.3c0,0.2,0.1,0.3,0.2,0.4
				c0.1,0.1,0.2,0.1,0.3,0.1c0,0,0.1,0,0.1,0l2.5-0.6c0.1,0,0.3-0.1,0.3-0.3c0.1-0.1,0.1-0.3,0-0.4c-0.7-1.5-1.5-3.1-2.4-4.7
				C146.6,52.6,146.4,52.5,146.2,52.5z M163.4,70.5c-0.2,0-0.4-0.2-0.5-0.4l-10.3-44.5c-0.1-0.3,0.1-0.5,0.3-0.6
				c4.8-1.6,14.7-3.1,14.8-3.2c0,0,0,0,0,0c0.3,0,0.5,0.1,0.5,0.4l1.6,5.7c0,0.1,0,0.3,0,0.4c-0.1,0.1-0.2,0.2-0.3,0.2l-7.8,1.9
				c-0.3,0.1-0.4,0.3-0.4,0.6l2.6,11.3c0.1,0.2,0.3,0.4,0.5,0.4c0,0,0.1,0,0.1,0c3.2-0.7,6.2-1.2,6.2-1.2c0,0,0,0,0.1,0
				c0.2,0,0.2,0,0.3,0.1c0.1,0.1,0.2,0.2,0.2,0.3l1.2,6.6c0,0.3-0.1,0.5-0.4,0.6l-5.8,1.2c-0.1,0-0.2,0.1-0.3,0.2
				c-0.1,0.1-0.1,0.3-0.1,0.4l4.2,18c0,0.1,0,0.3-0.1,0.4c-0.1,0.1-0.2,0.2-0.3,0.2L163.4,70.5L163.4,70.5z"/>
		</g>
		<g>
			<g>
				<path class="st0" d="M170.7,64.9c0-1,0.9-1.9,1.9-1.9c1,0,1.9,0.9,1.9,1.9c0,1-0.9,1.9-1.9,1.9
					C171.6,66.8,170.7,65.9,170.7,64.9z M171.1,64.9c0,0.8,0.7,1.5,1.5,1.5c0.8,0,1.5-0.7,1.5-1.5c0-0.8-0.7-1.5-1.5-1.5
					C171.8,63.4,171.1,64,171.1,64.9z M173,65l0.5,0.8H173c-0.1-0.2-0.3-0.5-0.4-0.8h-0.3v0.8h-0.4v-1.9h0.8c0.3,0,0.6,0.3,0.6,0.6
					C173.4,64.7,173.2,64.9,173,65z M172.7,64.2h-0.4v0.5h0.4c0.1,0,0.2-0.1,0.2-0.2C173,64.3,172.9,64.2,172.7,64.2z"/>
			</g>
		</g>
	</g>
	<g>
		<g>
			<path class="st0" d="M52.9,31.5c-0.4,0-0.8,0-1.2-0.1c-1.6-0.3-3-1-4-2.1c-1.3-1.5-1.7-3.4-1.3-5.8c0.9-5.5,5.2-5.9,6.5-5.9
				c0.4,0,0.8,0,1.1,0.1c0.7,0.1,2.6,0.6,3.9,2.1c1.3,1.5,1.7,3.4,1.3,5.8C58.4,30.9,54.5,31.5,52.9,31.5z M53,20.9
				c-1.4,0-2.3,1.2-2.7,3.3c-0.2,1.2-0.1,2.1,0.2,2.8c0.3,0.7,0.9,1.2,1.7,1.3c0.2,0,0.3,0,0.5,0c0.5,0,2,0,2.6-3.3
				c0.1-0.7,0.2-1.7-0.1-2.5c-0.3-0.9-0.9-1.4-1.8-1.5C53.3,20.9,53.2,20.9,53,20.9z"/>
		</g>
		<g>
			<path class="st0" d="M67.7,33.2c-0.2,0-0.4-0.1-0.4-0.3c0,0-1.3-3.4-1.6-4.4c-0.1-0.2-0.2-0.3-0.4-0.3c0,0-0.8-0.1-0.9-0.1
				c-0.2,0-0.2,0.1-0.2,0.2s-0.4,4-0.4,4c0,0.1-0.1,0.3-0.2,0.3c-0.1,0.1-0.2,0.1-0.3,0.1c0,0-2.7-0.3-2.7-0.3
				c-0.3,0-0.5-0.3-0.4-0.5l1.2-12.4c0-0.3,0.2-0.5,0.5-0.5c0,0,5.7,0.6,5.7,0.6c2.6,0.3,4.2,2.2,4,4.8c-0.2,1.6-1,2.8-2.4,3.5
				l2.1,4.9c0.1,0.2,0,0.3-0.1,0.5c-0.1,0.1-0.2,0.2-0.4,0.2C70.9,33.5,67.7,33.2,67.7,33.2z M64.6,24.8c0,0.2,0.1,0.4,0.3,0.4
				l1.7,0.2c0.1,0,0.1,0,0.2,0c0.7,0,1.2-0.4,1.3-1.2c0.1-0.7-0.5-1.3-1.2-1.4c0,0-1.1-0.1-1.7-0.2c-0.2,0-0.4,0.1-0.4,0.3
				L64.6,24.8z"/>
		</g>
		<g>
			<path class="st0" d="M79.2,34.2C76,34,72.3,32,72.5,26.9c0.2-4.6,3.7-6.7,6.9-6.7c0.1,0,0.2,0,0.3,0c2.5,0.1,3.9,0.9,4.5,1.4
				c0.2,0.1,0.3,0.4,0.1,0.6l-1.1,2.1c-0.1,0.1-0.2,0.2-0.3,0.3c0,0-0.1,0-0.1,0c-0.1,0-0.2,0-0.3-0.1c-0.5-0.3-1.3-0.7-2.2-0.8
				l-0.2,0c-2,0-3.6,1.4-3.7,3.2c0,1,0.2,1.8,0.8,2.4c0.5,0.6,1.3,0.9,2.2,0.9c0.3,0,0.5,0,0.8-0.1c0.1,0,0.2,0,0.2-0.3
				c0-0.2,0.1-2.8,0.1-2.8c0-0.1,0.1-0.3,0.2-0.3c0.1-0.1,0.2-0.1,0.3-0.1c0,0,2.7,0.1,2.7,0.1c0.3,0,0.5,0.2,0.5,0.5l-0.2,5.3
				c0,0.2-0.1,0.3-0.3,0.4c-0.6,0.3-2.3,1.1-4.4,1.1C79.4,34.2,79.3,34.2,79.2,34.2z"/>
		</g>
		<g>
			<path class="st0" d="M85.9,34.1c-0.2,0-0.3-0.1-0.4-0.2c-0.1-0.1-0.1-0.3-0.1-0.4L88.6,21c0.1-0.2,0.3-0.4,0.5-0.4
				c0,0,4.5-0.1,4.5-0.1c0.2,0,0.4,0.1,0.5,0.4l3.8,12.4c0,0.2,0,0.3-0.1,0.4c-0.1,0.1-0.2,0.2-0.4,0.2c0,0-2.7,0.1-2.7,0.1
				c-0.2,0-0.4-0.1-0.5-0.3l-0.7-2c-0.1-0.2-0.3-0.3-0.5-0.3L90,31.3c-0.2,0-0.4,0.1-0.5,0.4l-0.6,2c-0.1,0.2-0.3,0.4-0.5,0.4
				C88.5,34.1,85.9,34.1,85.9,34.1z M90.8,28l1.5,0c0.2,0,0.3-0.2,0.2-0.3l-0.9-3.2c0-0.2-0.3-0.2-0.3,0l-0.8,3.2
				C90.5,27.9,90.6,28,90.8,28z"/>
		</g>
		<g>
			<path class="st0" d="M100,33.8c-0.3,0-0.5-0.2-0.5-0.5l-1-12.4c0-0.1,0-0.3,0.1-0.4c0.1-0.1,0.2-0.2,0.3-0.2c0,0,2.9-0.2,2.9-0.2
				c0.2,0,0.3,0.1,0.4,0.2l4.1,5.8c0.1,0.1,0.3,0.1,0.3-0.1l-0.5-5.8c0-0.1,0-0.3,0.1-0.4c0.1-0.1,0.2-0.2,0.3-0.2
				c0,0,2.7-0.2,2.7-0.2c0.3,0,0.5,0.2,0.5,0.5l1,12.4c0,0.3-0.2,0.5-0.5,0.5c0,0-2.9,0.2-2.9,0.2c-0.2,0-0.3-0.1-0.4-0.2l-4.1-5.6
				c-0.1-0.1-0.3-0.1-0.3,0.1l0.5,5.6c0,0.1,0,0.3-0.1,0.4c-0.1,0.1-0.2,0.2-0.3,0.2C102.7,33.5,100,33.8,100,33.8z"/>
		</g>
		<g>
			<path class="st0" d="M113.6,32.5c-0.1,0-0.2,0-0.3-0.1c-0.1-0.1-0.2-0.2-0.2-0.3l-1.6-12.4c0-0.3,0.2-0.5,0.4-0.6l2.7-0.3
				c0,0,0,0,0.1,0c0.1,0,0.2,0,0.3,0.1c0.1,0.1,0.2,0.2,0.2,0.3l1.6,12.4c0,0.3-0.2,0.5-0.4,0.6L113.6,32.5
				C113.6,32.5,113.6,32.5,113.6,32.5z"/>
		</g>
		<g>
			<path class="st0" d="M123.9,31c-1.6,0-5.6-0.6-6.5-5.8c-0.9-5.4,2.9-7.6,5.3-8c0.4-0.1,0.9-0.1,1.3-0.1c1.4,0,2.5,0.4,3,0.6
				c0.2,0.1,0.3,0.4,0.3,0.6l-0.6,2.3c0,0.1-0.1,0.3-0.3,0.3c-0.1,0-0.1,0.1-0.2,0.1c-0.1,0-0.1,0-0.2,0c-0.4-0.2-1-0.3-1.7-0.3
				c-0.2,0-0.4,0-0.6,0.1c-0.9,0.2-1.6,0.6-2.1,1.3c-0.4,0.7-0.6,1.6-0.4,2.6c0.3,1.8,1.4,2.9,2.9,2.9c0.2,0,0.4,0,0.7-0.1
				c0.9-0.2,1.6-0.7,2.1-1c0.1-0.1,0.2-0.1,0.3-0.1c0,0,0,0,0.1,0c0.1,0,0.3,0.1,0.3,0.2l1.4,2c0.1,0.2,0.1,0.5-0.1,0.7
				c-0.6,0.6-1.9,1.5-3.8,1.9C124.7,31,124.3,31,123.9,31z"/>
		</g>
	</g>
	<path class="st0" d="M87.2,0c-2.2,0-5.8,7.9-5.8,11.1c0,3.2,2.5,5.7,5.7,5.8c0-0.1,0-0.2,0-0.4c-0.1-0.5-0.3-1-0.7-1.4
		c-0.4-0.5-0.9-0.8-1.4-1.1c-0.6-0.3-1.2-0.6-1.7-1.1c-0.3-0.2-0.5-0.6-0.6-0.9c-0.1-0.2-0.1-0.4-0.1-0.5c0-0.2,0-0.4,0-0.5
		c0,0,0,0,0.1,0c0,0,0,0,0,0c0.1,0.7,0.5,1.2,1,1.5c0.5,0.3,1.1,0.6,1.7,0.9c0.6,0.3,1.2,0.8,1.6,1.4c0,0,0,0.1,0,0.1
		c0-0.5,0-1-0.1-1.5c0-0.4,0-0.8,0-1.3c-0.1-0.3-0.2-0.5-0.4-0.7c-0.3-0.5-0.8-0.8-1.2-1.2c-0.5-0.4-1-0.9-1.3-1.5
		c-0.3-0.6-0.3-1.3-0.2-1.9c0,0,0,0,0.1,0c0,0,0,0,0,0C84,7.4,84.2,8,84.5,8.4c0.3,0.5,0.7,0.8,1.2,1.2c0.4,0.3,0.8,0.7,1.1,1.2
		c0-0.5,0-1,0-1.5c0-0.6,0-1.1,0-1.7c-0.1-0.1-0.1-0.3-0.2-0.4c-0.2-0.4-0.5-0.7-0.9-1c-0.3-0.3-0.7-0.8-0.9-1.3
		c-0.2-0.5-0.2-1.1,0-1.6c0,0,0,0,0.1,0c0,0,0,0,0,0c0.1,0.5,0.3,0.9,0.5,1.3c0.2,0.4,0.5,0.7,0.9,1c0.2,0.2,0.4,0.4,0.6,0.7
		c0-0.4,0-0.7,0-1.1C86.9,3.8,87,2.4,87.1,1c0,0,0,0,0.1,0c0,0,0,0,0,0c0.1,1.4,0.2,2.7,0.3,4.1c0,0.4,0,0.7,0,1.1
		c0.2-0.3,0.4-0.5,0.6-0.7c0.3-0.3,0.6-0.7,0.9-1c0.2-0.4,0.4-0.8,0.5-1.3c0,0,0,0,0.1,0c0,0,0,0,0,0c0.1,0.5,0.1,1,0,1.6
		c-0.2,0.5-0.5,1-0.9,1.3c-0.4,0.3-0.7,0.7-0.9,1c-0.1,0.1-0.1,0.3-0.2,0.4c0,0.6,0,1.1,0,1.7c0,0.5,0,1,0,1.5
		c0.3-0.5,0.7-0.8,1.1-1.2c0.5-0.4,0.9-0.7,1.2-1.2c0.3-0.5,0.5-1,0.6-1.6c0,0,0,0,0.1,0c0,0,0,0,0,0c0.1,0.6,0.1,1.3-0.2,1.9
		c-0.3,0.6-0.8,1.1-1.3,1.5c-0.5,0.4-0.9,0.7-1.2,1.2c-0.1,0.2-0.3,0.5-0.4,0.7c0,0.4,0,0.8,0,1.3c0,0.5,0,1-0.1,1.5
		c0,0,0-0.1,0-0.1c0.4-0.7,1-1.1,1.6-1.4c0.6-0.3,1.2-0.6,1.7-0.9c0.5-0.3,0.9-0.8,1-1.5c0,0,0,0,0.1,0c0,0,0,0,0,0
		c0,0.2,0,0.3,0,0.5c0,0.2-0.1,0.4-0.1,0.5c-0.1,0.3-0.4,0.7-0.6,0.9c-0.5,0.5-1.2,0.8-1.7,1.1c-0.6,0.3-1.1,0.7-1.4,1.1
		c-0.3,0.4-0.5,0.9-0.7,1.4c0,0.1,0,0.2,0,0.4c3.2-0.1,5.7-2.6,5.7-5.8C93,7.9,89.4,0,87.2,0z"/>
</g>
</svg>
